{
.appVersion = "1064";
DisplayStrings = (
"ABC/_part-fut-cap DoncEFGHIJKLMNOPQRSTUVWXYZ",
""
);
date = "2017-10-13 07:30:52 +0000";
familyName = Baskerwille;
featurePrefixes = (
{
automatic = 1;
code = "languagesystem DFLT dflt;\012";
name = Languagesystems;
}
);
features = (
{
automatic = 1;
code = "feature ccmp;\012";
name = aalt;
},
{
automatic = 1;
code = "lookup ccmp_Other_1 {\012	@CombiningTopAccents = [acutecomb dotaccentcomb gravecomb];\012	sub [i j]' @CombiningTopAccents by [idotless jdotless];\012} ccmp_Other_1;\012";
name = ccmp;
},
{
automatic = 1;
code = "sub f f i by f_f_i.liga;\012sub f f l by f_f_l.liga;\012sub f b by f_b.liga;\012sub f f by f_f.liga;\012sub f h by f_h.liga;\012sub f k by f_k.liga;\012sub f t by f_t.liga;\012sub f i by fi;\012sub f l by fl;\012";
name = liga;
}
);
fontMaster = (
{
alignmentZones = (
"{710, 10}",
"{440, 14}",
"{0, -14}",
"{-280, -10}"
);
ascender = 710;
capHeight = 710;
descender = -280;
id = "9372F035-DA38-4B54-966C-CEBA9B53DD02";
italicAngle = 20;
userData = {
GSCornerRadius = 5;
};
verticalStems = (
90,
70
);
xHeight = 440;
}
);
glyphs = (
{
color = 0;
glyphname = A;
lastChange = "2017-10-20 12:05:03 +0000";
layers = (
{
associatedMasterId = "9372F035-DA38-4B54-966C-CEBA9B53DD02";
guideLines = (
{
angle = 90;
position = "{539, 480}";
}
);
layerId = "56AD7D06-D2AD-4C7F-9220-4B1E373A2504";
name = "Oct 19 17, 11:28";
paths = (
{
closed = 1;
nodes = (
"517 724 LINE",
"463 683 LINE",
"66 112 LINE SMOOTH",
"28 58 OFFCURVE",
"17 31 OFFCURVE",
"-55 24 CURVE SMOOTH",
"-76 22 LINE",
"-85 -3 LINE",
"38 0 LINE",
"156 -3 LINE",
"165 22 LINE",
"146 24 LINE SMOOTH",
"79 31 OFFCURVE",
"61 51 OFFCURVE",
"92 97 CURVE SMOOTH",
"469 649 LINE",
"452 657 LINE",
"445 116 LINE SMOOTH",
"444 44 OFFCURVE",
"409 30 OFFCURVE",
"349 24 CURVE SMOOTH",
"328 22 LINE",
"319 -3 LINE",
"464 0 LINE",
"606 -3 LINE",
"615 22 LINE",
"596 24 LINE SMOOTH",
"521 32 OFFCURVE",
"523 59 OFFCURVE",
"523 114 CURVE SMOOTH",
"520 724 LINE"
);
},
{
closed = 1;
nodes = (
"467 273 LINE",
"480 299 LINE",
"203 299 LINE",
"190 273 LINE"
);
}
);
width = 643;
},
{
anchors = (
{
name = bottom;
position = "{242, 0}";
},
{
name = ogonek;
position = "{491, 10}";
},
{
name = top;
position = "{500, 710}";
}
);
background = {
paths = (
{
closed = 1;
nodes = (
"548 74 OFFCURVE",
"547 40 OFFCURVE",
"594 30 CURVE SMOOTH",
"630 22 LINE",
"620 -3 LINE",
"435 0 LINE",
"329 -3 LINE",
"338 22 LINE",
"381 30 LINE SMOOTH",
"415 36 OFFCURVE",
"447 53 OFFCURVE",
"446 91 CURVE",
"427 592 LINE",
"452 617 LINE",
"62 118 LINE SMOOTH",
"1 39 OFFCURVE",
"10 29 OFFCURVE",
"52 25 CURVE SMOOTH",
"82 22 LINE",
"72 -3 LINE",
"11 1 OFFCURVE",
"-56 1 OFFCURVE",
"-127 -3 CURVE",
"-117 22 LINE",
"-90 25 LINE SMOOTH",
"-42 30 OFFCURVE",
"-30 42 OFFCURVE",
"28 116 CURVE SMOOTH",
"498 720 LINE",
"523 720 LINE",
"545 152 LINE SMOOTH"
);
},
{
closed = 1;
nodes = (
"478 299 LINE",
"467 269 LINE",
"176 269 LINE",
"187 299 LINE"
);
}
);
};
guideLines = (
{
angle = 90;
position = "{599, 480}";
}
);
layerId = "9372F035-DA38-4B54-966C-CEBA9B53DD02";
paths = (
{
closed = 1;
nodes = (
"166 -3 LINE",
"175 22 LINE",
"156 24 LINE SMOOTH",
"89 31 OFFCURVE",
"71 51 OFFCURVE",
"102 97 CURVE SMOOTH",
"479 649 LINE",
"460 657 LINE",
"453 116 LINE SMOOTH",
"452 44 OFFCURVE",
"417 32 OFFCURVE",
"357 24 CURVE SMOOTH",
"336 22 LINE",
"327 -3 LINE",
"472 0 LINE",
"619 -3 LINE",
"628 22 LINE",
"609 24 LINE SMOOTH",
"534 32 OFFCURVE",
"536 59 OFFCURVE",
"536 114 CURVE SMOOTH",
"534 727 LINE",
"504 726 LINE",
"76 112 LINE SMOOTH",
"39 58 OFFCURVE",
"27 31 OFFCURVE",
"-45 24 CURVE SMOOTH",
"-66 22 LINE",
"-75 -3 LINE",
"48 0 LINE"
);
},
{
closed = 1;
nodes = (
"477 273 LINE",
"490 299 LINE",
"213 299 LINE",
"200 273 LINE"
);
}
);
width = 643;
}
);
leftKerningGroup = A;
rightKerningGroup = A;
unicode = 0041;
},
{
color = 0;
glyphname = B;
lastChange = "2017-10-20 12:05:52 +0000";
layers = (
{
anchors = (
{
name = bottom;
position = "{239, 0}";
},
{
name = top;
position = "{497, 710}";
}
);
background = {
components = (
{
name = I;
transform = "{1, 0, 0, 1, 18, 0}";
}
);
};
components = (
{
name = "_part-demiserif";
transform = "{1, 0, 0, 1, 40, 0}";
},
{
name = "_part-demiserif";
transform = "{1, 0, -0.72794, -1, 298, 710}";
}
);
layerId = "9372F035-DA38-4B54-966C-CEBA9B53DD02";
paths = (
{
closed = 1;
nodes = (
"248 397 LINE",
"385 397 LINE SMOOTH",
"502 397 OFFCURVE",
"584 465 OFFCURVE",
"584 565 CURVE SMOOTH",
"584 647 OFFCURVE",
"519 687 OFFCURVE",
"408 685 CURVE SMOOTH",
"354 684 LINE",
"363 710 LINE",
"428 711 LINE SMOOTH",
"568 713 OFFCURVE",
"667 676 OFFCURVE",
"667 566 CURVE SMOOTH",
"667 424 OFFCURVE",
"500 372 OFFCURVE",
"374 372 CURVE SMOOTH",
"237 372 LINE"
);
},
{
closed = 1;
nodes = (
"188 109 LINE",
"164 44 OFFCURVE",
"191 26 OFFCURVE",
"256 26 CURVE SMOOTH",
"412 26 OFFCURVE",
"530 115 OFFCURVE",
"530 241 CURVE SMOOTH",
"530 327 OFFCURVE",
"486 374 OFFCURVE",
"359 374 CURVE",
"366 388 LINE",
"517 388 OFFCURVE",
"613 335 OFFCURVE",
"613 238 CURVE SMOOTH",
"613 75 OFFCURVE",
"466 0 OFFCURVE",
"263 0 CURVE SMOOTH",
"120 0 LINE"
);
},
{
closed = 1;
nodes = (
"149 0 LINE",
"72 0 LINE",
"330 710 LINE",
"407 710 LINE"
);
}
);
width = 648;
}
);
leftMetricsKey = H;
unicode = 0042;
},
{
glyphname = C;
lastChange = "2017-10-19 15:54:31 +0000";
layers = (
{
anchors = (
{
name = bottom;
position = "{273, 0}";
},
{
name = top;
position = "{531, 710}";
}
);
background = {
components = (
{
name = G;
transform = "{1, 0, 0, 1, -3, 0}";
}
);
};
guideLines = (
{
angle = 70;
position = "{693, 240}";
}
);
layerId = "9372F035-DA38-4B54-966C-CEBA9B53DD02";
paths = (
{
closed = 1;
nodes = (
"782 689 LINE",
"740 589 LINE",
"702 485 LINE",
"681 485 LINE",
"705 620 OFFCURVE",
"643 690 OFFCURVE",
"543 690 CURVE SMOOTH",
"362 690 OFFCURVE",
"172 462 OFFCURVE",
"172 234 CURVE SMOOTH",
"172 103 OFFCURVE",
"228 18 OFFCURVE",
"340 18 CURVE SMOOTH",
"457 18 OFFCURVE",
"586 126 OFFCURVE",
"644 247 CURVE",
"665 247 LINE",
"615 115 LINE",
"579 8 LINE",
"558 8 LINE",
"560 30 OFFCURVE",
"560 63 OFFCURVE",
"543 63 CURVE SMOOTH",
"523 63 OFFCURVE",
"454 -13 OFFCURVE",
"317 -13 CURVE SMOOTH",
"196 -13 OFFCURVE",
"89 58 OFFCURVE",
"89 208 CURVE SMOOTH",
"89 468 OFFCURVE",
"293 720 OFFCURVE",
"527 720 CURVE SMOOTH",
"653 720 OFFCURVE",
"694 646 OFFCURVE",
"720 646 CURVE SMOOTH",
"734 646 OFFCURVE",
"745 672 OFFCURVE",
"755 689 CURVE"
);
}
);
width = 716;
}
);
leftMetricsKey = O;
unicode = 0043;
},
{
color = 0;
glyphname = D;
lastChange = "2017-10-20 12:04:39 +0000";
layers = (
{
anchors = (
{
name = bottom;
position = "{313, 0}";
},
{
name = center;
position = "{442, 355}";
},
{
name = top;
position = "{571, 710}";
}
);
background = {
components = (
{
name = B;
transform = "{1, 0, 0, 1, -10, 0}";
}
);
};
components = (
{
name = "_part-demiserif";
transform = "{1, 0, 0, 1, 40, 0}";
},
{
name = "_part-demiserif";
transform = "{1, 0, -0.72794, -1, 298, 710}";
},
{
name = "_part-fut-cap";
}
);
guideLines = (
{
angle = 270;
position = "{2949, 356}";
}
);
layerId = "9372F035-DA38-4B54-966C-CEBA9B53DD02";
paths = (
{
closed = 1;
nodes = (
"202 138 LINE",
"162 22 OFFCURVE",
"225 26 OFFCURVE",
"263 26 CURVE SMOOTH",
"297 26 LINE SMOOTH",
"542 26 OFFCURVE",
"717 237 OFFCURVE",
"717 453 CURVE SMOOTH",
"717 588 OFFCURVE",
"647 689 OFFCURVE",
"435 684 CURVE SMOOTH",
"342 682 LINE",
"343 709 LINE",
"452 713 LINE SMOOTH",
"662 721 OFFCURVE",
"802 623 OFFCURVE",
"802 450 CURVE SMOOTH",
"802 231 OFFCURVE",
"627 0 OFFCURVE",
"296 0 CURVE SMOOTH",
"135 0 LINE"
);
}
);
width = 785;
},
{
associatedMasterId = "9372F035-DA38-4B54-966C-CEBA9B53DD02";
components = (
{
name = "_part-demiserif";
transform = "{1, 0, 0, 1, 40, 0}";
},
{
name = "_part-demiserif";
transform = "{1, 0, -0.72794, -1, 298, 710}";
}
);
guideLines = (
{
angle = 270;
position = "{2919, 356}";
}
);
layerId = "B67EAFDB-39EE-4988-A502-153B91EA355B";
name = "Oct 18 17, 16:23";
paths = (
{
closed = 1;
nodes = (
"198 140 LINE",
"155 24 OFFCURVE",
"222 19 OFFCURVE",
"263 19 CURVE SMOOTH",
"308 19 LINE SMOOTH",
"545 19 OFFCURVE",
"722 200 OFFCURVE",
"722 428 CURVE SMOOTH",
"722 572 OFFCURVE",
"640 677 OFFCURVE",
"453 682 CURVE SMOOTH",
"342 685 LINE",
"343 709 LINE",
"457 711 LINE SMOOTH",
"717 716 OFFCURVE",
"802 600 OFFCURVE",
"802 416 CURVE SMOOTH",
"802 198 OFFCURVE",
"627 -15 OFFCURVE",
"323 -6 CURVE SMOOTH",
"130 0 LINE"
);
},
{
closed = 1;
nodes = (
"147 0 LINE",
"72 0 LINE",
"330 710 LINE",
"405 710 LINE"
);
}
);
width = 793;
}
);
leftMetricsKey = H;
rightMetricsKey = O;
unicode = 0044;
},
{
glyphname = E;
lastChange = "2017-10-20 11:56:39 +0000";
layers = (
{
anchors = (
{
name = bottom;
position = "{255, 0}";
},
{
name = ogonek;
position = "{525, 10}";
},
{
name = top;
position = "{513, 710}";
},
{
name = topleft;
position = "{195, 710}";
}
);
background = {
components = (
{
name = I;
transform = "{1, 0, 0, 1, 15, 0}";
}
);
};
components = (
{
name = "_part-demiserif";
transform = "{1, 0, 0, 1, 40, 0}";
},
{
name = "_part-demiserif";
transform = "{1, 0, -0.72794, -1, 298, 710}";
},
{
name = "_part-fut-cap";
}
);
layerId = "9372F035-DA38-4B54-966C-CEBA9B53DD02";
paths = (
{
closed = 1;
nodes = (
"476 388 LINE",
"467 362 LINE",
"251 362 LINE",
"260 388 LINE"
);
},
{
closed = 0;
nodes = (
"281 377 LINE"
);
},
{
closed = 1;
nodes = (
"571 508 LINE",
"520 371 LINE",
"471 226 LINE",
"446 226 LINE",
"483 328 OFFCURVE",
"467 362 OFFCURVE",
"424 362 CURVE",
"433 388 LINE",
"476 388 OFFCURVE",
"503 399 OFFCURVE",
"546 508 CURVE"
);
},
{
closed = 1;
nodes = (
"375 710 LINE",
"705 709 LINE",
"703 649 LINE",
"702 526 LINE",
"677 526 LINE",
"677 615 OFFCURVE",
"648 685 OFFCURVE",
"552 685 CURVE SMOOTH",
"388 685 LINE"
);
},
{
closed = 1;
nodes = (
"210 173 LINE",
"166 62 OFFCURVE",
"188 23 OFFCURVE",
"276 24 CURVE SMOOTH",
"414 25 LINE SMOOTH",
"530 26 OFFCURVE",
"580 90 OFFCURVE",
"632 210 CURVE",
"657 210 LINE",
"607 74 LINE",
"583 0 LINE",
"142 0 LINE"
);
}
);
width = 683;
}
);
leftMetricsKey = H;
unicode = 0045;
},
{
glyphname = F;
lastChange = "2017-10-20 12:00:37 +0000";
layers = (
{
anchors = (
{
name = bottom;
position = "{225, 0}";
},
{
name = top;
position = "{483, 710}";
}
);
background = {
components = (
{
name = P;
}
);
};
backgroundImage = {
crop = "{{1429.818, 1020}, {229.091, 360}}";
imagePath = "Workshop Baskerville/1878 Limprimerie Berger Levrault Notice historique/Romain/JACOB-notice-187504.jpg";
locked = "1";
transform = "{2.612, 0, 3.669, 2.75, -8305, -3085}";
};
components = (
{
name = "_part-fut-cap";
}
);
layerId = "9372F035-DA38-4B54-966C-CEBA9B53DD02";
paths = (
{
closed = 1;
nodes = (
"376 710 LINE",
"695 709 LINE",
"695 526 LINE",
"670 526 LINE",
"670 615 OFFCURVE",
"641 685 OFFCURVE",
"545 685 CURVE SMOOTH",
"389 685 LINE"
);
},
{
closed = 1;
nodes = (
"457 358 LINE",
"448 332 LINE",
"242 332 LINE",
"251 358 LINE"
);
},
{
closed = 0;
nodes = (
"282 377 LINE"
);
},
{
closed = 1;
nodes = (
"552 478 LINE",
"497 341 LINE",
"452 196 LINE",
"427 196 LINE",
"464 298 OFFCURVE",
"448 332 OFFCURVE",
"405 332 CURVE",
"414 358 LINE",
"457 358 OFFCURVE",
"484 369 OFFCURVE",
"527 478 CURVE"
);
},
{
closed = 1;
nodes = (
"180 92 LINE",
"160 37 OFFCURVE",
"177 34 OFFCURVE",
"271 24 CURVE SMOOTH",
"290 22 LINE",
"281 -3 LINE",
"112 0 LINE",
"-33 -3 LINE",
"-24 22 LINE",
"-3 24 LINE SMOOTH",
"69 31 OFFCURVE",
"86 37 OFFCURVE",
"122 137 CURVE"
);
},
{
closed = 1;
nodes = (
"296 618 LINE",
"315 673 OFFCURVE",
"305 679 OFFCURVE",
"236 686 CURVE SMOOTH",
"217 688 LINE",
"226 713 LINE",
"368 710 LINE",
"326 596 LINE"
);
}
);
width = 619;
},
{
associatedMasterId = "9372F035-DA38-4B54-966C-CEBA9B53DD02";
backgroundImage = {
crop = "{{1429.818, 1020}, {229.091, 360}}";
imagePath = "Workshop Baskerville/1878 Limprimerie Berger Levrault Notice historique/Romain/JACOB-notice-187504.jpg";
locked = "1";
transform = "{2.75, 0, 0, 2.75, -3932, -3085}";
};
hints = (
{
origin = "{0, 1}";
type = Corner;
name = "_corner-cap";
},
{
origin = "{0, 0}";
scale = "{-1, 1}";
type = Corner;
name = "_corner-cap";
options = 1;
},
{
origin = "{0, 14}";
type = Corner;
name = "_corner-cap";
}
);
layerId = "9819B011-9A5C-4824-A6C8-3CFD034EFA7B";
name = "Oct 16 17, 14:35";
paths = (
{
closed = 1;
nodes = (
"169 0 LINE",
"169 710 LINE",
"225 710 LINE",
"605 709 LINE",
"617 548 LINE",
"596 548 LINE",
"585 683 OFFCURVE",
"479 687 OFFCURVE",
"413 687 CURVE SMOOTH",
"356 687 LINE SMOOTH",
"275 687 OFFCURVE",
"245 674 OFFCURVE",
"245 597 CURVE SMOOTH",
"244 345 LINE",
"244 0 LINE"
);
},
{
closed = 1;
nodes = (
"415 378 LINE",
"415 353 LINE",
"219 353 LINE",
"219 378 LINE"
);
},
{
closed = 1;
nodes = (
"465 499 LINE",
"465 217 LINE",
"443 217 LINE",
"443 319 OFFCURVE",
"415 353 OFFCURVE",
"372 353 CURVE",
"372 378 LINE",
"415 378 OFFCURVE",
"438 390 OFFCURVE",
"443 499 CURVE"
);
}
);
width = 630;
}
);
leftMetricsKey = R;
unicode = 0046;
},
{
glyphname = G;
lastChange = "2017-10-19 15:54:31 +0000";
layers = (
{
anchors = (
{
name = bottom;
position = "{292, 0}";
},
{
name = top;
position = "{550, 710}";
}
);
background = {
components = (
{
name = C;
transform = "{1, 0, 0, 1, -2, 0}";
}
);
};
layerId = "9372F035-DA38-4B54-966C-CEBA9B53DD02";
paths = (
{
closed = 1;
nodes = (
"755 689 LINE",
"746 669 OFFCURVE",
"733 646 OFFCURVE",
"718 646 CURVE SMOOTH",
"694 646 OFFCURVE",
"652 720 OFFCURVE",
"533 720 CURVE SMOOTH",
"274 720 OFFCURVE",
"88 446 OFFCURVE",
"88 206 CURVE SMOOTH",
"88 89 OFFCURVE",
"163 -13 OFFCURVE",
"324 -13 CURVE SMOOTH",
"473 -13 OFFCURVE",
"539 82 OFFCURVE",
"582 82 CURVE SMOOTH",
"597 82 OFFCURVE",
"619 58 OFFCURVE",
"632 38 CURVE",
"652 58 LINE",
"643 70 OFFCURVE",
"620 87 OFFCURVE",
"632 120 CURVE SMOOTH",
"666 213 LINE SMOOTH",
"676 240 OFFCURVE",
"698 262 OFFCURVE",
"731 266 CURVE SMOOTH",
"768 270 LINE",
"776 290 LINE",
"645 286 LINE",
"503 290 LINE",
"495 270 LINE",
"540 266 LINE SMOOTH",
"574 263 OFFCURVE",
"593 245 OFFCURVE",
"582 213 CURVE SMOOTH",
"558 144 LINE SMOOTH",
"537 85 OFFCURVE",
"436 17 OFFCURVE",
"342 17 CURVE SMOOTH",
"240 17 OFFCURVE",
"173 87 OFFCURVE",
"173 238 CURVE SMOOTH",
"173 443 OFFCURVE",
"347 690 OFFCURVE",
"541 690 CURVE SMOOTH",
"654 690 OFFCURVE",
"704 608 OFFCURVE",
"680 485 CURVE",
"702 485 LINE",
"740 590 LINE",
"782 689 LINE"
);
}
);
width = 754;
},
{
associatedMasterId = "9372F035-DA38-4B54-966C-CEBA9B53DD02";
background = {
components = (
{
name = C;
transform = "{1, 0, 0, 1, -9, 0}";
}
);
};
layerId = "39EDC908-2ABE-4C94-967C-9E3E59735B5A";
name = "Oct 18 17, 16:58";
paths = (
{
closed = 1;
nodes = (
"474 290 LINE",
"466 270 LINE",
"511 266 LINE SMOOTH",
"545 263 OFFCURVE",
"564 245 OFFCURVE",
"553 213 CURVE SMOOTH",
"529 144 LINE SMOOTH",
"503 68 OFFCURVE",
"407 16 OFFCURVE",
"319 16 CURVE SMOOTH",
"221 16 OFFCURVE",
"162 86 OFFCURVE",
"162 207 CURVE SMOOTH",
"162 445 OFFCURVE",
"354 693 OFFCURVE",
"540 693 CURVE SMOOTH",
"643 693 OFFCURVE",
"692 623 OFFCURVE",
"661 485 CURVE",
"681 485 LINE",
"753 696 LINE",
"732 695 LINE",
"722 674 OFFCURVE",
"713 662 OFFCURVE",
"702 662 CURVE SMOOTH",
"691 662 OFFCURVE",
"684 669 OFFCURVE",
"669 680 CURVE SMOOTH",
"645 698 OFFCURVE",
"605 720 OFFCURVE",
"544 720 CURVE SMOOTH",
"279 720 OFFCURVE",
"78 446 OFFCURVE",
"78 206 CURVE SMOOTH",
"78 89 OFFCURVE",
"155 -13 OFFCURVE",
"309 -13 CURVE SMOOTH",
"419 -13 OFFCURVE",
"471 35 OFFCURVE",
"517 63 CURVE SMOOTH",
"530 71 OFFCURVE",
"537 77 OFFCURVE",
"553 77 CURVE SMOOTH",
"568 77 OFFCURVE",
"590 58 OFFCURVE",
"603 38 CURVE",
"623 58 LINE",
"614 70 OFFCURVE",
"591 87 OFFCURVE",
"603 120 CURVE SMOOTH",
"637 213 LINE SMOOTH",
"647 240 OFFCURVE",
"669 262 OFFCURVE",
"702 266 CURVE SMOOTH",
"739 270 LINE",
"747 290 LINE",
"616 286 LINE"
);
}
);
width = 715;
}
);
leftMetricsKey = O;
unicode = 0047;
},
{
glyphname = H;
lastChange = "2017-10-20 11:58:26 +0000";
layers = (
{
anchors = (
{
name = bottom;
position = "{331, 0}";
},
{
name = center;
position = "{460, 355}";
},
{
name = top;
position = "{589, 710}";
},
{
name = topleft;
position = "{198, 710}";
}
);
backgroundImage = {
crop = "{{1328.244, 1380.534}, {343.511, 377.863}}";
imagePath = "Workshop Baskerville/1878 Limprimerie Berger Levrault Notice historique/Romain/JACOB-notice-187537.jpg";
locked = "1";
transform = "{2.428, -0.046, 3.539, 2.62, -8938, -3827}";
};
components = (
{
name = "_part-serif";
transform = "{1, 0, 0, 1, 36, 0}";
},
{
name = "_part-serif";
transform = "{-1, 0, 0, -1, 440, 710}";
},
{
name = "_part-serif";
transform = "{1, 0, 0, 1, 480, 0}";
},
{
name = "_part-serif";
transform = "{-1, 0, 0, -1, 884, 710}";
},
{
name = "_part-fut-cap";
transform = "{1, 0, 0, 1, -1, 0}";
},
{
name = "_part-fut-cap";
transform = "{1, 0, 0, 1, 443, 0}";
}
);
guideLines = (
{
angle = 70;
position = "{771, 355}";
},
{
angle = 70;
position = "{326, 353}";
},
{
angle = 70;
position = "{249, 355}";
}
);
layerId = "9372F035-DA38-4B54-966C-CEBA9B53DD02";
paths = (
{
closed = 1;
nodes = (
"647 345 LINE",
"264 345 LINE",
"275 376 LINE",
"658 376 LINE"
);
}
);
width = 822;
},
{
associatedMasterId = "9372F035-DA38-4B54-966C-CEBA9B53DD02";
backgroundImage = {
crop = "{{1328.244, 1380.534}, {343.511, 377.863}}";
imagePath = "Workshop Baskerville/1878 Limprimerie Berger Levrault Notice historique/Romain/JACOB-notice-187537.jpg";
locked = "1";
transform = "{2.62, -0.046, 0.046, 2.62, -3550, -3827}";
};
hints = (
{
origin = "{1, 1}";
type = Corner;
name = "_corner-bdc";
},
{
origin = "{1, 2}";
scale = "{1, -1}";
type = Corner;
name = "_corner-bdc";
}
);
layerId = "D4414EA3-B7D5-445B-9354-C98751CD83C0";
name = bdc;
paths = (
{
closed = 1;
nodes = (
"656 354 LINE",
"656 384 LINE",
"244 384 LINE",
"244 354 LINE"
);
},
{
closed = 1;
nodes = (
"729 614 LINE",
"729 0 LINE",
"659 0 LINE",
"659 614 LINE"
);
}
);
width = 900;
},
{
associatedMasterId = "9372F035-DA38-4B54-966C-CEBA9B53DD02";
backgroundImage = {
crop = "{{1328.244, 1380.534}, {343.511, 377.863}}";
imagePath = "Workshop Baskerville/1878 Limprimerie Berger Levrault Notice historique/Romain/JACOB-notice-187537.jpg";
locked = "1";
transform = "{2.62, -0.046, 0.046, 2.62, -3550, -3827}";
};
hints = (
{
origin = "{1, 2}";
scale = "{0.9, -1}";
type = Corner;
name = "_corner-cap";
options = 1;
},
{
origin = "{1, 1}";
scale = "{0.9, 1}";
type = Corner;
name = "_corner-cap";
},
{
origin = "{0, 2}";
scale = "{0.9, -1}";
type = Corner;
name = "_corner-cap";
options = 1;
},
{
origin = "{0, 1}";
scale = "{0.9, 1}";
type = Corner;
name = "_corner-cap";
},
{
origin = "{1, 3}";
scale = "{0.9, 1}";
type = Corner;
name = "_corner-cap";
},
{
origin = "{1, 0}";
scale = "{-0.9, 1}";
type = Corner;
name = "_corner-cap";
options = 1;
},
{
origin = "{0, 3}";
scale = "{0.9, 1}";
type = Corner;
name = "_corner-cap";
},
{
origin = "{0, 0}";
scale = "{-0.9, 1}";
type = Corner;
name = "_corner-cap";
options = 1;
}
);
layerId = "BA4FE908-487B-4283-9277-3D1B1A7BDAC7";
name = "Oct 16 17, 13:57";
paths = (
{
closed = 1;
nodes = (
"732 0 LINE",
"731 710 LINE",
"656 710 LINE",
"657 0 LINE"
);
},
{
closed = 1;
nodes = (
"256 0 LINE",
"255 710 LINE",
"180 710 LINE",
"181 0 LINE"
);
},
{
closed = 1;
nodes = (
"660 354 LINE",
"660 384 LINE",
"248 384 LINE",
"248 354 LINE"
);
}
);
width = 900;
}
);
unicode = 0048;
},
{
glyphname = I;
lastChange = "2017-10-19 15:54:27 +0000";
layers = (
{
anchors = (
{
name = bottom;
position = "{102, 0}";
},
{
name = ogonek;
position = "{248, 10}";
},
{
name = top;
position = "{360, 710}";
},
{
name = topleft;
position = "{198, 710}";
}
);
backgroundImage = {
crop = "{{1036.296, 1301.852}, {222.222, 366.667}}";
imagePath = "Workshop Baskerville/1878 Limprimerie Berger Levrault Notice historique/Romain/IMG_3190.JPG";
locked = "1";
transform = "{2.545, -0.029, 3.657, 2.72, -8299, -3787}";
};
components = (
{
name = "_part-serif";
transform = "{1, 0, 0, 1, 29, 0}";
},
{
name = "_part-serif";
transform = "{-1, 0, 0, -1, 433, 710}";
}
);
layerId = "9372F035-DA38-4B54-966C-CEBA9B53DD02";
paths = (
{
closed = 1;
nodes = (
"140 0 LINE",
"64 0 LINE",
"322 709 LINE",
"398 709 LINE"
);
}
);
width = 364;
}
);
unicode = 0049;
},
{
glyphname = J;
lastChange = "2017-10-19 15:54:27 +0000";
layers = (
{
anchors = (
{
name = bottom;
position = "{154, 0}";
},
{
name = top;
position = "{412, 710}";
}
);
background = {
components = (
{
name = "_part-serif";
transform = "{1, 0, 0, 1, 125, 0}";
}
);
paths = (
{
closed = 1;
nodes = (
"236 0 LINE",
"160 0 LINE",
"418 709 LINE",
"494 709 LINE"
);
}
);
};
backgroundImage = {
crop = "{{217.96, 211.469}, {9.121, 15.05}}";
imagePath = "../../../../1788-89 Epreuves des caracteres de Rolland et Jacob/p19.jpg";
locked = "1";
transform = "{69.67, 0, 97.849, 66.669, -8627, -14382}";
};
components = (
{
name = "_part-serif";
transform = "{-1, 0, 0, -1, 529, 710}";
}
);
layerId = "9372F035-DA38-4B54-966C-CEBA9B53DD02";
paths = (
{
closed = 1;
nodes = (
"453 598 LINE",
"290 147 LINE SMOOTH",
"259 60 OFFCURVE",
"237 -14 OFFCURVE",
"107 -14 CURVE SMOOTH",
"34 -14 OFFCURVE",
"-33 14 OFFCURVE",
"-33 73 CURVE SMOOTH",
"-33 100 OFFCURVE",
"-14 120 OFFCURVE",
"14 120 CURVE SMOOTH",
"49 120 OFFCURVE",
"59 93 OFFCURVE",
"65 63 CURVE SMOOTH",
"72 33 OFFCURVE",
"74 9 OFFCURVE",
"111 9 CURVE SMOOTH",
"166 9 OFFCURVE",
"193 94 OFFCURVE",
"239 217 CURVE SMOOTH",
"385 618 LINE"
);
}
);
width = 467;
}
);
rightMetricsKey = H;
unicode = 004A;
},
{
glyphname = K;
lastChange = "2017-10-20 11:58:48 +0000";
layers = (
{
associatedMasterId = "9372F035-DA38-4B54-966C-CEBA9B53DD02";
background = {
components = (
{
name = I;
transform = "{1, 0, 0, 1, 340, 0}";
}
);
};
components = (
{
name = I;
}
);
layerId = "F4F2585B-BE30-4C0B-8C3F-928C03B9E448";
name = "Oct 18 17, 16:56";
paths = (
{
closed = 1;
nodes = (
"505 44 OFFCURVE",
"535 31 OFFCURVE",
"595 25 CURVE SMOOTH",
"616 23 LINE",
"611 -2 LINE",
"480 1 LINE",
"322 -2 LINE",
"329 23 LINE",
"348 25 LINE SMOOTH",
"427 33 OFFCURVE",
"428 60 OFFCURVE",
"420 94 CURVE SMOOTH",
"351 387 LINE",
"413 429 LINE",
"490 105 LINE SMOOTH"
);
},
{
closed = 1;
nodes = (
"358 376 LINE",
"229 314 LINE",
"220 342 LINE",
"347 401 LINE",
"623 617 LINE SMOOTH",
"649 638 OFFCURVE",
"664 679 OFFCURVE",
"597 686 CURVE SMOOTH",
"578 688 LINE",
"587 713 LINE",
"705 710 LINE",
"818 713 LINE",
"809 688 LINE",
"756 683 OFFCURVE",
"702 648 OFFCURVE",
"649 605 CURVE SMOOTH"
);
}
);
width = 712;
},
{
anchors = (
{
name = bottom;
position = "{285, 0}";
},
{
name = top;
position = "{543, 710}";
}
);
background = {
components = (
{
name = I;
transform = "{1, 0, 0, 1, 377, 0}";
}
);
};
components = (
{
name = "_part-serif";
transform = "{1, 0, 0, 1, 36, 0}";
},
{
name = "_part-serif";
transform = "{-1, 0, 0, -1, 440, 710}";
},
{
name = "_part-fut-cap";
transform = "{1, 0, 0, 1, -1, 0}";
}
);
layerId = "9372F035-DA38-4B54-966C-CEBA9B53DD02";
paths = (
{
closed = 1;
nodes = (
"549 55 OFFCURVE",
"572 31 OFFCURVE",
"622 25 CURVE SMOOTH",
"643 23 LINE",
"638 -2 LINE",
"527 1 LINE",
"369 -2 LINE",
"376 23 LINE",
"395 25 LINE SMOOTH",
"474 33 OFFCURVE",
"470 62 OFFCURVE",
"459 97 CURVE SMOOTH",
"366 397 LINE",
"426 437 LINE",
"526 120 LINE SMOOTH"
);
},
{
closed = 1;
nodes = (
"228 269 LINE",
"241 310 LINE",
"597 561 LINE SMOOTH",
"688 625 OFFCURVE",
"701 679 OFFCURVE",
"634 686 CURVE SMOOTH",
"615 688 LINE",
"624 713 LINE",
"752 709 LINE",
"865 713 LINE",
"856 688 LINE",
"835 686 LINE SMOOTH",
"791 682 OFFCURVE",
"749 639 OFFCURVE",
"642 563 CURVE SMOOTH"
);
}
);
width = 719;
}
);
leftMetricsKey = H;
unicode = 004B;
},
{
glyphname = L;
lastChange = "2017-10-20 11:59:19 +0000";
layers = (
{
anchors = (
{
name = bottom;
position = "{233, 0}";
},
{
name = center;
position = "{362, 355}";
},
{
name = top;
position = "{491, 710}";
},
{
name = topright;
position = "{783, 710}";
}
);
background = {
components = (
{
name = "_part-serif";
transform = "{1, 0, 0, 1, 41, 0}";
}
);
};
components = (
{
name = "_part-demiserif";
transform = "{1, 0, -0.72794, -1, 298, 710}";
},
{
name = "_part-serif";
transform = "{-1, 0, 0, -1, 440, 710}";
},
{
name = "_part-fut-cap";
transform = "{1, 0, 0, 1, -1, 0}";
}
);
layerId = "9372F035-DA38-4B54-966C-CEBA9B53DD02";
paths = (
{
closed = 1;
nodes = (
"215 188 LINE",
"205 161 LINE SMOOTH",
"168 58 OFFCURVE",
"170 23 OFFCURVE",
"283 23 CURVE SMOOTH",
"358 23 LINE SMOOTH",
"474 22 OFFCURVE",
"547 88 OFFCURVE",
"599 210 CURVE",
"622 210 LINE",
"537 -3 LINE",
"72 0 LINE",
"149 211 LINE"
);
}
);
width = 635;
}
);
leftMetricsKey = H;
unicode = 004C;
},
{
glyphname = M;
lastChange = "2017-10-19 15:47:26 +0000";
layers = (
{
anchors = (
{
name = bottom;
position = "{385, 0}";
},
{
name = top;
position = "{643, 710}";
}
);
background = {
paths = (
{
closed = 1;
nodes = (
"336 666 LINE",
"366 7 LINE",
"396 7 LINE",
"922 633 LINE",
"921 673 LINE",
"704 90 LINE",
"746 116 LINE",
"963 710 LINE",
"907 710 LINE",
"389 90 LINE",
"400 79 LINE",
"372 710 LINE",
"304 710 LINE",
"35 0 LINE",
"111 0 LINE",
"365 673 LINE"
);
},
{
closed = 1;
nodes = (
"899 606 LINE",
"948 667 OFFCURVE",
"984 679 OFFCURVE",
"1053 686 CURVE SMOOTH",
"1073 688 LINE",
"1083 713 LINE",
"963 710 LINE"
);
},
{
closed = 1;
nodes = (
"704 90 LINE",
"681 35 OFFCURVE",
"662 31 OFFCURVE",
"591 24 CURVE SMOOTH",
"570 22 LINE",
"560 -3 LINE",
"680 0 LINE",
"801 -3 LINE",
"811 22 LINE",
"792 24 LINE SMOOTH",
"728 31 OFFCURVE",
"713 36 OFFCURVE",
"746 116 CURVE"
);
},
{
closed = 1;
nodes = (
"70 92 LINE",
"46 37 OFFCURVE",
"32 31 OFFCURVE",
"-43 24 CURVE SMOOTH",
"-64 22 LINE",
"-74 -3 LINE",
"67 0 LINE",
"210 -3 LINE",
"220 22 LINE",
"201 24 LINE SMOOTH",
"135 31 OFFCURVE",
"122 37 OFFCURVE",
"164 137 CURVE"
);
},
{
closed = 1;
nodes = (
"345 710 LINE",
"202 713 LINE",
"192 688 LINE",
"212 686 LINE SMOOTH",
"278 679 OFFCURVE",
"294 673 OFFCURVE",
"252 573 CURVE"
);
}
);
};
layerId = "9372F035-DA38-4B54-966C-CEBA9B53DD02";
paths = (
{
closed = 1;
nodes = (
"652 0 LINE",
"728 0 LINE",
"936 710 LINE",
"868 710 LINE",
"421 79 LINE",
"440 90 LINE",
"373 710 LINE",
"317 710 LINE",
"102 116 LINE",
"125 90 LINE",
"332 673 LINE",
"302 633 LINE",
"372 7 LINE",
"402 7 LINE",
"872 666 LINE",
"848 673 LINE"
);
},
{
closed = 1;
nodes = (
"199 713 LINE",
"191 688 LINE",
"210 686 LINE SMOOTH",
"273 679 OFFCURVE",
"301 667 OFFCURVE",
"305 606 CURVE",
"317 710 LINE"
);
},
{
closed = 1;
nodes = (
"76 36 OFFCURVE",
"58 31 OFFCURVE",
"-11 24 CURVE SMOOTH",
"-32 22 LINE",
"-40 -3 LINE",
"83 0 LINE",
"201 -3 LINE",
"209 22 LINE",
"190 24 LINE SMOOTH",
"124 31 OFFCURVE",
"108 35 OFFCURVE",
"125 90 CURVE",
"102 116 LINE"
);
},
{
closed = 1;
nodes = (
"661 37 OFFCURVE",
"652 30 OFFCURVE",
"593 24 CURVE SMOOTH",
"572 22 LINE",
"564 -3 LINE",
"689 0 LINE",
"828 -3 LINE",
"836 22 LINE",
"817 24 LINE SMOOTH",
"747 31 OFFCURVE",
"739 37 OFFCURVE",
"755 92 CURVE",
"692 137 LINE"
);
},
{
closed = 1;
nodes = (
"919 673 OFFCURVE",
"939 679 OFFCURVE",
"1011 686 CURVE SMOOTH",
"1032 688 LINE",
"1040 713 LINE",
"895 710 LINE",
"888 573 LINE"
);
}
);
width = 929;
},
{
associatedMasterId = "9372F035-DA38-4B54-966C-CEBA9B53DD02";
guideLines = (
{
angle = 70;
position = "{838, 551}";
}
);
layerId = "9D70BC6C-1385-441F-946F-BF1DBBFDE1A7";
name = "Oct 18 17, 16:53";
paths = (
{
closed = 1;
nodes = (
"644 0 LINE",
"720 0 LINE",
"941 709 LINE",
"861 710 LINE",
"401 79 LINE",
"420 90 LINE",
"363 710 LINE",
"307 710 LINE",
"92 116 LINE",
"115 90 LINE",
"322 673 LINE",
"292 633 LINE",
"352 7 LINE",
"382 7 LINE",
"865 666 LINE",
"854 673 LINE"
);
},
{
closed = 1;
nodes = (
"189 713 LINE",
"181 688 LINE",
"200 686 LINE SMOOTH",
"263 679 OFFCURVE",
"291 667 OFFCURVE",
"295 606 CURVE",
"307 710 LINE"
);
},
{
closed = 1;
nodes = (
"66 36 OFFCURVE",
"48 31 OFFCURVE",
"-21 24 CURVE SMOOTH",
"-42 22 LINE",
"-50 -3 LINE",
"73 0 LINE",
"191 -3 LINE",
"199 22 LINE",
"180 24 LINE SMOOTH",
"114 31 OFFCURVE",
"98 35 OFFCURVE",
"115 90 CURVE",
"92 116 LINE"
);
},
{
closed = 1;
nodes = (
"656 37 OFFCURVE",
"639 31 OFFCURVE",
"568 24 CURVE SMOOTH",
"547 22 LINE",
"539 -3 LINE",
"684 0 LINE",
"823 -3 LINE",
"831 22 LINE",
"812 24 LINE SMOOTH",
"742 31 OFFCURVE",
"732 37 OFFCURVE",
"748 92 CURVE",
"687 137 LINE"
);
},
{
closed = 1;
nodes = (
"929 673 OFFCURVE",
"945 679 OFFCURVE",
"1017 686 CURVE SMOOTH",
"1038 688 LINE",
"1046 713 LINE",
"901 710 LINE",
"898 573 LINE"
);
}
);
width = 951;
},
{
associatedMasterId = "9372F035-DA38-4B54-966C-CEBA9B53DD02";
guideLines = (
{
angle = 70;
position = "{254, 551}";
}
);
layerId = "C448B674-7580-4253-92A5-0D6842FC79E9";
name = "Oct 19 17, 11:28";
paths = (
{
closed = 1;
nodes = (
"644 0 LINE",
"720 0 LINE",
"978 709 LINE",
"898 710 LINE",
"412 79 LINE",
"432 90 LINE",
"396 710 LINE",
"344 710 LINE",
"98 116 LINE",
"120 90 LINE",
"357 673 LINE",
"325 633 LINE",
"360 7 LINE",
"390 7 LINE",
"900 666 LINE",
"889 673 LINE"
);
},
{
closed = 1;
nodes = (
"226 713 LINE",
"217 688 LINE",
"236 686 LINE SMOOTH",
"299 679 OFFCURVE",
"326 667 OFFCURVE",
"327 606 CURVE",
"344 710 LINE"
);
},
{
closed = 1;
nodes = (
"68 36 OFFCURVE",
"50 31 OFFCURVE",
"-20 24 CURVE SMOOTH",
"-41 22 LINE",
"-50 -3 LINE",
"73 0 LINE",
"191 -3 LINE",
"200 22 LINE",
"181 24 LINE SMOOTH",
"116 31 OFFCURVE",
"100 35 OFFCURVE",
"120 90 CURVE",
"98 116 LINE"
);
},
{
closed = 1;
nodes = (
"658 37 OFFCURVE",
"641 31 OFFCURVE",
"569 24 CURVE SMOOTH",
"548 22 LINE",
"539 -3 LINE",
"684 0 LINE",
"823 -3 LINE",
"832 22 LINE",
"813 24 LINE SMOOTH",
"744 31 OFFCURVE",
"734 37 OFFCURVE",
"753 92 CURVE",
"694 137 LINE"
);
},
{
closed = 1;
nodes = (
"964 673 OFFCURVE",
"981 679 OFFCURVE",
"1053 686 CURVE SMOOTH",
"1074 688 LINE",
"1083 713 LINE",
"938 710 LINE",
"928 573 LINE"
);
}
);
width = 909;
}
);
unicode = 004D;
},
{
glyphname = N;
lastChange = "2017-10-19 15:54:31 +0000";
layers = (
{
anchors = (
{
name = bottom;
position = "{307, 0}";
},
{
name = top;
position = "{565, 710}";
}
);
background = {
paths = (
{
closed = 1;
nodes = (
"86 0 LINE",
"54 0 LINE",
"312 709 LINE",
"344 709 LINE"
);
},
{
closed = 1;
nodes = (
"119 92 LINE",
"100 37 OFFCURVE",
"110 31 OFFCURVE",
"179 24 CURVE SMOOTH",
"198 22 LINE",
"189 -3 LINE",
"94 0 LINE",
"-51 -3 LINE",
"-42 22 LINE",
"-21 24 LINE SMOOTH",
"51 32 OFFCURVE",
"68 37 OFFCURVE",
"104 137 CURVE"
);
},
{
closed = 1;
nodes = (
"279 618 LINE",
"298 673 OFFCURVE",
"288 679 OFFCURVE",
"219 686 CURVE SMOOTH",
"200 688 LINE",
"209 713 LINE",
"304 710 LINE",
"449 713 LINE",
"440 688 LINE",
"419 686 LINE SMOOTH",
"347 678 OFFCURVE",
"330 673 OFFCURVE",
"294 573 CURVE"
);
}
);
};
backgroundImage = {
crop = "{{1823, 1956.053}, {43.684, 52.105}}";
imagePath = "Workshop Baskerville/1878 Limprimerie Berger Levrault Notice historique/Images/B543956101_050370_0013.jpg";
locked = "1";
transform = "{18.05, 0, 25.351, 19, -474, 0}";
};
layerId = "9372F035-DA38-4B54-966C-CEBA9B53DD02";
paths = (
{
closed = 1;
nodes = (
"103 0 LINE",
"71 0 LINE",
"329 710 LINE",
"361 710 LINE"
);
},
{
closed = 1;
nodes = (
"136 92 LINE",
"117 37 OFFCURVE",
"127 31 OFFCURVE",
"196 24 CURVE SMOOTH",
"215 22 LINE",
"206 -3 LINE",
"89 0 LINE",
"-34 -3 LINE",
"-25 22 LINE",
"-4 24 LINE SMOOTH",
"68 31 OFFCURVE",
"85 37 OFFCURVE",
"121 137 CURVE"
);
},
{
closed = 1;
nodes = (
"319 604 LINE",
"299 655 OFFCURVE",
"276 682 OFFCURVE",
"236 686 CURVE SMOOTH",
"217 688 LINE",
"226 713 LINE",
"343 710 LINE"
);
},
{
closed = 1;
nodes = (
"361 710 LINE",
"608 82 LINE",
"554 0 LINE",
"308 631 LINE"
);
},
{
closed = 1;
nodes = (
"583 0 LINE",
"553 0 LINE",
"809 710 LINE",
"841 710 LINE"
);
},
{
closed = 1;
nodes = (
"776 618 LINE",
"795 673 OFFCURVE",
"785 679 OFFCURVE",
"716 686 CURVE SMOOTH",
"697 688 LINE",
"706 713 LINE",
"823 710 LINE",
"946 713 LINE",
"937 688 LINE",
"916 686 LINE SMOOTH",
"844 679 OFFCURVE",
"827 673 OFFCURVE",
"791 573 CURVE"
);
}
);
width = 784;
}
);
leftMetricsKey = H;
unicode = 004E;
},
{
glyphname = O;
lastChange = "2017-10-19 15:54:27 +0000";
layers = (
{
anchors = (
{
name = bottom;
position = "{306, 0}";
},
{
name = center;
position = "{435, 355}";
},
{
name = ogonek;
position = "{614, 10}";
},
{
name = top;
position = "{564, 710}";
},
{
name = topleft;
position = "{198, 710}";
},
{
name = topright;
position = "{929, 710}";
}
);
background = {
paths = (
{
closed = 1;
nodes = (
"546 692 CURVE SMOOTH",
"370 692 OFFCURVE",
"177 462 OFFCURVE",
"177 233 CURVE SMOOTH",
"177 94 OFFCURVE",
"242 12 OFFCURVE",
"355 12 CURVE SMOOTH",
"538 12 OFFCURVE",
"711 243 OFFCURVE",
"711 472 CURVE SMOOTH",
"711 611 OFFCURVE",
"647 692 OFFCURVE"
);
},
{
closed = 1;
nodes = (
"676 720 OFFCURVE",
"791 654 OFFCURVE",
"791 487 CURVE SMOOTH",
"791 233 OFFCURVE",
"607 -14 OFFCURVE",
"351 -14 CURVE SMOOTH",
"207 -14 OFFCURVE",
"97 52 OFFCURVE",
"97 221 CURVE SMOOTH",
"97 472 OFFCURVE",
"309 720 OFFCURVE",
"549 720 CURVE SMOOTH"
);
}
);
};
layerId = "9372F035-DA38-4B54-966C-CEBA9B53DD02";
paths = (
{
closed = 1;
nodes = (
"354 16 CURVE SMOOTH",
"536 16 OFFCURVE",
"708 245 OFFCURVE",
"708 472 CURVE SMOOTH",
"708 610 OFFCURVE",
"644 691 OFFCURVE",
"533 691 CURVE SMOOTH",
"352 691 OFFCURVE",
"180 462 OFFCURVE",
"180 234 CURVE SMOOTH",
"180 96 OFFCURVE",
"243 16 OFFCURVE"
);
},
{
closed = 1;
nodes = (
"212 -14 OFFCURVE",
"97 66 OFFCURVE",
"97 234 CURVE SMOOTH",
"97 473 OFFCURVE",
"281 720 OFFCURVE",
"537 720 CURVE SMOOTH",
"681 720 OFFCURVE",
"791 639 OFFCURVE",
"791 464 CURVE SMOOTH",
"791 234 OFFCURVE",
"599 -14 OFFCURVE",
"351 -14 CURVE SMOOTH"
);
}
);
width = 771;
},
{
associatedMasterId = "9372F035-DA38-4B54-966C-CEBA9B53DD02";
layerId = "CCD638FD-B68D-4905-B62C-484D58015A84";
name = "Oct 18 17, 16:58";
paths = (
{
closed = 1;
nodes = (
"99 84 OFFCURVE",
"99 248 CURVE SMOOTH",
"99 488 OFFCURVE",
"301 721 OFFCURVE",
"549 721 CURVE SMOOTH",
"714 721 OFFCURVE",
"802 622 OFFCURVE",
"802 458 CURVE SMOOTH",
"802 219 OFFCURVE",
"601 -11 OFFCURVE",
"352 -11 CURVE SMOOTH",
"189 -11 OFFCURVE"
);
},
{
closed = 1;
nodes = (
"243 16 OFFCURVE",
"359 16 CURVE SMOOTH",
"554 16 OFFCURVE",
"724 271 OFFCURVE",
"724 493 CURVE SMOOTH",
"724 616 OFFCURVE",
"659 694 OFFCURVE",
"543 694 CURVE SMOOTH",
"347 694 OFFCURVE",
"177 435 OFFCURVE",
"177 214 CURVE SMOOTH",
"177 91 OFFCURVE"
);
}
);
width = 787;
}
);
unicode = 004F;
},
{
glyphname = P;
lastChange = "2017-10-20 11:59:53 +0000";
layers = (
{
anchors = (
{
name = bottom;
position = "{252, 0}";
},
{
name = top;
position = "{510, 710}";
}
);
backgroundImage = {
crop = "{{1321.132, 1329.434}, {266.038, 373.585}}";
imagePath = "Workshop Baskerville/1878 Limprimerie Berger Levrault Notice historique/Romain/JACOB-notice-187519.jpg";
locked = "1";
transform = "{2.517, 0, 3.536, 2.65, -8845, -3803}";
};
components = (
{
name = "_part-fut-cap";
transform = "{1, 0, 0, 1, -1, 0}";
},
{
name = "_part-demiserif";
transform = "{1, 0, 0, 1, 40, 0}";
}
);
layerId = "9372F035-DA38-4B54-966C-CEBA9B53DD02";
paths = (
{
closed = 1;
nodes = (
"253 357 LINE",
"296 341 OFFCURVE",
"345 339 OFFCURVE",
"392 339 CURVE SMOOTH",
"531 339 OFFCURVE",
"630 426 OFFCURVE",
"630 549 CURVE SMOOTH",
"630 636 OFFCURVE",
"581 685 OFFCURVE",
"445 685 CURVE SMOOTH",
"368 685 LINE",
"380 710 LINE",
"486 711 LINE SMOOTH",
"620 712 OFFCURVE",
"710 653 OFFCURVE",
"710 548 CURVE SMOOTH",
"710 393 OFFCURVE",
"551 310 OFFCURVE",
"407 310 CURVE SMOOTH",
"343 310 OFFCURVE",
"294 315 OFFCURVE",
"242 336 CURVE"
);
},
{
closed = 1;
nodes = (
"180 92 LINE",
"160 37 OFFCURVE",
"176 34 OFFCURVE",
"270 24 CURVE SMOOTH",
"289 22 LINE",
"280 -3 LINE",
"111 0 LINE",
"-34 -3 LINE",
"-25 22 LINE",
"-4 24 LINE SMOOTH",
"68 32 OFFCURVE",
"85 37 OFFCURVE",
"121 137 CURVE"
);
}
);
width = 674;
},
{
associatedMasterId = "9372F035-DA38-4B54-966C-CEBA9B53DD02";
backgroundImage = {
crop = "{{1321.132, 1329.434}, {266.038, 373.585}}";
imagePath = "Workshop Baskerville/1878 Limprimerie Berger Levrault Notice historique/Romain/JACOB-notice-187519.jpg";
locked = "1";
transform = "{2.65, 0, 0, 2.65, -3501, -3803}";
};
hints = (
{
origin = "{0, 4}";
scale = "{1.2, 1.1}";
type = Corner;
name = "_corner-bdc";
},
{
origin = "{0, 0}";
scale = "{-1.2, 1.1}";
type = Corner;
name = "_corner-bdc";
options = 1;
},
{
origin = "{0, 1}";
scale = "{1.2, 1.1}";
type = Corner;
name = "_corner-bdc";
},
{
origin = "{2, 0}";
scale = "{-1.2, 1.1}";
type = Corner;
name = "_corner-bdc";
options = 1;
},
{
origin = "{2, 1}";
scale = "{1.2, 1.1}";
type = Corner;
name = "_corner-bdc";
},
{
origin = "{2, 4}";
scale = "{1.2, 1.1}";
type = Corner;
name = "_corner-bdc";
}
);
layerId = "05C69439-2CAC-448C-857A-AB981370A93B";
name = "Oct 16 17, 14:56";
paths = (
{
closed = 1;
nodes = (
"184 0 LINE",
"185 710 LINE",
"260 710 LINE",
"259 172 LINE",
"259 0 LINE"
);
},
{
closed = 1;
nodes = (
"207 341 LINE",
"376 341 LINE SMOOTH",
"478 341 OFFCURVE",
"558 401 OFFCURVE",
"558 517 CURVE SMOOTH",
"558 639 OFFCURVE",
"452 690 OFFCURVE",
"358 685 CURVE SMOOTH",
"238 685 LINE",
"238 711 LINE",
"360 710 LINE SMOOTH",
"528 710 OFFCURVE",
"638 664 OFFCURVE",
"638 514 CURVE SMOOTH",
"638 337 OFFCURVE",
"477 315 OFFCURVE",
"388 315 CURVE",
"207 315 LINE"
);
},
{
closed = 1;
nodes = (
"184 0 LINE",
"185 710 LINE",
"260 710 LINE",
"259 172 LINE",
"259 0 LINE"
);
},
{
closed = 1;
nodes = (
"207 341 LINE",
"376 341 LINE SMOOTH",
"478 341 OFFCURVE",
"558 401 OFFCURVE",
"558 517 CURVE SMOOTH",
"558 639 OFFCURVE",
"452 690 OFFCURVE",
"358 685 CURVE SMOOTH",
"238 685 LINE",
"238 711 LINE",
"360 710 LINE SMOOTH",
"528 710 OFFCURVE",
"638 664 OFFCURVE",
"638 514 CURVE SMOOTH",
"638 337 OFFCURVE",
"477 315 OFFCURVE",
"388 315 CURVE",
"207 315 LINE"
);
}
);
width = 655;
},
{
associatedMasterId = "9372F035-DA38-4B54-966C-CEBA9B53DD02";
backgroundImage = {
crop = "{{1321.132, 1329.434}, {266.038, 373.585}}";
imagePath = "Workshop Baskerville/1878 Limprimerie Berger Levrault Notice historique/Romain/JACOB-notice-187519.jpg";
locked = "1";
transform = "{2.517, 0, 3.536, 2.65, -8877, -3803}";
};
layerId = "A86FD7BA-A34E-46A5-879E-84D8CD074FBD";
name = "Oct 18 17, 16:17";
paths = (
{
closed = 1;
nodes = (
"211 357 LINE",
"254 341 OFFCURVE",
"303 339 OFFCURVE",
"350 339 CURVE SMOOTH",
"489 339 OFFCURVE",
"588 426 OFFCURVE",
"588 561 CURVE SMOOTH",
"588 642 OFFCURVE",
"539 677 OFFCURVE",
"453 680 CURVE SMOOTH",
"326 685 LINE",
"338 710 LINE",
"444 711 LINE SMOOTH",
"578 712 OFFCURVE",
"668 653 OFFCURVE",
"668 548 CURVE SMOOTH",
"668 384 OFFCURVE",
"509 315 OFFCURVE",
"365 315 CURVE SMOOTH",
"301 315 OFFCURVE",
"252 320 OFFCURVE",
"200 341 CURVE"
);
},
{
closed = 1;
nodes = (
"105 0 LINE",
"29 0 LINE",
"287 710 LINE",
"363 710 LINE"
);
},
{
closed = 1;
nodes = (
"254 618 LINE",
"273 673 OFFCURVE",
"263 679 OFFCURVE",
"194 686 CURVE",
"175 688 LINE",
"184 713 LINE",
"326 710 LINE",
"284 596 LINE"
);
},
{
closed = 1;
nodes = (
"138 92 LINE",
"118 37 OFFCURVE",
"134 34 OFFCURVE",
"228 24 CURVE SMOOTH",
"247 22 LINE",
"238 -3 LINE",
"69 0 LINE",
"-76 -3 LINE",
"-67 22 LINE",
"-46 24 LINE SMOOTH",
"26 32 OFFCURVE",
"43 37 OFFCURVE",
"79 137 CURVE"
);
}
);
width = 582;
}
);
leftMetricsKey = H;
unicode = 0050;
},
{
glyphname = Q;
lastChange = "2017-10-19 15:47:26 +0000";
layers = (
{
anchors = (
{
name = bottom;
position = "{315, 0}";
},
{
name = top;
position = "{573, 710}";
}
);
components = (
{
name = O;
transform = "{1, 0, 0, 1, 20, 0}";
}
);
layerId = "9372F035-DA38-4B54-966C-CEBA9B53DD02";
paths = (
{
closed = 1;
nodes = (
"366 -1 LINE",
"133 -82 LINE",
"151 -79 OFFCURVE",
"161 -78 OFFCURVE",
"189 -78 CURVE SMOOTH",
"396 -78 OFFCURVE",
"416 -241 OFFCURVE",
"529 -241 CURVE SMOOTH",
"581 -241 OFFCURVE",
"616 -202 OFFCURVE",
"620 -156 CURVE",
"642 -156 LINE",
"633 -252 OFFCURVE",
"574 -290 OFFCURVE",
"502 -290 CURVE SMOOTH",
"273 -290 OFFCURVE",
"287 -102 OFFCURVE",
"108 -102 CURVE SMOOTH",
"70 -102 OFFCURVE",
"38 -117 OFFCURVE",
"21 -139 CURVE SMOOTH",
"-1 -167 OFFCURVE",
"-20 -180 OFFCURVE",
"-49 -180 CURVE SMOOTH",
"-70 -180 OFFCURVE",
"-82 -167 OFFCURVE",
"-76 -148 CURVE SMOOTH",
"-62 -105 OFFCURVE",
"-15 -86 OFFCURVE",
"72 -86 CURVE",
"291 -3 LINE"
);
}
);
width = 790;
}
);
unicode = 0051;
},
{
glyphname = R;
lastChange = "2017-10-20 12:00:02 +0000";
layers = (
{
anchors = (
{
name = bottom;
position = "{265, 0}";
},
{
name = top;
position = "{523, 710}";
}
);
backgroundImage = {
crop = "{{1436.296, 1029.63}, {296.296, 366.667}}";
imagePath = "Workshop Baskerville/1878 Limprimerie Berger Levrault Notice historique/Romain/JACOB-notice-187518.jpg";
locked = "1";
transform = "{2.565, 0, 3.603, 2.7, -8231, -3060}";
};
components = (
{
name = "_part-fut-cap";
transform = "{1, 0, 0, 1, -1, 0}";
},
{
name = "_part-demiserif";
transform = "{1, 0, 0, 1, 40, 0}";
}
);
layerId = "9372F035-DA38-4B54-966C-CEBA9B53DD02";
paths = (
{
closed = 1;
nodes = (
"466 354 OFFCURVE",
"535 296 OFFCURVE",
"549 175 CURVE SMOOTH",
"561 72 OFFCURVE",
"577 19 OFFCURVE",
"630 22 CURVE SMOOTH",
"664 24 LINE",
"668 0 LINE",
"653 -5 OFFCURVE",
"633 -13 OFFCURVE",
"584 -13 CURVE SMOOTH",
"496 -13 OFFCURVE",
"486 60 OFFCURVE",
"477 134 CURVE SMOOTH",
"459 275 OFFCURVE",
"413 340 OFFCURVE",
"331 340 CURVE",
"323 357 LINE",
"339 355 LINE"
);
},
{
closed = 1;
nodes = (
"178 92 LINE",
"159 37 OFFCURVE",
"169 31 OFFCURVE",
"238 24 CURVE SMOOTH",
"257 22 LINE",
"248 -3 LINE",
"111 0 LINE",
"-34 -3 LINE",
"-25 22 LINE",
"-4 24 LINE SMOOTH",
"68 32 OFFCURVE",
"85 37 OFFCURVE",
"121 137 CURVE"
);
},
{
closed = 1;
nodes = (
"253 363 LINE",
"403 362 LINE SMOOTH",
"546 361 OFFCURVE",
"629 436 OFFCURVE",
"629 553 CURVE SMOOTH",
"629 626 OFFCURVE",
"588 683 OFFCURVE",
"471 683 CURVE SMOOTH",
"391 683 LINE",
"380 710 LINE",
"481 712 LINE SMOOTH",
"642 714 OFFCURVE",
"710 638 OFFCURVE",
"710 548 CURVE SMOOTH",
"710 403 OFFCURVE",
"584 340 OFFCURVE",
"413 340 CURVE SMOOTH",
"242 340 LINE"
);
}
);
width = 700;
},
{
associatedMasterId = "9372F035-DA38-4B54-966C-CEBA9B53DD02";
background = {
components = (
{
name = I;
transform = "{1, 0, 0, 1, -16, 0}";
}
);
};
backgroundImage = {
crop = "{{1436.296, 1029.63}, {296.296, 366.667}}";
imagePath = "Workshop Baskerville/1878 Limprimerie Berger Levrault Notice historique/Romain/JACOB-notice-187518.jpg";
locked = "1";
transform = "{2.565, 0, 3.603, 2.7, -8263, -3060}";
};
layerId = "B055DBA9-CC6F-40D9-9D13-3D11BC66551F";
name = "Oct 18 17, 15:01";
paths = (
{
closed = 1;
nodes = (
"415 340 OFFCURVE",
"471 299 OFFCURVE",
"484 227 CURVE SMOOTH",
"500 136 OFFCURVE",
"517 19 OFFCURVE",
"569 19 CURVE SMOOTH",
"584 19 OFFCURVE",
"604 19 OFFCURVE",
"626 24 CURVE",
"626 0 LINE",
"611 -5 OFFCURVE",
"591 -13 OFFCURVE",
"542 -13 CURVE SMOOTH",
"321 -13 OFFCURVE",
"502 334 OFFCURVE",
"277 345 CURVE",
"291 356 LINE",
"342 354 LINE"
);
},
{
closed = 1;
nodes = (
"103 0 LINE",
"29 0 LINE",
"287 710 LINE",
"361 710 LINE"
);
},
{
closed = 1;
nodes = (
"136 92 LINE",
"117 37 OFFCURVE",
"127 31 OFFCURVE",
"196 24 CURVE SMOOTH",
"215 22 LINE",
"206 -3 LINE",
"69 0 LINE",
"-76 -3 LINE",
"-67 22 LINE",
"-46 24 LINE SMOOTH",
"26 32 OFFCURVE",
"43 37 OFFCURVE",
"79 137 CURVE"
);
},
{
closed = 1;
nodes = (
"254 618 LINE",
"273 673 OFFCURVE",
"263 679 OFFCURVE",
"194 686 CURVE",
"175 688 LINE",
"184 713 LINE",
"326 710 LINE",
"284 596 LINE"
);
},
{
closed = 1;
nodes = (
"211 369 LINE",
"350 359 LINE SMOOTH",
"489 359 OFFCURVE",
"588 436 OFFCURVE",
"588 571 CURVE SMOOTH",
"588 647 OFFCURVE",
"532 681 OFFCURVE",
"450 683 CURVE SMOOTH",
"349 685 LINE",
"338 710 LINE",
"444 711 LINE SMOOTH",
"578 712 OFFCURVE",
"668 653 OFFCURVE",
"668 548 CURVE SMOOTH",
"668 384 OFFCURVE",
"508 329 OFFCURVE",
"365 339 CURVE SMOOTH",
"200 350 LINE"
);
}
);
width = 631;
},
{
associatedMasterId = "9372F035-DA38-4B54-966C-CEBA9B53DD02";
backgroundImage = {
crop = "{{1436.296, 1029.63}, {296.296, 366.667}}";
imagePath = "Workshop Baskerville/1878 Limprimerie Berger Levrault Notice historique/Romain/JACOB-notice-187518.jpg";
locked = "1";
transform = "{2.565, 0, 3.603, 2.7, -8221, -3060}";
};
layerId = "B6DB60B7-4980-46E2-A7AE-9E1928B2AEE1";
name = "Oct 18 17, 16:15";
paths = (
{
closed = 1;
nodes = (
"466 354 OFFCURVE",
"527 296 OFFCURVE",
"549 175 CURVE SMOOTH",
"568 71 OFFCURVE",
"587 19 OFFCURVE",
"640 22 CURVE SMOOTH",
"674 24 LINE",
"678 0 LINE",
"663 -5 OFFCURVE",
"643 -13 OFFCURVE",
"594 -13 CURVE SMOOTH",
"506 -13 OFFCURVE",
"492 59 OFFCURVE",
"477 134 CURVE SMOOTH",
"449 275 OFFCURVE",
"430 340 OFFCURVE",
"314 340 CURVE",
"323 357 LINE",
"339 355 LINE"
);
},
{
closed = 1;
nodes = (
"145 0 LINE",
"71 0 LINE",
"329 710 LINE",
"403 710 LINE"
);
},
{
closed = 1;
nodes = (
"178 92 LINE",
"159 37 OFFCURVE",
"169 31 OFFCURVE",
"238 24 CURVE SMOOTH",
"257 22 LINE",
"248 -3 LINE",
"111 0 LINE",
"-34 -3 LINE",
"-25 22 LINE",
"-4 24 LINE SMOOTH",
"68 32 OFFCURVE",
"85 37 OFFCURVE",
"121 137 CURVE"
);
},
{
closed = 1;
nodes = (
"296 618 LINE",
"315 673 OFFCURVE",
"305 679 OFFCURVE",
"236 686 CURVE",
"217 688 LINE",
"226 713 LINE",
"368 710 LINE",
"326 596 LINE"
);
},
{
closed = 1;
nodes = (
"253 359 LINE",
"403 358 LINE SMOOTH",
"546 357 OFFCURVE",
"630 448 OFFCURVE",
"630 565 CURVE SMOOTH",
"630 647 OFFCURVE",
"588 683 OFFCURVE",
"499 683 CURVE SMOOTH",
"391 683 LINE",
"380 710 LINE",
"494 712 LINE SMOOTH",
"648 714 OFFCURVE",
"710 653 OFFCURVE",
"710 567 CURVE SMOOTH",
"710 415 OFFCURVE",
"570 340 OFFCURVE",
"435 340 CURVE SMOOTH",
"242 340 LINE"
);
}
);
width = 670;
},
{
associatedMasterId = "9372F035-DA38-4B54-966C-CEBA9B53DD02";
backgroundImage = {
crop = "{{1436.296, 1029.63}, {296.296, 366.667}}";
imagePath = "Workshop Baskerville/1878 Limprimerie Berger Levrault Notice historique/Romain/JACOB-notice-187518.jpg";
locked = "1";
transform = "{2.565, 0, 3.603, 2.7, -8221, -3060}";
};
layerId = "27379AE5-85C5-445E-9C54-7BEB182293A7";
name = "Oct 19 17, 11:56";
paths = (
{
closed = 1;
nodes = (
"465 340 OFFCURVE",
"521 299 OFFCURVE",
"534 227 CURVE SMOOTH",
"550 136 OFFCURVE",
"567 19 OFFCURVE",
"619 19 CURVE SMOOTH",
"634 19 OFFCURVE",
"654 19 OFFCURVE",
"676 24 CURVE",
"676 0 LINE",
"661 -5 OFFCURVE",
"641 -13 OFFCURVE",
"592 -13 CURVE SMOOTH",
"371 -13 OFFCURVE",
"549 347 OFFCURVE",
"327 347 CURVE",
"341 356 LINE",
"392 354 LINE"
);
},
{
closed = 1;
nodes = (
"153 0 LINE",
"79 0 LINE",
"337 710 LINE",
"411 710 LINE"
);
},
{
closed = 1;
nodes = (
"186 92 LINE",
"167 37 OFFCURVE",
"177 31 OFFCURVE",
"246 24 CURVE SMOOTH",
"265 22 LINE",
"256 -3 LINE",
"119 0 LINE",
"-26 -3 LINE",
"-17 22 LINE",
"4 24 LINE SMOOTH",
"76 31 OFFCURVE",
"93 37 OFFCURVE",
"129 137 CURVE"
);
},
{
closed = 1;
nodes = (
"304 618 LINE",
"323 673 OFFCURVE",
"313 679 OFFCURVE",
"244 686 CURVE",
"225 688 LINE",
"234 713 LINE",
"376 710 LINE",
"334 596 LINE"
);
},
{
closed = 1;
nodes = (
"261 369 LINE",
"400 359 LINE SMOOTH",
"539 349 OFFCURVE",
"638 436 OFFCURVE",
"638 571 CURVE SMOOTH",
"638 647 OFFCURVE",
"582 681 OFFCURVE",
"500 683 CURVE SMOOTH",
"399 685 LINE",
"388 710 LINE",
"494 711 LINE SMOOTH",
"628 712 OFFCURVE",
"718 653 OFFCURVE",
"718 548 CURVE SMOOTH",
"718 384 OFFCURVE",
"558 329 OFFCURVE",
"415 339 CURVE SMOOTH",
"250 350 LINE"
);
}
);
width = 690;
}
);
leftMetricsKey = H;
unicode = 0052;
},
{
glyphname = S;
lastChange = "2017-10-19 15:47:26 +0000";
layers = (
{
associatedMasterId = "9372F035-DA38-4B54-966C-CEBA9B53DD02";
background = {
components = (
{
name = E;
transform = "{1, 0, 0, 1, -136, -25}";
}
);
};
layerId = "23558D2F-147D-45BE-AEAE-86F3D04C1B72";
name = "Oct 18 17, 17:13";
paths = (
{
closed = 1;
nodes = (
"318 440 OFFCURVE",
"265 480 OFFCURVE",
"265 565 CURVE SMOOTH",
"265 643 OFFCURVE",
"326 694 OFFCURVE",
"401 694 CURVE SMOOTH",
"479 694 OFFCURVE",
"527 627 OFFCURVE",
"527 530 CURVE SMOOTH",
"527 500 LINE",
"551 500 LINE",
"558 700 LINE",
"542 700 LINE",
"542 678 OFFCURVE",
"536 668 OFFCURVE",
"528 668 CURVE SMOOTH",
"515 668 OFFCURVE",
"508 675 OFFCURVE",
"498 682 CURVE SMOOTH",
"482 693 OFFCURVE",
"457 720 OFFCURVE",
"395 720 CURVE SMOOTH",
"262 720 OFFCURVE",
"180 640 OFFCURVE",
"180 534 CURVE SMOOTH",
"180 458 OFFCURVE",
"238 404 OFFCURVE",
"289 358 CURVE SMOOTH",
"370 284 OFFCURVE",
"413 244 OFFCURVE",
"413 163 CURVE SMOOTH",
"413 78 OFFCURVE",
"343 14 OFFCURVE",
"250 14 CURVE SMOOTH",
"165 14 OFFCURVE",
"92 80 OFFCURVE",
"92 167 CURVE SMOOTH",
"92 192 OFFCURVE",
"96 220 OFFCURVE",
"103 248 CURVE",
"83 248 LINE",
"1 19 LINE",
"22 18 LINE",
"35 40 OFFCURVE",
"51 58 OFFCURVE",
"68 58 CURVE SMOOTH",
"101 58 OFFCURVE",
"134 -14 OFFCURVE",
"261 -14 CURVE SMOOTH",
"404 -14 OFFCURVE",
"496 81 OFFCURVE",
"496 195 CURVE SMOOTH",
"496 272 OFFCURVE",
"450 317 OFFCURVE",
"372 390 CURVE SMOOTH"
);
}
);
width = 560;
},
{
anchors = (
{
name = bottom;
position = "{210, 0}";
},
{
name = top;
position = "{468, 710}";
}
);
layerId = "9372F035-DA38-4B54-966C-CEBA9B53DD02";
paths = (
{
closed = 1;
nodes = (
"328 440 OFFCURVE",
"275 480 OFFCURVE",
"275 565 CURVE SMOOTH",
"275 643 OFFCURVE",
"336 694 OFFCURVE",
"411 694 CURVE SMOOTH",
"500 694 OFFCURVE",
"551 627 OFFCURVE",
"532 530 CURVE SMOOTH",
"525 500 LINE",
"546 500 LINE",
"617 700 LINE",
"597 700 LINE",
"583 676 OFFCURVE",
"576 668 OFFCURVE",
"564 668 CURVE SMOOTH",
"551 668 OFFCURVE",
"543 675 OFFCURVE",
"533 682 CURVE SMOOTH",
"517 693 OFFCURVE",
"477 720 OFFCURVE",
"405 720 CURVE SMOOTH",
"272 720 OFFCURVE",
"190 640 OFFCURVE",
"190 534 CURVE SMOOTH",
"190 458 OFFCURVE",
"248 404 OFFCURVE",
"299 358 CURVE SMOOTH",
"380 284 OFFCURVE",
"423 244 OFFCURVE",
"423 163 CURVE SMOOTH",
"423 78 OFFCURVE",
"353 14 OFFCURVE",
"260 14 CURVE SMOOTH",
"175 14 OFFCURVE",
"102 80 OFFCURVE",
"102 167 CURVE SMOOTH",
"102 192 OFFCURVE",
"106 220 OFFCURVE",
"113 248 CURVE",
"93 248 LINE",
"11 19 LINE",
"32 18 LINE",
"45 40 OFFCURVE",
"61 58 OFFCURVE",
"78 58 CURVE SMOOTH",
"111 58 OFFCURVE",
"144 -14 OFFCURVE",
"271 -14 CURVE SMOOTH",
"414 -14 OFFCURVE",
"506 81 OFFCURVE",
"506 195 CURVE SMOOTH",
"506 272 OFFCURVE",
"460 317 OFFCURVE",
"382 390 CURVE SMOOTH"
);
}
);
width = 580;
}
);
unicode = 0053;
},
{
glyphname = T;
lastChange = "2017-10-20 12:01:36 +0000";
layers = (
{
anchors = (
{
name = bottom;
position = "{260, 0}";
},
{
name = center;
position = "{389, 355}";
},
{
name = top;
position = "{518, 710}";
}
);
components = (
{
name = "_part-fut-cap";
transform = "{1, 0, 0, 1, 142, 0}";
}
);
layerId = "9372F035-DA38-4B54-966C-CEBA9B53DD02";
paths = (
{
closed = 1;
nodes = (
"331 113 LINE",
"309 50 OFFCURVE",
"348 28 OFFCURVE",
"413 23 CURVE SMOOTH",
"449 20 LINE",
"441 -3 LINE",
"259 0 LINE",
"248 0 LINE",
"84 -3 LINE",
"93 20 LINE",
"109 22 LINE SMOOTH",
"180 31 OFFCURVE",
"228 39 OFFCURVE",
"254 110 CURVE"
);
},
{
closed = 1;
nodes = (
"335 685 LINE SMOOTH",
"222 683 OFFCURVE",
"195 644 OFFCURVE",
"124 522 CURVE",
"98 523 LINE",
"176 713 LINE",
"503 710 LINE",
"809 713 LINE",
"805 632 LINE",
"804 510 LINE",
"779 510 LINE",
"779 606 OFFCURVE",
"744 683 OFFCURVE",
"666 685 CURVE SMOOTH",
"540 688 LINE",
"463 687 LINE"
);
}
);
width = 720;
}
);
unicode = 0054;
},
{
glyphname = U;
lastChange = "2017-10-19 15:47:26 +0000";
layers = (
{
anchors = (
{
name = bottom;
position = "{295, 0}";
},
{
name = ogonek;
position = "{586, 10}";
},
{
name = top;
position = "{553, 710}";
},
{
name = topright;
position = "{897, 710}";
}
);
backgroundImage = {
crop = "{{1243.093, 2255.185}, {79.054, 101.64}}";
imagePath = "1790 La Constitution Francaise de Jacob/JACOB-constitution-179001.jpg";
locked = "1";
transform = "{9.479, 0.17, 12.833, 9.739, -11561, 0}";
};
components = (
{
name = "_part-serif";
transform = "{-1, 0, 0, -1, 423, 710}";
},
{
name = "_part-serif2";
transform = "{-1, 0, 0, -1, 878, 712}";
}
);
layerId = "9372F035-DA38-4B54-966C-CEBA9B53DD02";
paths = (
{
closed = 1;
nodes = (
"786 645 LINE",
"666 308 LINE SMOOTH",
"589 91 OFFCURVE",
"521 -14 OFFCURVE",
"349 -14 CURVE SMOOTH",
"129 -14 OFFCURVE",
"97 103 OFFCURVE",
"157 275 CURVE SMOOTH",
"289 645 LINE",
"364 645 LINE",
"233 275 LINE SMOOTH",
"180 121 OFFCURVE",
"215 18 OFFCURVE",
"361 18 CURVE SMOOTH",
"473 18 OFFCURVE",
"554 81 OFFCURVE",
"622 274 CURVE SMOOTH",
"754 645 LINE"
);
}
);
width = 749;
}
);
unicode = 0055;
},
{
glyphname = V;
lastChange = "2017-10-20 08:18:42 +0000";
layers = (
{
anchors = (
{
name = bottom;
position = "{297, 0}";
},
{
name = top;
position = "{555, 710}";
}
);
backgroundImage = {
crop = "{{1421.943, 833.867}, {330.508, 376.095}}";
imagePath = "1878 Limprimerie Berger Levrault Notice historique/Romain/JACOB-notice-187505.jpg";
locked = "1";
transform = "{2.5, 0, 3.512, 2.632, -7362, -2475}";
};
layerId = "9372F035-DA38-4B54-966C-CEBA9B53DD02";
paths = (
{
closed = 1;
nodes = (
"644 713 LINE",
"635 688 LINE",
"654 686 LINE SMOOTH",
"721 679 OFFCURVE",
"740 659 OFFCURVE",
"708 613 CURVE SMOOTH",
"336 70 LINE",
"356 74 LINE",
"317 594 LINE SMOOTH",
"312 666 OFFCURVE",
"353 678 OFFCURVE",
"413 686 CURVE SMOOTH",
"434 688 LINE",
"443 713 LINE",
"298 710 LINE",
"156 713 LINE",
"147 688 LINE",
"166 686 LINE SMOOTH",
"241 678 OFFCURVE",
"235 651 OFFCURVE",
"239 593 CURVE SMOOTH",
"284 -16 LINE",
"314 -16 LINE",
"734 598 LINE SMOOTH",
"770 651 OFFCURVE",
"783 679 OFFCURVE",
"855 686 CURVE SMOOTH",
"876 688 LINE",
"885 713 LINE",
"762 710 LINE"
);
}
);
width = 733;
}
);
leftKerningGroup = V;
rightKerningGroup = V;
unicode = 0056;
},
{
glyphname = W;
lastChange = "2017-10-20 08:16:55 +0000";
layers = (
{
anchors = (
{
name = bottom;
position = "{498, 0}";
},
{
name = top;
position = "{756, 710}";
}
);
background = {
paths = (
{
closed = 1;
nodes = (
"1074 660 OFFCURVE",
"1032 713 OFFCURVE",
"960 713 CURVE SMOOTH",
"925 713 LINE",
"916 688 LINE",
"943 684 LINE SMOOTH",
"1002 675 OFFCURVE",
"1018 652 OFFCURVE",
"1018 620 CURVE SMOOTH",
"1018 590 OFFCURVE",
"988 546 OFFCURVE",
"971 516 CURVE SMOOTH",
"726 68 LINE",
"749 77 LINE",
"708 594 LINE SMOOTH",
"702 666 OFFCURVE",
"744 680 OFFCURVE",
"804 686 CURVE SMOOTH",
"825 688 LINE",
"834 713 LINE",
"689 710 LINE",
"551 713 LINE",
"542 688 LINE",
"561 686 LINE SMOOTH",
"636 678 OFFCURVE",
"630 651 OFFCURVE",
"634 593 CURVE SMOOTH",
"679 -16 LINE",
"709 -16 LINE",
"1022 536 LINE SMOOTH",
"1039 566 OFFCURVE",
"1074 607 OFFCURVE",
"1074 636 CURVE SMOOTH"
);
},
{
closed = 1;
nodes = (
"1045 -16 LINE",
"1075 -16 LINE",
"1425 598 LINE SMOOTH",
"1457 654 OFFCURVE",
"1474 679 OFFCURVE",
"1546 686 CURVE SMOOTH",
"1567 688 LINE",
"1576 713 LINE",
"1453 710 LINE",
"1326 713 LINE",
"1317 688 LINE",
"1345 686 LINE SMOOTH",
"1412 681 OFFCURVE",
"1427 663 OFFCURVE",
"1399 613 CURVE SMOOTH",
"1090 67 LINE",
"1118 79 LINE",
"1097 526 LINE SMOOTH",
"1092 635 OFFCURVE",
"1114 681 OFFCURVE",
"1179 686 CURVE SMOOTH",
"1205 688 LINE",
"1214 713 LINE",
"1178 713 LINE SMOOTH",
"1063 713 OFFCURVE",
"1017 611 OFFCURVE",
"1018 590 CURVE SMOOTH"
);
}
);
};
guideLines = (
{
position = "{516, 713}";
}
);
layerId = "9372F035-DA38-4B54-966C-CEBA9B53DD02";
paths = (
{
closed = 1;
nodes = (
"691 673 OFFCURVE",
"660 713 OFFCURVE",
"588 713 CURVE SMOOTH",
"570 713 LINE",
"561 688 LINE",
"585 686 LINE SMOOTH",
"627 682 OFFCURVE",
"644 664 OFFCURVE",
"648 638 CURVE SMOOTH",
"653 608 OFFCURVE",
"635 566 OFFCURVE",
"607 516 CURVE SMOOTH",
"354 68 LINE",
"377 77 LINE",
"336 594 LINE SMOOTH",
"330 666 OFFCURVE",
"372 676 OFFCURVE",
"422 686 CURVE SMOOTH",
"434 688 LINE",
"443 713 LINE",
"317 710 LINE",
"179 713 LINE",
"170 688 LINE",
"189 686 LINE SMOOTH",
"264 678 OFFCURVE",
"258 651 OFFCURVE",
"262 593 CURVE SMOOTH",
"307 -16 LINE",
"337 -16 LINE",
"650 536 LINE SMOOTH",
"667 566 OFFCURVE",
"691 607 OFFCURVE",
"691 636 CURVE SMOOTH"
);
},
{
closed = 1;
nodes = (
"688 -16 LINE",
"718 -16 LINE",
"1063 598 LINE SMOOTH",
"1094 653 OFFCURVE",
"1112 679 OFFCURVE",
"1184 686 CURVE SMOOTH",
"1205 688 LINE",
"1214 713 LINE",
"1091 710 LINE",
"955 713 LINE",
"946 688 LINE",
"983 686 LINE SMOOTH",
"1050 682 OFFCURVE",
"1065 663 OFFCURVE",
"1037 613 CURVE SMOOTH",
"733 67 LINE",
"757 68 LINE",
"714 587 LINE SMOOTH",
"709 649 OFFCURVE",
"732 673 OFFCURVE",
"791 684 CURVE SMOOTH",
"813 688 LINE",
"822 713 LINE",
"806 713 LINE SMOOTH",
"678 713 OFFCURVE",
"643 638 OFFCURVE",
"646 590 CURVE SMOOTH"
);
}
);
width = 1035;
},
{
associatedMasterId = "9372F035-DA38-4B54-966C-CEBA9B53DD02";
background = {
paths = (
{
closed = 1;
nodes = (
"354 -16 LINE",
"374 -16 LINE",
"606 628 LINE SMOOTH",
"619 665 OFFCURVE",
"650 684 OFFCURVE",
"694 688 CURVE SMOOTH",
"737 692 LINE",
"737 710 LINE",
"480 710 LINE",
"480 692 LINE",
"513 688 LINE SMOOTH",
"560 682 OFFCURVE",
"589 667 OFFCURVE",
"572 621 CURVE SMOOTH",
"377 82 LINE",
"406 89 LINE",
"244 594 LINE SMOOTH",
"230 638 OFFCURVE",
"246 683 OFFCURVE",
"303 688 CURVE SMOOTH",
"346 692 LINE",
"346 710 LINE",
"268 710 LINE SMOOTH",
"192 710 OFFCURVE",
"126 662 OFFCURVE",
"149 593 CURVE SMOOTH"
);
}
);
};
backgroundImage = {
crop = "{{1180, 1157.037}, {444.444, 366.667}}";
imagePath = "../../../../1878 Limprimerie Berger Levrault Notice historique/Romain/JACOB-notice-187514.jpg";
locked = "1";
transform = "{2.565, 0, 3.603, 2.7, -8085, -3404}";
};
layerId = "959EC74D-DEA0-4879-A23B-207546CE4068";
name = "Oct 17 17, 15:47";
paths = (
{
closed = 1;
nodes = (
"664 -16 LINE",
"684 -16 LINE",
"1144 628 LINE SMOOTH",
"1170 665 OFFCURVE",
"1208 684 OFFCURVE",
"1253 688 CURVE SMOOTH",
"1297 692 LINE",
"1304 710 LINE",
"1179 708 LINE",
"1047 710 LINE",
"1040 692 LINE",
"1072 688 LINE SMOOTH",
"1118 682 OFFCURVE",
"1141 667 OFFCURVE",
"1107 621 CURVE SMOOTH",
"721 82 LINE",
"743 82 LINE",
"770 594 LINE SMOOTH",
"773 638 OFFCURVE",
"804 683 OFFCURVE",
"862 688 CURVE SMOOTH",
"905 692 LINE",
"912 710 LINE",
"817 710 LINE SMOOTH",
"747 710 OFFCURVE",
"683 652 OFFCURVE",
"682 593 CURVE SMOOTH"
);
},
{
closed = 1;
nodes = (
"727 657 OFFCURVE",
"720 710 OFFCURVE",
"657 710 CURVE SMOOTH",
"601 710 LINE",
"594 692 LINE",
"622 690 LINE SMOOTH",
"685 685 OFFCURVE",
"693 652 OFFCURVE",
"654 597 CURVE SMOOTH",
"291 82 LINE",
"309 82 LINE",
"339 628 LINE SMOOTH",
"341 677 OFFCURVE",
"389 689 OFFCURVE",
"433 691 CURVE SMOOTH",
"459 692 LINE",
"466 710 LINE",
"301 708 LINE",
"146 710 LINE",
"139 692 LINE",
"181 688 LINE SMOOTH",
"223 684 OFFCURVE",
"253 669 OFFCURVE",
"252 632 CURVE SMOOTH",
"231 -16 LINE",
"251 -16 LINE",
"699 617 LINE SMOOTH"
);
}
);
width = 1098;
}
);
leftKerningGroup = V;
rightKerningGroup = V;
unicode = 0057;
},
{
glyphname = X;
lastChange = "2017-10-19 15:47:26 +0000";
layers = (
{
associatedMasterId = "9372F035-DA38-4B54-966C-CEBA9B53DD02";
background = {
components = (
{
name = I;
transform = "{1, 0, 0, 1, 330, 0}";
}
);
};
backgroundImage = {
crop = "{{1307.627, 1364.547}, {297.969, 378.192}}";
imagePath = "1878 Limprimerie Berger Levrault Notice historique/Romain/JACOB-notice-187513.jpg";
locked = "1";
transform = "{2.487, 0, 3.493, 2.618, -8871, -3852}";
};
layerId = "36BFB884-2468-4568-9F4D-2F5C7897BA74";
name = "Oct 18 17, 16:38";
paths = (
{
closed = 1;
nodes = (
"240 593 LINE SMOOTH",
"214 652 OFFCURVE",
"189 681 OFFCURVE",
"140 686 CURVE SMOOTH",
"121 688 LINE",
"130 713 LINE",
"259 710 LINE",
"403 713 LINE",
"397 688 LINE",
"376 686 LINE SMOOTH",
"316 680 OFFCURVE",
"297 649 OFFCURVE",
"322 593 CURVE SMOOTH",
"532 117 LINE SMOOTH",
"557 60 OFFCURVE",
"581 30 OFFCURVE",
"632 25 CURVE SMOOTH",
"651 23 LINE",
"642 -2 LINE",
"518 0 LINE",
"366 -2 LINE",
"375 23 LINE",
"396 25 LINE SMOOTH",
"456 31 OFFCURVE",
"479 53 OFFCURVE",
"453 112 CURVE SMOOTH"
);
},
{
closed = 1;
nodes = (
"384 382 LINE",
"608 609 LINE SMOOTH",
"666 659 OFFCURVE",
"644 678 OFFCURVE",
"567 686 CURVE SMOOTH",
"548 688 LINE",
"557 713 LINE",
"685 710 LINE",
"811 713 LINE",
"802 688 LINE",
"781 685 LINE SMOOTH",
"744 680 OFFCURVE",
"702 653 OFFCURVE",
"651 609 CURVE SMOOTH",
"403 360 LINE"
);
},
{
closed = 1;
nodes = (
"398 364 LINE",
"138 103 LINE SMOOTH",
"84 56 OFFCURVE",
"111 32 OFFCURVE",
"178 25 CURVE SMOOTH",
"197 23 LINE",
"188 -2 LINE",
"67 1 LINE",
"-66 -2 LINE",
"-57 23 LINE",
"-36 26 LINE SMOOTH",
"2 31 OFFCURVE",
"43 58 OFFCURVE",
"93 101 CURVE SMOOTH",
"379 386 LINE"
);
}
);
width = 654;
},
{
anchors = (
{
name = bottom;
position = "{247, 0}";
},
{
name = top;
position = "{505, 710}";
}
);
background = {
components = (
{
name = I;
transform = "{1, 0, 0, 1, 360, 0}";
}
);
};
backgroundImage = {
crop = "{{1307.627, 1364.547}, {297.969, 378.192}}";
imagePath = "1878 Limprimerie Berger Levrault Notice historique/Romain/JACOB-notice-187513.jpg";
locked = "1";
transform = "{2.487, 0, 3.493, 2.618, -8881, -3852}";
};
layerId = "9372F035-DA38-4B54-966C-CEBA9B53DD02";
paths = (
{
closed = 1;
nodes = (
"280 593 LINE SMOOTH",
"263 649 OFFCURVE",
"240 681 OFFCURVE",
"191 686 CURVE SMOOTH",
"172 688 LINE",
"181 713 LINE",
"310 710 LINE",
"457 713 LINE",
"448 688 LINE",
"427 686 LINE SMOOTH",
"367 680 OFFCURVE",
"343 650 OFFCURVE",
"364 581 CURVE SMOOTH",
"508 118 LINE SMOOTH",
"526 61 OFFCURVE",
"546 30 OFFCURVE",
"597 25 CURVE SMOOTH",
"616 23 LINE",
"607 -2 LINE",
"483 0 LINE",
"331 -2 LINE",
"340 23 LINE",
"361 25 LINE SMOOTH",
"421 31 OFFCURVE",
"445 62 OFFCURVE",
"424 130 CURVE SMOOTH"
);
},
{
closed = 1;
nodes = (
"384 382 LINE",
"648 609 LINE SMOOTH",
"706 659 OFFCURVE",
"684 678 OFFCURVE",
"607 686 CURVE SMOOTH",
"588 688 LINE",
"597 713 LINE",
"725 710 LINE",
"851 713 LINE",
"842 688 LINE",
"821 685 LINE SMOOTH",
"784 680 OFFCURVE",
"742 653 OFFCURVE",
"691 609 CURVE SMOOTH",
"403 360 LINE"
);
},
{
closed = 1;
nodes = (
"398 364 LINE",
"99 104 LINE SMOOTH",
"44 56 OFFCURVE",
"71 32 OFFCURVE",
"138 25 CURVE SMOOTH",
"157 23 LINE",
"148 -2 LINE",
"27 1 LINE",
"-106 -2 LINE",
"-97 23 LINE",
"-76 26 LINE SMOOTH",
"-38 31 OFFCURVE",
"3 58 OFFCURVE",
"54 102 CURVE SMOOTH",
"379 386 LINE"
);
}
);
width = 654;
}
);
unicode = 0058;
},
{
glyphname = Y;
lastChange = "2017-10-19 15:47:26 +0000";
layers = (
{
associatedMasterId = "9372F035-DA38-4B54-966C-CEBA9B53DD02";
backgroundImage = {
crop = "{{248.984, 192.024}, {12.151, 15.037}}";
imagePath = "1788-89 Epreuves des caracteres de Rolland et Jacob/p19.jpg";
locked = "1";
transform = "{62.544, 0, 87.843, 65.836, -7082, -12922}";
};
layerId = "8495691E-2266-4B46-B0C2-7F71DAFDFDF7";
name = "Oct 17 17, 16:21";
paths = (
{
closed = 1;
nodes = (
"277 0 LINE",
"198 0 LINE",
"304 292 LINE",
"383 292 LINE"
);
},
{
closed = 1;
nodes = (
"316 236 LINE",
"239 593 LINE SMOOTH",
"227 650 OFFCURVE",
"221 678 OFFCURVE",
"146 686 CURVE SMOOTH",
"127 688 LINE",
"136 713 LINE",
"267 710 LINE",
"414 713 LINE",
"405 688 LINE",
"384 686 LINE SMOOTH",
"324 680 OFFCURVE",
"306 650 OFFCURVE",
"321 581 CURVE SMOOTH",
"380 304 LINE"
);
},
{
closed = 1;
nodes = (
"354 299 LINE",
"621 609 LINE SMOOTH",
"671 667 OFFCURVE",
"657 678 OFFCURVE",
"580 686 CURVE SMOOTH",
"561 688 LINE",
"570 713 LINE",
"698 710 LINE",
"824 713 LINE",
"815 688 LINE",
"794 685 LINE SMOOTH",
"757 680 OFFCURVE",
"709 660 OFFCURVE",
"664 609 CURVE SMOOTH",
"373 277 LINE"
);
},
{
closed = 1;
nodes = (
"310 92 LINE",
"291 37 OFFCURVE",
"331 31 OFFCURVE",
"400 24 CURVE SMOOTH",
"419 22 LINE",
"410 -3 LINE",
"238 0 LINE",
"93 -3 LINE",
"102 22 LINE",
"123 24 LINE SMOOTH",
"195 32 OFFCURVE",
"212 37 OFFCURVE",
"248 137 CURVE"
);
}
);
width = 600;
},
{
anchors = (
{
name = bottom;
position = "{250, 0}";
},
{
name = top;
position = "{508, 710}";
},
{
name = topleft;
position = "{208, 710}";
}
);
backgroundImage = {
crop = "{{248.984, 192.024}, {12.151, 15.037}}";
imagePath = "1788-89 Epreuves des caracteres de Rolland et Jacob/p19.jpg";
locked = "1";
transform = "{62.544, 0, 87.843, 65.836, -7082, -12922}";
};
layerId = "9372F035-DA38-4B54-966C-CEBA9B53DD02";
paths = (
{
closed = 1;
nodes = (
"312 259 LINE",
"240 593 LINE SMOOTH",
"228 650 OFFCURVE",
"222 678 OFFCURVE",
"147 686 CURVE SMOOTH",
"128 688 LINE",
"137 713 LINE",
"268 710 LINE",
"413 713 LINE",
"404 688 LINE",
"383 686 LINE SMOOTH",
"323 680 OFFCURVE",
"305 650 OFFCURVE",
"320 581 CURVE SMOOTH",
"387 279 LINE"
);
},
{
closed = 1;
nodes = (
"320 92 LINE",
"301 37 OFFCURVE",
"341 31 OFFCURVE",
"410 24 CURVE SMOOTH",
"429 22 LINE",
"420 -3 LINE",
"248 0 LINE",
"103 -3 LINE",
"112 22 LINE",
"133 24 LINE SMOOTH",
"205 32 OFFCURVE",
"222 37 OFFCURVE",
"258 137 CURVE"
);
},
{
closed = 1;
nodes = (
"287 0 LINE",
"208 0 LINE",
"314 292 LINE",
"393 292 LINE"
);
},
{
closed = 1;
nodes = (
"366 299 LINE",
"611 595 LINE SMOOTH",
"664 659 OFFCURVE",
"640 679 OFFCURVE",
"563 686 CURVE SMOOTH",
"544 688 LINE",
"553 713 LINE",
"681 710 LINE",
"807 713 LINE",
"798 688 LINE",
"777 685 LINE SMOOTH",
"740 680 OFFCURVE",
"698 654 OFFCURVE",
"654 601 CURVE SMOOTH",
"386 280 LINE"
);
}
);
width = 660;
}
);
unicode = 0059;
},
{
glyphname = Z;
lastChange = "2017-10-19 15:54:27 +0000";
layers = (
{
anchors = (
{
name = bottom;
position = "{250, 0}";
},
{
name = top;
position = "{508, 710}";
}
);
background = {
components = (
{
name = T;
transform = "{1, 0, 0, 1, 20, 0}";
}
);
};
layerId = "9372F035-DA38-4B54-966C-CEBA9B53DD02";
paths = (
{
closed = 1;
nodes = (
"-3 0 LINE",
"592 1 LINE",
"616 107 LINE",
"658 260 LINE",
"633 260 LINE",
"565 99 OFFCURVE",
"520 29 OFFCURVE",
"334 29 CURVE SMOOTH",
"85 29 LINE",
"95 9 LINE",
"737 703 LINE",
"734 710 LINE",
"211 710 LINE",
"128 506 LINE",
"153 506 LINE",
"209 613 OFFCURVE",
"237 685 OFFCURVE",
"390 685 CURVE SMOOTH",
"685 685 LINE",
"636 703 LINE",
"-6 9 LINE"
);
}
);
width = 659;
},
{
associatedMasterId = "9372F035-DA38-4B54-966C-CEBA9B53DD02";
layerId = "82BB1C63-4550-451A-95D8-7B019382E797";
name = "Oct 18 17, 16:28";
paths = (
{
closed = 1;
nodes = (
"666 107 LINE",
"708 260 LINE",
"683 260 LINE",
"615 99 OFFCURVE",
"570 29 OFFCURVE",
"384 29 CURVE SMOOTH",
"125 29 LINE",
"141 9 LINE",
"710 679 LINE",
"722 710 LINE",
"151 710 LINE",
"144 633 LINE",
"128 506 LINE",
"153 506 LINE",
"180 613 OFFCURVE",
"207 685 OFFCURVE",
"360 685 CURVE SMOOTH",
"685 685 LINE",
"633 703 LINE",
"45 23 LINE",
"39 0 LINE",
"642 1 LINE"
);
}
);
width = 709;
}
);
unicode = 005A;
},
{
glyphname = a;
lastChange = "2017-10-20 08:18:43 +0000";
layers = (
{
anchors = (
{
name = bottom;
position = "{206, 0}";
},
{
name = ogonek;
position = "{434, 10}";
},
{
name = top;
position = "{326, 440}";
}
);
backgroundImage = {
crop = "{{260.146, 0}, {47.099, 75.281}}";
imagePath = "../../../../1878 Limprimerie Berger Levrault Notice historique/Italique/La Rehab.jpg";
locked = "1";
transform = "{12.739, 0, 4.63662, 12.739, -3653, -249}";
};
components = (
{
name = "_part-jambage-2";
transform = "{1, 0, 0, 1, 5, 0}";
}
);
guideLines = (
{
angle = 69.8938;
position = "{366, 215}";
}
);
layerId = "9372F035-DA38-4B54-966C-CEBA9B53DD02";
paths = (
{
closed = 1;
nodes = (
"342 103 OFFCURVE",
"273 12 OFFCURVE",
"197 12 CURVE SMOOTH",
"155 12 OFFCURVE",
"129 44 OFFCURVE",
"129 107 CURVE SMOOTH",
"129 242 OFFCURVE",
"245 428 OFFCURVE",
"337 428 CURVE SMOOTH",
"410 428 OFFCURVE",
"422 336 OFFCURVE",
"386 234 CURVE SMOOTH"
);
},
{
closed = 1;
nodes = (
"437 405 OFFCURVE",
"404 454 OFFCURVE",
"339 454 CURVE SMOOTH",
"214 454 OFFCURVE",
"52 296 OFFCURVE",
"52 135 CURVE SMOOTH",
"52 60 OFFCURVE",
"93 -14 OFFCURVE",
"192 -14 CURVE SMOOTH",
"265 -14 OFFCURVE",
"313 37 OFFCURVE",
"351 101 CURVE",
"437 322 LINE"
);
}
);
width = 571;
},
{
associatedMasterId = "9372F035-DA38-4B54-966C-CEBA9B53DD02";
backgroundImage = {
crop = "{{260.146, 0}, {47.099, 75.281}}";
imagePath = "../../../../1878 Limprimerie Berger Levrault Notice historique/Italique/La Rehab.jpg";
locked = "1";
transform = "{12.739, 0, 0, 12.739, -3288, -249}";
};
components = (
{
name = "_part-jambage-2";
transform = "{1, 0, 0, 1, 11, 0}";
}
);
guideLines = (
{
angle = 69.8938;
position = "{517, 215}";
}
);
layerId = "F0D5E5F3-5F7C-4D93-93A9-AB0B0EF87B1F";
name = "Oct 18 17, 11:20";
paths = (
{
closed = 1;
nodes = (
"345 103 OFFCURVE",
"271 12 OFFCURVE",
"190 12 CURVE SMOOTH",
"148 12 OFFCURVE",
"122 44 OFFCURVE",
"122 107 CURVE SMOOTH",
"122 242 OFFCURVE",
"238 428 OFFCURVE",
"343 428 CURVE SMOOTH",
"416 428 OFFCURVE",
"428 336 OFFCURVE",
"392 234 CURVE SMOOTH"
);
},
{
closed = 1;
nodes = (
"443 405 OFFCURVE",
"410 454 OFFCURVE",
"345 454 CURVE SMOOTH",
"207 454 OFFCURVE",
"45 296 OFFCURVE",
"45 135 CURVE SMOOTH",
"45 60 OFFCURVE",
"86 -14 OFFCURVE",
"185 -14 CURVE SMOOTH",
"264 -14 OFFCURVE",
"316 37 OFFCURVE",
"357 101 CURVE",
"443 322 LINE"
);
}
);
visible = 1;
width = 583;
}
);
leftMetricsKey = "=o+18";
rightMetricsKey = i;
unicode = 0061;
},
{
glyphname = b;
lastChange = "2017-10-19 15:01:19 +0000";
layers = (
{
anchors = (
{
name = bottom;
position = "{182, 0}";
},
{
name = top;
position = "{342, 440}";
}
);
backgroundImage = {
crop = "{{299.553, 0}, {47.099, 75.281}}";
imagePath = "../../../../1878 Limprimerie Berger Levrault Notice historique/Italique/La Rehab.jpg";
locked = "1";
transform = "{12.739, 0, 4.63662, 12.739, -4202, -249}";
};
components = (
{
name = "_part-attaque-asc";
transform = "{1, 0, 0, 1, -33, 0}";
}
);
layerId = "9372F035-DA38-4B54-966C-CEBA9B53DD02";
paths = (
{
closed = 1;
nodes = (
"345 -14 OFFCURVE",
"485 122 OFFCURVE",
"485 309 CURVE SMOOTH",
"485 397 OFFCURVE",
"434 454 OFFCURVE",
"345 454 CURVE SMOOTH",
"287 454 OFFCURVE",
"233 429 OFFCURVE",
"209 378 CURVE",
"214 370 LINE",
"336 702 LINE",
"270 702 LINE",
"96 233 LINE SMOOTH",
"31 71 OFFCURVE",
"91 -14 OFFCURVE",
"217 -14 CURVE SMOOTH"
);
},
{
closed = 1;
nodes = (
"126 10 OFFCURVE",
"115 90 OFFCURVE",
"162 221 CURVE SMOOTH",
"181 274 LINE SMOOTH",
"211 358 OFFCURVE",
"256 430 OFFCURVE",
"332 430 CURVE SMOOTH",
"373 430 OFFCURVE",
"413 397 OFFCURVE",
"413 326 CURVE SMOOTH",
"413 184 OFFCURVE",
"316 10 OFFCURVE",
"217 10 CURVE SMOOTH"
);
}
);
width = 524;
}
);
rightMetricsKey = o;
unicode = 0062;
},
{
glyphname = c;
lastChange = "2017-10-20 09:30:37 +0000";
layers = (
{
anchors = (
{
name = bottom;
position = "{134, 0}";
},
{
name = top;
position = "{294, 440}";
}
);
backgroundImage = {
crop = "{{1699.198, 1329.662}, {222.166, 366.573}}";
imagePath = "../../../../1878 Limprimerie Berger Levrault Notice historique/Italique/Nancy.JPG";
locked = "1";
transform = "{2.71505, -0.04769, 1.04221, 2.73241, -6425, -3916}";
};
layerId = "9372F035-DA38-4B54-966C-CEBA9B53DD02";
paths = (
{
closed = 1;
nodes = (
"354 106 LINE",
"332 56 OFFCURVE",
"276 16 OFFCURVE",
"224 16 CURVE SMOOTH",
"151 16 OFFCURVE",
"119 77 OFFCURVE",
"119 152 CURVE SMOOTH",
"119 276 OFFCURVE",
"210 432 OFFCURVE",
"312 432 CURVE SMOOTH",
"331 432 OFFCURVE",
"340 426 OFFCURVE",
"344 416 CURVE SMOOTH",
"348 404 OFFCURVE",
"346 387 OFFCURVE",
"346 370 CURVE SMOOTH",
"346 346 OFFCURVE",
"363 331 OFFCURVE",
"388 331 CURVE SMOOTH",
"417 331 OFFCURVE",
"432 357 OFFCURVE",
"432 381 CURVE SMOOTH",
"432 405 OFFCURVE",
"421 454 OFFCURVE",
"323 454 CURVE SMOOTH",
"185 454 OFFCURVE",
"41 316 OFFCURVE",
"41 150 CURVE SMOOTH",
"41 53 OFFCURVE",
"96 -14 OFFCURVE",
"204 -14 CURVE SMOOTH",
"291 -14 OFFCURVE",
"346 35 OFFCURVE",
"374 94 CURVE"
);
}
);
width = 427;
},
{
associatedMasterId = "9372F035-DA38-4B54-966C-CEBA9B53DD02";
backgroundImage = {
crop = "{{1699.198, 1329.662}, {222.166, 366.573}}";
imagePath = "../../../../1878 Limprimerie Berger Levrault Notice historique/Italique/Nancy.JPG";
locked = "1";
transform = "{2.71505, -0.04769, 1.04221, 2.73241, -6406.726, -3916}";
};
layerId = "45E66FF6-EA7A-49E1-A3EC-83376670E4E3";
name = "Oct 19 17, 12:07";
paths = (
{
closed = 1;
nodes = (
"381 106 LINE",
"359 56 OFFCURVE",
"303 16 OFFCURVE",
"248 16 CURVE SMOOTH",
"172 16 OFFCURVE",
"137 77 OFFCURVE",
"137 152 CURVE SMOOTH",
"137 276 OFFCURVE",
"225 432 OFFCURVE",
"313 432 CURVE SMOOTH",
"356 432 OFFCURVE",
"351 397 OFFCURVE",
"351 370 CURVE SMOOTH",
"351 346 OFFCURVE",
"368 331 OFFCURVE",
"393 331 CURVE SMOOTH",
"422 331 OFFCURVE",
"437 357 OFFCURVE",
"437 381 CURVE SMOOTH",
"437 405 OFFCURVE",
"426 454 OFFCURVE",
"328 454 CURVE SMOOTH",
"196 454 OFFCURVE",
"59 316 OFFCURVE",
"59 150 CURVE SMOOTH",
"59 53 OFFCURVE",
"117 -14 OFFCURVE",
"227 -14 CURVE SMOOTH",
"318 -14 OFFCURVE",
"373 35 OFFCURVE",
"401 94 CURVE"
);
}
);
width = 455;
},
{
associatedMasterId = "9372F035-DA38-4B54-966C-CEBA9B53DD02";
background = {
paths = (
{
closed = 1;
nodes = (
"102 176 LINE",
"126 210 LINE SMOOTH",
"235 365 OFFCURVE",
"316 416 OFFCURVE",
"345 408 CURVE SMOOTH",
"368 402 OFFCURVE",
"344 355 OFFCURVE",
"381 344 CURVE SMOOTH",
"402 338 OFFCURVE",
"426 351 OFFCURVE",
"433 377 CURVE SMOOTH",
"442 410 OFFCURVE",
"419 429 OFFCURVE",
"389 437 CURVE SMOOTH",
"278 467 OFFCURVE",
"144 262 OFFCURVE",
"72 170 CURVE"
);
}
);
};
backgroundImage = {
crop = "{{1699.198, 1329.662}, {222.166, 366.573}}";
imagePath = "../../../../1878 Limprimerie Berger Levrault Notice historique/Italique/Nancy.JPG";
locked = "1";
transform = "{2.71505, -0.04769, 1.04221, 2.73241, -6406.726, -3916}";
};
layerId = "D7FA8C47-B2EC-421E-AE8C-CFF733666234";
name = "Oct 19 17, 15:03";
paths = (
{
closed = 1;
nodes = (
"381 106 LINE",
"359 56 OFFCURVE",
"303 16 OFFCURVE",
"248 16 CURVE SMOOTH",
"172 16 OFFCURVE",
"137 77 OFFCURVE",
"137 152 CURVE SMOOTH",
"137 276 OFFCURVE",
"225 432 OFFCURVE",
"313 432 CURVE SMOOTH",
"356 432 OFFCURVE",
"351 401 OFFCURVE",
"351 370 CURVE SMOOTH",
"351 346 OFFCURVE",
"368 331 OFFCURVE",
"393 331 CURVE SMOOTH",
"422 331 OFFCURVE",
"437 357 OFFCURVE",
"437 381 CURVE SMOOTH",
"437 405 OFFCURVE",
"426 454 OFFCURVE",
"328 454 CURVE SMOOTH",
"196 454 OFFCURVE",
"59 316 OFFCURVE",
"59 150 CURVE SMOOTH",
"59 53 OFFCURVE",
"117 -14 OFFCURVE",
"227 -14 CURVE SMOOTH",
"318 -14 OFFCURVE",
"373 35 OFFCURVE",
"401 94 CURVE"
);
}
);
width = 455;
},
{
associatedMasterId = "9372F035-DA38-4B54-966C-CEBA9B53DD02";
backgroundImage = {
crop = "{{1699.198, 1329.662}, {222.166, 366.573}}";
imagePath = "../../../../1878 Limprimerie Berger Levrault Notice historique/Italique/Nancy.JPG";
locked = "1";
transform = "{2.71505, -0.04769, 1.04221, 2.73241, -6408, -3916}";
};
layerId = "2B7567B7-3B1B-4138-BE13-6A1B92859C65";
name = "Oct 19 17, 15:33";
paths = (
{
closed = 1;
nodes = (
"380 106 LINE",
"358 56 OFFCURVE",
"302 16 OFFCURVE",
"247 16 CURVE SMOOTH",
"171 16 OFFCURVE",
"136 77 OFFCURVE",
"136 152 CURVE SMOOTH",
"136 276 OFFCURVE",
"221 432 OFFCURVE",
"316 432 CURVE SMOOTH",
"358 432 OFFCURVE",
"350 401 OFFCURVE",
"350 370 CURVE SMOOTH",
"350 346 OFFCURVE",
"367 331 OFFCURVE",
"392 331 CURVE SMOOTH",
"421 331 OFFCURVE",
"436 357 OFFCURVE",
"436 381 CURVE SMOOTH",
"436 405 OFFCURVE",
"425 454 OFFCURVE",
"327 454 CURVE SMOOTH",
"195 454 OFFCURVE",
"58 316 OFFCURVE",
"58 150 CURVE SMOOTH",
"58 53 OFFCURVE",
"116 -14 OFFCURVE",
"226 -14 CURVE SMOOTH",
"317 -14 OFFCURVE",
"372 35 OFFCURVE",
"400 94 CURVE"
);
}
);
visible = 1;
width = 454;
}
);
leftMetricsKey = o;
unicode = 0063;
},
{
glyphname = e;
lastChange = "2017-10-20 08:20:35 +0000";
layers = (
{
anchors = (
{
name = bottom;
position = "{130, 0}";
},
{
name = ogonek;
position = "{298, 10}";
},
{
name = top;
position = "{290, 440}";
}
);
background = {
components = (
{
name = c;
transform = "{1, 0, 0, 1, 4, 0}";
}
);
};
backgroundImage = {
crop = "{{25.73, 7.363}, {39.585, 78.379}}";
imagePath = "../../../../1878 Limprimerie Berger Levrault Notice historique/Italique/reotypie.JPG";
locked = "1";
transform = "{13.14533, 0, 14.35353, 13.14533, -1580, -393}";
};
layerId = "9372F035-DA38-4B54-966C-CEBA9B53DD02";
paths = (
{
closed = 1;
nodes = (
"349 101 LINE",
"310 52 OFFCURVE",
"272 16 OFFCURVE",
"221 16 CURVE SMOOTH",
"148 16 OFFCURVE",
"123 83 OFFCURVE",
"123 143 CURVE SMOOTH",
"123 278 OFFCURVE",
"216 432 OFFCURVE",
"312 432 CURVE SMOOTH",
"341 432 OFFCURVE",
"355 412 OFFCURVE",
"355 385 CURVE SMOOTH",
"355 342 OFFCURVE",
"324 267 OFFCURVE",
"186 238 CURVE SMOOTH",
"123 225 LINE",
"121 204 LINE",
"209 219 LINE SMOOTH",
"329 239 OFFCURVE",
"414 298 OFFCURVE",
"414 374 CURVE SMOOTH",
"414 422 OFFCURVE",
"377 454 OFFCURVE",
"321 454 CURVE SMOOTH",
"189 454 OFFCURVE",
"48 320 OFFCURVE",
"48 157 CURVE SMOOTH",
"48 53 OFFCURVE",
"99 -14 OFFCURVE",
"199 -14 CURVE SMOOTH",
"280 -14 OFFCURVE",
"336 38 OFFCURVE",
"365 87 CURVE"
);
}
);
width = 433;
},
{
associatedMasterId = "9372F035-DA38-4B54-966C-CEBA9B53DD02";
background = {
paths = (
{
closed = 1;
nodes = (
"372 106 LINE",
"350 56 OFFCURVE",
"294 8 OFFCURVE",
"234 8 CURVE SMOOTH",
"152 8 OFFCURVE",
"120 66 OFFCURVE",
"120 143 CURVE SMOOTH",
"120 262 OFFCURVE",
"216 432 OFFCURVE",
"304 432 CURVE SMOOTH",
"347 432 OFFCURVE",
"342 397 OFFCURVE",
"342 370 CURVE SMOOTH",
"342 346 OFFCURVE",
"359 331 OFFCURVE",
"384 331 CURVE SMOOTH",
"413 331 OFFCURVE",
"428 357 OFFCURVE",
"428 381 CURVE SMOOTH",
"428 405 OFFCURVE",
"417 454 OFFCURVE",
"319 454 CURVE SMOOTH",
"187 454 OFFCURVE",
"50 316 OFFCURVE",
"50 157 CURVE SMOOTH",
"50 53 OFFCURVE",
"108 -14 OFFCURVE",
"222 -14 CURVE SMOOTH",
"307 -14 OFFCURVE",
"364 35 OFFCURVE",
"392 94 CURVE"
);
}
);
};
backgroundImage = {
crop = "{{25.73, 7.363}, {39.585, 78.379}}";
imagePath = "../../../../1878 Limprimerie Berger Levrault Notice historique/Italique/reotypie.JPG";
locked = "1";
transform = "{13.14533, 0, 0, 13.14533, -364, -393}";
};
layerId = "B0692760-8043-4FE8-813D-C88D8CB06F71";
name = "Oct 16 17, 15:34";
paths = (
{
closed = 1;
nodes = (
"369 101 LINE",
"330 52 OFFCURVE",
"281 8 OFFCURVE",
"223 8 CURVE SMOOTH",
"159 8 OFFCURVE",
"121 66 OFFCURVE",
"120 143 CURVE SMOOTH",
"119 278 OFFCURVE",
"216 432 OFFCURVE",
"312 432 CURVE SMOOTH",
"351 432 OFFCURVE",
"362 412 OFFCURVE",
"362 385 CURVE SMOOTH",
"362 336 OFFCURVE",
"312 255 OFFCURVE",
"162 217 CURVE SMOOTH",
"115 205 LINE",
"113 186 LINE",
"187 201 LINE SMOOTH",
"309 226 OFFCURVE",
"400 288 OFFCURVE",
"400 374 CURVE SMOOTH",
"400 417 OFFCURVE",
"370 454 OFFCURVE",
"303 454 CURVE SMOOTH",
"187 454 OFFCURVE",
"50 316 OFFCURVE",
"50 157 CURVE SMOOTH",
"50 53 OFFCURVE",
"107 -14 OFFCURVE",
"219 -14 CURVE SMOOTH",
"293 -14 OFFCURVE",
"342 29 OFFCURVE",
"385 87 CURVE"
);
}
);
width = 422;
},
{
associatedMasterId = "9372F035-DA38-4B54-966C-CEBA9B53DD02";
background = {
components = (
{
name = c;
transform = "{1, 0, 0, 1, 23, 0}";
}
);
};
backgroundImage = {
crop = "{{25.73, 7.363}, {39.585, 78.379}}";
imagePath = "../../../../1878 Limprimerie Berger Levrault Notice historique/Italique/reotypie.JPG";
locked = "1";
transform = "{13.14533, 0, 14.35353, 13.14533, -1561, -393}";
};
layerId = "C143D7BE-DFA8-4017-AA4A-48D16ECD2A4B";
name = "Oct 19 17, 15:34";
paths = (
{
closed = 1;
nodes = (
"368 101 LINE",
"329 52 OFFCURVE",
"291 16 OFFCURVE",
"240 16 CURVE SMOOTH",
"167 16 OFFCURVE",
"142 83 OFFCURVE",
"142 143 CURVE SMOOTH",
"142 278 OFFCURVE",
"233 432 OFFCURVE",
"329 432 CURVE SMOOTH",
"358 432 OFFCURVE",
"372 412 OFFCURVE",
"372 385 CURVE SMOOTH",
"372 342 OFFCURVE",
"341 267 OFFCURVE",
"205 238 CURVE SMOOTH",
"142 225 LINE",
"140 204 LINE",
"228 219 LINE SMOOTH",
"347 239 OFFCURVE",
"431 298 OFFCURVE",
"431 374 CURVE SMOOTH",
"431 422 OFFCURVE",
"394 454 OFFCURVE",
"338 454 CURVE SMOOTH",
"206 454 OFFCURVE",
"67 320 OFFCURVE",
"67 157 CURVE SMOOTH",
"67 53 OFFCURVE",
"118 -14 OFFCURVE",
"218 -14 CURVE SMOOTH",
"299 -14 OFFCURVE",
"355 38 OFFCURVE",
"384 87 CURVE"
);
}
);
width = 448;
}
);
leftKerningGroup = o;
leftMetricsKey = "=o+5";
rightKerningGroup = o;
unicode = 0065;
},
{
glyphname = f;
lastChange = "2017-10-19 15:01:19 +0000";
layers = (
{
anchors = (
{
name = bottom;
position = "{91, 0}";
},
{
name = top;
position = "{251, 440}";
}
);
backgroundImage = {
crop = "{{104.087, 0}, {76.957, 117.914}}";
imagePath = "../../../../1878 Limprimerie Berger Levrault Notice historique/Italique/Il fallait.JPG";
locked = "1";
transform = "{10.98813, 0.91559, 3.07316, 12.20762, -1679, -657}";
};
layerId = "9372F035-DA38-4B54-966C-CEBA9B53DD02";
paths = (
{
closed = 1;
nodes = (
"373 416 LINE",
"380 440 LINE",
"113 440 LINE",
"106 416 LINE"
);
},
{
closed = 1;
nodes = (
"328 607 LINE SMOOTH",
"354 679 OFFCURVE",
"390 698 OFFCURVE",
"416 698 CURVE SMOOTH",
"442 698 OFFCURVE",
"451 685 OFFCURVE",
"451 647 CURVE SMOOTH",
"451 618 OFFCURVE",
"461 597 OFFCURVE",
"492 597 CURVE SMOOTH",
"525 597 OFFCURVE",
"538 623 OFFCURVE",
"538 650 CURVE SMOOTH",
"538 685 OFFCURVE",
"507 720 OFFCURVE",
"434 720 CURVE SMOOTH",
"348 720 OFFCURVE",
"283 681 OFFCURVE",
"235 548 CURVE SMOOTH",
"-11 -131 LINE SMOOTH",
"-41 -214 OFFCURVE",
"-70 -268 OFFCURVE",
"-105 -268 CURVE SMOOTH",
"-149 -268 OFFCURVE",
"-126 -174 OFFCURVE",
"-185 -174 CURVE SMOOTH",
"-213 -174 OFFCURVE",
"-234 -194 OFFCURVE",
"-234 -221 CURVE SMOOTH",
"-234 -255 OFFCURVE",
"-205 -290 OFFCURVE",
"-123 -290 CURVE SMOOTH",
"-36 -290 OFFCURVE",
"14 -260 OFFCURVE",
"61 -131 CURVE SMOOTH"
);
}
);
width = 342;
},
{
associatedMasterId = "9372F035-DA38-4B54-966C-CEBA9B53DD02";
background = {
paths = (
{
closed = 0;
nodes = (
"-21 -185 LINE SMOOTH",
"-36 -242 OFFCURVE",
"-72 -268 OFFCURVE",
"-105 -268 CURVE SMOOTH",
"-117 -268 OFFCURVE",
"-121 -266 OFFCURVE",
"-121 -261 CURVE SMOOTH",
"-121 -251 OFFCURVE",
"-111 -243 OFFCURVE",
"-111 -217 CURVE SMOOTH",
"-111 -188 OFFCURVE",
"-131 -167 OFFCURVE",
"-159 -167 CURVE SMOOTH",
"-191 -167 OFFCURVE",
"-210 -193 OFFCURVE",
"-210 -220 CURVE SMOOTH",
"-210 -250 OFFCURVE",
"-191 -290 OFFCURVE",
"-92 -290 CURVE SMOOTH",
"-22 -290 OFFCURVE",
"32 -251 OFFCURVE",
"57 -166 CURVE SMOOTH"
);
}
);
};
backgroundImage = {
crop = "{{104.087, 0}, {76.957, 117.914}}";
imagePath = "../../../../1878 Limprimerie Berger Levrault Notice historique/Italique/Il fallait.JPG";
locked = "1";
transform = "{10.96095, -1.19787, 5.34602, 11.39694, -1919, -276}";
};
guideLines = (
{
angle = 249.9307;
position = "{180, 313}";
}
);
layerId = "273392B2-03FB-4773-9D1F-9E462AB9F846";
name = "Oct 19 17, 12:08";
paths = (
{
closed = 1;
nodes = (
"373 416 LINE",
"380 440 LINE",
"113 440 LINE",
"106 416 LINE"
);
},
{
closed = 1;
nodes = (
"-36 -208 OFFCURVE",
"-64 -268 OFFCURVE",
"-105 -268 CURVE SMOOTH",
"-117 -268 OFFCURVE",
"-121 -266 OFFCURVE",
"-121 -261 CURVE SMOOTH",
"-121 -251 OFFCURVE",
"-111 -243 OFFCURVE",
"-111 -217 CURVE SMOOTH",
"-111 -188 OFFCURVE",
"-131 -167 OFFCURVE",
"-159 -167 CURVE SMOOTH",
"-191 -167 OFFCURVE",
"-210 -193 OFFCURVE",
"-210 -220 CURVE SMOOTH",
"-210 -250 OFFCURVE",
"-191 -290 OFFCURVE",
"-117 -290 CURVE SMOOTH",
"-31 -290 OFFCURVE",
"19 -253 OFFCURVE",
"56 -145 CURVE SMOOTH",
"331 615 LINE SMOOTH",
"350 672 OFFCURVE",
"394 698 OFFCURVE",
"435 698 CURVE SMOOTH",
"447 698 OFFCURVE",
"451 696 OFFCURVE",
"451 691 CURVE SMOOTH",
"451 681 OFFCURVE",
"441 673 OFFCURVE",
"441 647 CURVE SMOOTH",
"441 618 OFFCURVE",
"461 597 OFFCURVE",
"489 597 CURVE SMOOTH",
"521 597 OFFCURVE",
"540 623 OFFCURVE",
"540 650 CURVE SMOOTH",
"540 680 OFFCURVE",
"521 720 OFFCURVE",
"422 720 CURVE SMOOTH",
"343 720 OFFCURVE",
"281 681 OFFCURVE",
"253 596 CURVE SMOOTH",
"-10 -129 LINE SMOOTH"
);
}
);
width = 320;
},
{
associatedMasterId = "9372F035-DA38-4B54-966C-CEBA9B53DD02";
backgroundImage = {
crop = "{{104.087, 0}, {76.957, 117.914}}";
imagePath = "../../../../1878 Limprimerie Berger Levrault Notice historique/Italique/Il fallait.JPG";
locked = "1";
transform = "{10.98813, 0.91559, 3.07316, 12.20762, -1679, -657}";
};
guideLines = (
{
angle = 249.9307;
position = "{180, 313}";
}
);
layerId = "EB6D9D3C-8A19-4079-AF93-D4FDE7E4B8C1";
name = "Oct 19 17, 15:13";
paths = (
{
closed = 1;
nodes = (
"373 416 LINE",
"380 440 LINE",
"113 440 LINE",
"106 416 LINE"
);
},
{
closed = 1;
nodes = (
"-31 -290 OFFCURVE",
"17 -253 OFFCURVE",
"56 -145 CURVE SMOOTH",
"331 615 LINE SMOOTH",
"350 672 OFFCURVE",
"394 698 OFFCURVE",
"422 698 CURVE SMOOTH",
"442 698 OFFCURVE",
"451 685 OFFCURVE",
"451 647 CURVE SMOOTH",
"451 618 OFFCURVE",
"461 597 OFFCURVE",
"490 597 CURVE SMOOTH",
"521 597 OFFCURVE",
"538 623 OFFCURVE",
"538 650 CURVE SMOOTH",
"538 680 OFFCURVE",
"517 720 OFFCURVE",
"422 720 CURVE SMOOTH",
"343 720 OFFCURVE",
"281 681 OFFCURVE",
"253 596 CURVE SMOOTH",
"-10 -129 LINE SMOOTH",
"-38 -207 OFFCURVE",
"-64 -268 OFFCURVE",
"-105 -268 CURVE SMOOTH",
"-125 -268 OFFCURVE",
"-134 -255 OFFCURVE",
"-134 -217 CURVE SMOOTH",
"-134 -188 OFFCURVE",
"-144 -167 OFFCURVE",
"-173 -167 CURVE SMOOTH",
"-204 -167 OFFCURVE",
"-221 -193 OFFCURVE",
"-221 -220 CURVE SMOOTH",
"-221 -250 OFFCURVE",
"-187 -290 OFFCURVE",
"-117 -290 CURVE SMOOTH"
);
}
);
width = 362;
},
{
associatedMasterId = "9372F035-DA38-4B54-966C-CEBA9B53DD02";
backgroundImage = {
crop = "{{104.087, 0}, {76.957, 117.914}}";
imagePath = "../../../../1878 Limprimerie Berger Levrault Notice historique/Italique/Il fallait.JPG";
locked = "1";
transform = "{10.98813, 0.91559, 3.07316, 12.20762, -1679, -657}";
};
layerId = "4F5BAC05-E485-4741-9CA3-502C4DCFD422";
name = "Oct 19 17, 15:18";
paths = (
{
closed = 1;
nodes = (
"373 416 LINE",
"380 440 LINE",
"113 440 LINE",
"106 416 LINE"
);
},
{
closed = 1;
nodes = (
"-31 -290 OFFCURVE",
"17 -253 OFFCURVE",
"56 -145 CURVE SMOOTH",
"328 607 LINE SMOOTH",
"354 679 OFFCURVE",
"390 698 OFFCURVE",
"416 698 CURVE SMOOTH",
"442 698 OFFCURVE",
"451 685 OFFCURVE",
"451 647 CURVE SMOOTH",
"451 618 OFFCURVE",
"461 597 OFFCURVE",
"492 597 CURVE SMOOTH",
"525 597 OFFCURVE",
"538 623 OFFCURVE",
"538 650 CURVE SMOOTH",
"538 685 OFFCURVE",
"507 720 OFFCURVE",
"434 720 CURVE SMOOTH",
"348 720 OFFCURVE",
"283 681 OFFCURVE",
"235 548 CURVE SMOOTH",
"-10 -129 LINE SMOOTH",
"-38 -207 OFFCURVE",
"-64 -268 OFFCURVE",
"-105 -268 CURVE SMOOTH",
"-125 -268 OFFCURVE",
"-134 -255 OFFCURVE",
"-134 -217 CURVE SMOOTH",
"-134 -188 OFFCURVE",
"-144 -167 OFFCURVE",
"-173 -167 CURVE SMOOTH",
"-204 -167 OFFCURVE",
"-221 -193 OFFCURVE",
"-221 -220 CURVE SMOOTH",
"-221 -250 OFFCURVE",
"-187 -290 OFFCURVE",
"-117 -290 CURVE SMOOTH"
);
}
);
width = 362;
}
);
unicode = 0066;
},
{
glyphname = g;
lastChange = "2017-10-20 10:15:17 +0000";
layers = (
{
associatedMasterId = "9372F035-DA38-4B54-966C-CEBA9B53DD02";
backgroundImage = {
crop = "{{99.169, 8.386}, {46.161, 76.166}}";
imagePath = "../../../../1878 Limprimerie Berger Levrault Notice historique/Italique/Reglu.jpg";
locked = "1";
transform = "{12.998, 0, 0, 12.998, -1329, -389}";
};
layerId = "449A8564-B371-4B78-AF17-3B1E13E5D3DE";
name = "Oct 17 17, 14:04";
paths = (
{
closed = 1;
nodes = (
"372 137 OFFCURVE",
"460 206 OFFCURVE",
"460 301 CURVE SMOOTH",
"460 367 OFFCURVE",
"412 434 OFFCURVE",
"317 434 CURVE SMOOTH",
"213 434 OFFCURVE",
"128 367 OFFCURVE",
"128 272 CURVE SMOOTH",
"128 206 OFFCURVE",
"178 137 OFFCURVE",
"270 137 CURVE SMOOTH"
);
},
{
closed = 1;
nodes = (
"226 159 OFFCURVE",
"192 198 OFFCURVE",
"192 253 CURVE SMOOTH",
"192 321 OFFCURVE",
"241 412 OFFCURVE",
"318 412 CURVE SMOOTH",
"364 412 OFFCURVE",
"396 376 OFFCURVE",
"396 324 CURVE SMOOTH",
"396 257 OFFCURVE",
"354 159 OFFCURVE",
"272 159 CURVE SMOOTH"
);
},
{
closed = 1;
nodes = (
"205 183 LINE",
"205 183 OFFCURVE",
"164 189 OFFCURVE",
"142 189 CURVE SMOOTH",
"96 189 OFFCURVE",
"41 172 OFFCURVE",
"41 113 CURVE SMOOTH",
"41 27 OFFCURVE",
"150 6 OFFCURVE",
"219 3 CURVE SMOOTH",
"330 -3 OFFCURVE",
"379 -48 OFFCURVE",
"379 -108 CURVE SMOOTH",
"379 -168 OFFCURVE",
"338 -240 OFFCURVE",
"212 -240 CURVE SMOOTH",
"49 -240 OFFCURVE",
"19 -162 OFFCURVE",
"19 -124 CURVE SMOOTH",
"19 -98 OFFCURVE",
"53 -54 OFFCURVE",
"53 -41 CURVE SMOOTH",
"53 -29 OFFCURVE",
"42 -19 OFFCURVE",
"23 -19 CURVE SMOOTH",
"8 -19 OFFCURVE",
"-31 -32 OFFCURVE",
"-31 -86 CURVE SMOOTH",
"-31 -207 OFFCURVE",
"77 -262 OFFCURVE",
"212 -262 CURVE SMOOTH",
"312 -262 OFFCURVE",
"430 -208 OFFCURVE",
"430 -86 CURVE SMOOTH",
"430 33 OFFCURVE",
"335 62 OFFCURVE",
"223 69 CURVE SMOOTH",
"128 75 OFFCURVE",
"85 95 OFFCURVE",
"85 129 CURVE SMOOTH",
"85 157 OFFCURVE",
"112 170 OFFCURVE",
"145 170 CURVE SMOOTH",
"181 170 OFFCURVE",
"213 165 OFFCURVE",
"247 162 CURVE"
);
},
{
closed = 1;
nodes = (
"447 409 LINE SMOOTH",
"464 421 OFFCURVE",
"476 425 OFFCURVE",
"490 425 CURVE SMOOTH",
"512 425 OFFCURVE",
"507 387 OFFCURVE",
"543 387 CURVE SMOOTH",
"560 387 OFFCURVE",
"569 400 OFFCURVE",
"569 413 CURVE SMOOTH",
"569 442 OFFCURVE",
"537 454 OFFCURVE",
"508 454 CURVE SMOOTH",
"474 454 OFFCURVE",
"436 428 OFFCURVE",
"422 417 CURVE SMOOTH",
"402 402 LINE",
"416 386 LINE"
);
}
);
width = 540;
},
{
background = {
paths = (
{
closed = 1;
nodes = (
"153 133 LINE",
"105 125 OFFCURVE",
"49 105 OFFCURVE",
"28 51 CURVE SMOOTH",
"4 -11 OFFCURVE",
"59 -30 OFFCURVE",
"128 -32 CURVE SMOOTH",
"389 -41 LINE SMOOTH",
"444 -43 OFFCURVE",
"456 -70 OFFCURVE",
"446 -97 CURVE SMOOTH",
"419 -169 OFFCURVE",
"290 -220 OFFCURVE",
"213 -219 CURVE",
"202 -239 LINE",
"276 -240 OFFCURVE",
"430 -204 OFFCURVE",
"476 -88 CURVE SMOOTH",
"511 1 OFFCURVE",
"456 24 OFFCURVE",
"390 26 CURVE SMOOTH",
"123 35 LINE SMOOTH",
"81 36 OFFCURVE",
"61 47 OFFCURVE",
"69 65 CURVE SMOOTH",
"81 92 OFFCURVE",
"124 107 OFFCURVE",
"157 112 CURVE"
);
}
);
};
backgroundImage = {
crop = "{{99.169, 8.386}, {46.161, 76.166}}";
imagePath = "../../../../1878 Limprimerie Berger Levrault Notice historique/Italique/Reglu.jpg";
locked = "1";
transform = "{12.998, 0, 0, 12.998, -1350, -389}";
};
layerId = "9372F035-DA38-4B54-966C-CEBA9B53DD02";
paths = (
{
closed = 1;
nodes = (
"344 102 OFFCURVE",
"448 193 OFFCURVE",
"448 313 CURVE SMOOTH",
"448 386 OFFCURVE",
"404 454 OFFCURVE",
"306 454 CURVE SMOOTH",
"186 454 OFFCURVE",
"91 366 OFFCURVE",
"91 243 CURVE SMOOTH",
"91 172 OFFCURVE",
"129 102 OFFCURVE",
"229 102 CURVE SMOOTH"
);
},
{
closed = 1;
nodes = (
"185 124 OFFCURVE",
"155 164 OFFCURVE",
"155 225 CURVE SMOOTH",
"155 308 OFFCURVE",
"212 432 OFFCURVE",
"304 432 CURVE SMOOTH",
"354 432 OFFCURVE",
"384 393 OFFCURVE",
"384 335 CURVE SMOOTH",
"384 254 OFFCURVE",
"331 124 OFFCURVE",
"232 124 CURVE SMOOTH"
);
},
{
closed = 1;
nodes = (
"106 119 LINE SMOOTH",
"56 96 OFFCURVE",
"30 63 OFFCURVE",
"30 30 CURVE SMOOTH",
"30 -15 OFFCURVE",
"71 -53 OFFCURVE",
"164 -55 CURVE SMOOTH",
"266 -57 LINE SMOOTH",
"336 -58 OFFCURVE",
"368 -96 OFFCURVE",
"368 -134 CURVE SMOOTH",
"368 -195 OFFCURVE",
"309 -268 OFFCURVE",
"180 -268 CURVE SMOOTH",
"66 -268 OFFCURVE",
"41 -222 OFFCURVE",
"41 -198 CURVE SMOOTH",
"41 -179 OFFCURVE",
"46 -166 OFFCURVE",
"52 -153 CURVE SMOOTH",
"56 -144 OFFCURVE",
"60 -134 OFFCURVE",
"60 -123 CURVE SMOOTH",
"60 -106 OFFCURVE",
"49 -82 OFFCURVE",
"19 -82 CURVE SMOOTH",
"-11 -82 OFFCURVE",
"-35 -111 OFFCURVE",
"-35 -146 CURVE SMOOTH",
"-35 -203 OFFCURVE",
"35 -290 OFFCURVE",
"175 -290 CURVE SMOOTH",
"375 -290 OFFCURVE",
"409 -167 OFFCURVE",
"409 -101 CURVE SMOOTH",
"409 -45 OFFCURVE",
"372 11 OFFCURVE",
"260 13 CURVE SMOOTH",
"162 15 LINE SMOOTH",
"98 17 OFFCURVE",
"72 25 OFFCURVE",
"72 48 CURVE SMOOTH",
"72 76 OFFCURVE",
"105 101 OFFCURVE",
"160 122 CURVE",
"147 138 LINE"
);
},
{
closed = 1;
nodes = (
"412 383 LINE",
"440 415 OFFCURVE",
"458 425 OFFCURVE",
"474 425 CURVE SMOOTH",
"493 425 OFFCURVE",
"497 411 OFFCURVE",
"497 393 CURVE SMOOTH",
"497 363 OFFCURVE",
"517 354 OFFCURVE",
"532 354 CURVE SMOOTH",
"562 354 OFFCURVE",
"570 381 OFFCURVE",
"570 401 CURVE SMOOTH",
"570 428 OFFCURVE",
"556 454 OFFCURVE",
"504 454 CURVE SMOOTH",
"465 454 OFFCURVE",
"418 428 OFFCURVE",
"396 389 CURVE"
);
}
);
width = 523;
},
{
anchors = (
{
name = bottom;
position = "{172, 0}";
},
{
name = top;
position = "{332, 440}";
}
);
associatedMasterId = "9372F035-DA38-4B54-966C-CEBA9B53DD02";
background = {
paths = (
{
closed = 0;
nodes = (
"435 392 LINE SMOOTH",
"453 410 OFFCURVE",
"468 421 OFFCURVE",
"480 421 CURVE SMOOTH",
"501 421 OFFCURVE",
"498 381 OFFCURVE",
"528 381 CURVE SMOOTH",
"542 381 OFFCURVE",
"559 395 OFFCURVE",
"559 417 CURVE SMOOTH",
"559 443 OFFCURVE",
"538 454 OFFCURVE",
"517 454 CURVE SMOOTH",
"486 454 OFFCURVE",
"455 434 OFFCURVE",
"421 404 CURVE SMOOTH"
);
}
);
};
backgroundImage = {
crop = "{{99.169, 8.386}, {46.161, 76.166}}";
imagePath = "../../../../1878 Limprimerie Berger Levrault Notice historique/Italique/Reglu.jpg";
locked = "1";
transform = "{12.998, 0, 0, 12.998, -1330, -389}";
};
layerId = "D2F73A81-FE7D-4383-AB07-C1A0349F7FAF";
name = "Oct 20 17, 11:34";
paths = (
{
closed = 1;
nodes = (
"372 157 OFFCURVE",
"460 226 OFFCURVE",
"460 321 CURVE SMOOTH",
"460 387 OFFCURVE",
"412 454 OFFCURVE",
"317 454 CURVE SMOOTH",
"213 454 OFFCURVE",
"128 387 OFFCURVE",
"128 292 CURVE SMOOTH",
"128 226 OFFCURVE",
"178 157 OFFCURVE",
"270 157 CURVE SMOOTH"
);
},
{
closed = 1;
nodes = (
"226 179 OFFCURVE",
"192 218 OFFCURVE",
"192 273 CURVE SMOOTH",
"192 341 OFFCURVE",
"241 432 OFFCURVE",
"318 432 CURVE SMOOTH",
"364 432 OFFCURVE",
"396 396 OFFCURVE",
"396 344 CURVE SMOOTH",
"396 277 OFFCURVE",
"354 179 OFFCURVE",
"272 179 CURVE SMOOTH"
);
},
{
closed = 1;
nodes = (
"205 183 LINE",
"205 183 OFFCURVE",
"164 189 OFFCURVE",
"142 189 CURVE SMOOTH",
"96 189 OFFCURVE",
"41 172 OFFCURVE",
"41 113 CURVE SMOOTH",
"41 27 OFFCURVE",
"150 6 OFFCURVE",
"219 3 CURVE SMOOTH",
"339 -3 OFFCURVE",
"392 -48 OFFCURVE",
"392 -108 CURVE SMOOTH",
"392 -168 OFFCURVE",
"348 -240 OFFCURVE",
"212 -240 CURVE SMOOTH",
"49 -240 OFFCURVE",
"19 -162 OFFCURVE",
"19 -124 CURVE SMOOTH",
"19 -98 OFFCURVE",
"53 -54 OFFCURVE",
"53 -41 CURVE SMOOTH",
"53 -29 OFFCURVE",
"42 -19 OFFCURVE",
"23 -19 CURVE SMOOTH",
"8 -19 OFFCURVE",
"-31 -32 OFFCURVE",
"-31 -86 CURVE SMOOTH",
"-31 -207 OFFCURVE",
"77 -262 OFFCURVE",
"212 -262 CURVE SMOOTH",
"312 -262 OFFCURVE",
"430 -208 OFFCURVE",
"430 -80 CURVE SMOOTH",
"430 33 OFFCURVE",
"335 62 OFFCURVE",
"223 69 CURVE SMOOTH",
"128 75 OFFCURVE",
"85 95 OFFCURVE",
"85 129 CURVE SMOOTH",
"85 157 OFFCURVE",
"112 170 OFFCURVE",
"145 170 CURVE SMOOTH",
"181 170 OFFCURVE",
"213 165 OFFCURVE",
"247 162 CURVE"
);
},
{
closed = 1;
nodes = (
"444 398 OFFCURVE",
"460 421 OFFCURVE",
"477 421 CURVE SMOOTH",
"499 421 OFFCURVE",
"490 381 OFFCURVE",
"527 381 CURVE SMOOTH",
"550 381 OFFCURVE",
"560 400 OFFCURVE",
"560 415 CURVE SMOOTH",
"560 442 OFFCURVE",
"538 454 OFFCURVE",
"515 454 CURVE SMOOTH",
"480 454 OFFCURVE",
"445 433 OFFCURVE",
"423 411 CURVE SMOOTH",
"409 397 LINE",
"423 381 LINE"
);
}
);
width = 503;
},
{
anchors = (
{
name = bottom;
position = "{201, 0}";
},
{
name = top;
position = "{201, 440}";
}
);
associatedMasterId = "9372F035-DA38-4B54-966C-CEBA9B53DD02";
backgroundImage = {
crop = "{{99.169, 8.386}, {46.161, 76.166}}";
imagePath = "../../../../1878 Limprimerie Berger Levrault Notice historique/Italique/Reglu.jpg";
locked = "1";
transform = "{12.998, 0, 0, 12.998, -1330, -389}";
};
layerId = "0187DE2C-B246-47DB-A914-86C2081FF981";
name = "Oct 20 17, 11:35";
paths = (
{
closed = 1;
nodes = (
"409 454 OFFCURVE",
"373 447 OFFCURVE",
"353 426 CURVE",
"323 444 OFFCURVE",
"287 454 OFFCURVE",
"247 454 CURVE SMOOTH",
"143 454 OFFCURVE",
"64 384 OFFCURVE",
"62 293 CURVE SMOOTH",
"61 233 OFFCURVE",
"98 182 OFFCURVE",
"152 154 CURVE",
"99 139 OFFCURVE",
"47 98 OFFCURVE",
"47 46 CURVE SMOOTH",
"47 -28 OFFCURVE",
"129 -44 OFFCURVE",
"248 -44 CURVE SMOOTH",
"382 -44 OFFCURVE",
"437 -72 OFFCURVE",
"437 -129 CURVE SMOOTH",
"437 -219 OFFCURVE",
"343 -262 OFFCURVE",
"247 -262 CURVE SMOOTH",
"157 -262 OFFCURVE",
"80 -240 OFFCURVE",
"80 -156 CURVE SMOOTH",
"80 -136 OFFCURVE",
"93 -127 OFFCURVE",
"93 -107 CURVE SMOOTH",
"93 -82 OFFCURVE",
"75 -61 OFFCURVE",
"50 -61 CURVE SMOOTH",
"23 -61 OFFCURVE",
"5 -99 OFFCURVE",
"5 -130 CURVE SMOOTH",
"5 -256 OFFCURVE",
"122 -295 OFFCURVE",
"247 -295 CURVE SMOOTH",
"364 -295 OFFCURVE",
"483 -231 OFFCURVE",
"483 -116 CURVE SMOOTH",
"483 7 OFFCURVE",
"382 36 OFFCURVE",
"247 36 CURVE SMOOTH",
"213 36 LINE SMOOTH",
"166 36 OFFCURVE",
"109 40 OFFCURVE",
"107 86 CURVE SMOOTH",
"106 116 OFFCURVE",
"145 134 OFFCURVE",
"182 142 CURVE",
"202 136 OFFCURVE",
"224 132 OFFCURVE",
"247 132 CURVE SMOOTH",
"351 132 OFFCURVE",
"432 203 OFFCURVE",
"432 293 CURVE SMOOTH",
"432 339 OFFCURVE",
"412 379 OFFCURVE",
"378 408 CURVE",
"392 422 OFFCURVE",
"413 429 OFFCURVE",
"429 429 CURVE SMOOTH",
"442 429 OFFCURVE",
"453 426 OFFCURVE",
"454 417 CURVE SMOOTH",
"455 410 OFFCURVE",
"451 404 OFFCURVE",
"451 396 CURVE SMOOTH",
"451 368 OFFCURVE",
"471 348 OFFCURVE",
"499 347 CURVE SMOOTH",
"520 346 OFFCURVE",
"542 362 OFFCURVE",
"542 389 CURVE SMOOTH",
"542 437 OFFCURVE",
"490 454 OFFCURVE",
"437 454 CURVE SMOOTH"
);
},
{
closed = 1;
nodes = (
"171 157 OFFCURVE",
"142 216 OFFCURVE",
"142 293 CURVE SMOOTH",
"142 370 OFFCURVE",
"171 429 OFFCURVE",
"247 429 CURVE SMOOTH",
"323 429 OFFCURVE",
"352 370 OFFCURVE",
"352 293 CURVE SMOOTH",
"352 216 OFFCURVE",
"323 157 OFFCURVE",
"247 157 CURVE SMOOTH"
);
}
);
width = 503;
}
);
unicode = 0067;
},
{
glyphname = jdotless;
lastChange = "2017-10-19 15:01:19 +0000";
layers = (
{
anchors = (
{
name = bottom;
position = "{72, 0}";
},
{
name = top;
position = "{218, 440}";
}
);
background = {
paths = (
{
closed = 0;
nodes = (
"-33 -177 LINE SMOOTH",
"-59 -249 OFFCURVE",
"-95 -268 OFFCURVE",
"-121 -268 CURVE SMOOTH",
"-147 -268 OFFCURVE",
"-156 -255 OFFCURVE",
"-156 -217 CURVE SMOOTH",
"-156 -188 OFFCURVE",
"-166 -167 OFFCURVE",
"-197 -167 CURVE SMOOTH",
"-230 -167 OFFCURVE",
"-243 -193 OFFCURVE",
"-243 -220 CURVE SMOOTH",
"-243 -255 OFFCURVE",
"-212 -290 OFFCURVE",
"-139 -290 CURVE SMOOTH",
"-53 -290 OFFCURVE",
"12 -251 OFFCURVE",
"60 -118 CURVE SMOOTH"
);
}
);
};
layerId = "9372F035-DA38-4B54-966C-CEBA9B53DD02";
paths = (
{
closed = 1;
nodes = (
"253 440 LINE",
"187 440 LINE",
"-15 -131 LINE SMOOTH",
"-45 -214 OFFCURVE",
"-75 -268 OFFCURVE",
"-110 -268 CURVE SMOOTH",
"-154 -268 OFFCURVE",
"-131 -174 OFFCURVE",
"-190 -174 CURVE SMOOTH",
"-218 -174 OFFCURVE",
"-239 -194 OFFCURVE",
"-239 -221 CURVE SMOOTH",
"-239 -255 OFFCURVE",
"-210 -290 OFFCURVE",
"-128 -290 CURVE SMOOTH",
"-41 -290 OFFCURVE",
"10 -251 OFFCURVE",
"50 -136 CURVE SMOOTH"
);
},
{
closed = 1;
nodes = (
"217 342 LINE",
"254 443 LINE",
"92 440 LINE",
"85 416 LINE",
"135 416 OFFCURVE",
"184 423 OFFCURVE",
"149 331 CURVE"
);
}
);
width = 304;
}
);
unicode = 0237;
},
{
glyphname = k;
lastChange = "2017-10-20 10:08:07 +0000";
layers = (
{
associatedMasterId = "9372F035-DA38-4B54-966C-CEBA9B53DD02";
background = {
components = (
{
name = u;
transform = "{1, 0, 0, 1, -6, 0}";
}
);
};
components = (
{
locked = 1;
name = "_part-ascendante";
transform = "{1, 0, 0, 1, -36, 0}";
}
);
layerId = "738B2E8F-9735-44A6-AF4F-B7260322025B";
name = "Oct 16 17, 18:25";
paths = (
{
closed = 1;
nodes = (
"190 252 LINE",
"350 379 LINE SMOOTH",
"375 399 OFFCURVE",
"394 414 OFFCURVE",
"404 414 CURVE SMOOTH",
"419 414 OFFCURVE",
"423 386 OFFCURVE",
"456 386 CURVE SMOOTH",
"479 386 OFFCURVE",
"496 400 OFFCURVE",
"496 420 CURVE SMOOTH",
"496 440 OFFCURVE",
"479 454 OFFCURVE",
"450 454 CURVE SMOOTH",
"413 454 OFFCURVE",
"384 431 OFFCURVE",
"333 392 CURVE SMOOTH",
"190 283 LINE"
);
},
{
closed = 1;
nodes = (
"447 59 LINE",
"412 29 OFFCURVE",
"398 19 OFFCURVE",
"377 19 CURVE SMOOTH",
"354 19 OFFCURVE",
"335 53 OFFCURVE",
"311 114 CURVE SMOOTH",
"231 315 LINE",
"176 274 LINE",
"244 111 LINE SMOOTH",
"274 39 OFFCURVE",
"288 -14 OFFCURVE",
"347 -14 CURVE SMOOTH",
"384 -14 OFFCURVE",
"420 -1 OFFCURVE",
"460 41 CURVE"
);
}
);
width = 497;
},
{
associatedMasterId = "9372F035-DA38-4B54-966C-CEBA9B53DD02";
background = {
components = (
{
name = u;
transform = "{1, 0, 0, 1, -26, 0}";
}
);
};
components = (
{
name = "_part-ascendante";
transform = "{1, 0, 0, 1, -28, 0}";
}
);
layerId = "B0DF20A3-A58D-41DC-BD19-99C78F7603B6";
name = "Oct 19 17, 12:01";
paths = (
{
closed = 1;
nodes = (
"149 192 LINE",
"368 379 LINE SMOOTH",
"391 400 OFFCURVE",
"409 414 OFFCURVE",
"417 414 CURVE SMOOTH",
"437 414 OFFCURVE",
"441 379 OFFCURVE",
"477 379 CURVE SMOOTH",
"501 379 OFFCURVE",
"521 396 OFFCURVE",
"521 420 CURVE SMOOTH",
"521 440 OFFCURVE",
"502 454 OFFCURVE",
"468 454 CURVE SMOOTH",
"431 454 OFFCURVE",
"393 429 OFFCURVE",
"351 392 CURVE SMOOTH",
"165 237 LINE"
);
},
{
closed = 1;
nodes = (
"474 70 LINE",
"429 32 OFFCURVE",
"413 19 OFFCURVE",
"400 19 CURVE SMOOTH",
"368 19 OFFCURVE",
"354 68 OFFCURVE",
"336 114 CURVE SMOOTH",
"260 313 LINE",
"208 264 LINE",
"266 111 LINE SMOOTH",
"296 33 OFFCURVE",
"305 -14 OFFCURVE",
"369 -14 CURVE SMOOTH",
"406 -14 OFFCURVE",
"435 -1 OFFCURVE",
"488 52 CURVE"
);
}
);
width = 515;
},
{
anchors = (
{
name = bottom;
position = "{187, 0}";
},
{
name = top;
position = "{347, 440}";
}
);
associatedMasterId = "9372F035-DA38-4B54-966C-CEBA9B53DD02";
background = {
components = (
{
name = r;
transform = "{1, 0, 0, 1, 102, 0}";
}
);
};
components = (
{
name = "_part-ascendante";
transform = "{1, 0, 0, 1, -26, 0}";
}
);
layerId = "8F1883E4-1F8F-404F-82B9-DB7BF63C4716";
name = "Oct 20 17, 10:59";
paths = (
{
closed = 1;
nodes = (
"151 192 LINE",
"370 379 LINE SMOOTH",
"393 400 OFFCURVE",
"411 414 OFFCURVE",
"425 414 CURVE SMOOTH",
"452 414 OFFCURVE",
"448 365 OFFCURVE",
"484 365 CURVE SMOOTH",
"503 365 OFFCURVE",
"523 381 OFFCURVE",
"523 409 CURVE SMOOTH",
"523 440 OFFCURVE",
"497 454 OFFCURVE",
"470 454 CURVE SMOOTH",
"433 454 OFFCURVE",
"395 429 OFFCURVE",
"353 392 CURVE SMOOTH",
"167 237 LINE"
);
},
{
closed = 1;
nodes = (
"476 70 LINE",
"431 32 OFFCURVE",
"415 19 OFFCURVE",
"402 19 CURVE SMOOTH",
"370 19 OFFCURVE",
"356 68 OFFCURVE",
"338 114 CURVE SMOOTH",
"262 313 LINE",
"210 264 LINE",
"268 111 LINE SMOOTH",
"298 33 OFFCURVE",
"307 -14 OFFCURVE",
"371 -14 CURVE SMOOTH",
"408 -14 OFFCURVE",
"437 -1 OFFCURVE",
"490 52 CURVE"
);
}
);
width = 533;
},
{
anchors = (
{
name = bottom;
position = "{187, 0}";
},
{
name = top;
position = "{347, 440}";
}
);
associatedMasterId = "9372F035-DA38-4B54-966C-CEBA9B53DD02";
components = (
{
name = "_part-ascendante";
transform = "{1, 0, 0, 1, -26, 0}";
}
);
layerId = "0065B0EF-53F8-4F2F-A984-DEDD11265D50";
name = "Oct 20 17, 11:07";
paths = (
{
closed = 1;
nodes = (
"151 192 LINE",
"370 379 LINE SMOOTH",
"393 400 OFFCURVE",
"411 414 OFFCURVE",
"425 414 CURVE SMOOTH",
"452 414 OFFCURVE",
"448 365 OFFCURVE",
"484 365 CURVE SMOOTH",
"503 365 OFFCURVE",
"523 381 OFFCURVE",
"523 409 CURVE SMOOTH",
"523 440 OFFCURVE",
"497 454 OFFCURVE",
"470 454 CURVE SMOOTH",
"433 454 OFFCURVE",
"395 429 OFFCURVE",
"353 392 CURVE SMOOTH",
"167 237 LINE"
);
},
{
closed = 1;
nodes = (
"476 70 LINE",
"431 32 OFFCURVE",
"415 19 OFFCURVE",
"402 19 CURVE SMOOTH",
"370 19 OFFCURVE",
"356 68 OFFCURVE",
"338 114 CURVE SMOOTH",
"262 313 LINE",
"210 264 LINE",
"268 111 LINE SMOOTH",
"298 33 OFFCURVE",
"307 -14 OFFCURVE",
"371 -14 CURVE SMOOTH",
"408 -14 OFFCURVE",
"437 -1 OFFCURVE",
"490 52 CURVE"
);
}
);
width = 533;
},
{
anchors = (
{
name = bottom;
position = "{187, 0}";
},
{
name = top;
position = "{347, 440}";
}
);
associatedMasterId = "9372F035-DA38-4B54-966C-CEBA9B53DD02";
components = (
{
name = "_part-ascendante";
transform = "{1, 0, 0, 1, -26, 0}";
}
);
layerId = "8B69AE66-2728-40F3-A4EC-2C40F63E1F2E";
name = "Oct 20 17, 11:33";
paths = (
{
closed = 1;
nodes = (
"174 270 LINE",
"264 270 OFFCURVE",
"294 289 OFFCURVE",
"329 340 CURVE SMOOTH",
"344 362 LINE SMOOTH",
"374 406 OFFCURVE",
"391 414 OFFCURVE",
"403 414 CURVE SMOOTH",
"420 414 OFFCURVE",
"423 402 OFFCURVE",
"423 387 CURVE SMOOTH",
"423 365 OFFCURVE",
"439 357 OFFCURVE",
"454 357 CURVE SMOOTH",
"480 357 OFFCURVE",
"491 382 OFFCURVE",
"491 407 CURVE SMOOTH",
"491 428 OFFCURVE",
"478 454 OFFCURVE",
"439 454 CURVE SMOOTH",
"411 454 OFFCURVE",
"375 438 OFFCURVE",
"331 375 CURVE SMOOTH",
"317 355 LINE SMOOTH",
"281 303 OFFCURVE",
"245 284 OFFCURVE",
"174 284 CURVE"
);
},
{
closed = 1;
nodes = (
"449 84 LINE",
"422 39 OFFCURVE",
"392 19 OFFCURVE",
"375 19 CURVE SMOOTH",
"343 19 OFFCURVE",
"347 64 OFFCURVE",
"346 114 CURVE SMOOTH",
"345 166 LINE SMOOTH",
"343 261 OFFCURVE",
"279 284 OFFCURVE",
"176 284 CURVE",
"174 269 LINE",
"252 269 OFFCURVE",
"278 233 OFFCURVE",
"278 159 CURVE SMOOTH",
"278 111 LINE SMOOTH",
"278 27 OFFCURVE",
"289 -14 OFFCURVE",
"345 -14 CURVE SMOOTH",
"383 -14 OFFCURVE",
"431 9 OFFCURVE",
"466 72 CURVE"
);
}
);
width = 533;
},
{
anchors = (
{
name = bottom;
position = "{187, 0}";
},
{
name = top;
position = "{347, 440}";
}
);
background = {
paths = (
{
closed = 0;
nodes = (
"339 348 LINE SMOOTH",
"357 383 OFFCURVE",
"369 408 OFFCURVE",
"394 405 CURVE SMOOTH",
"429 401 OFFCURVE",
"445 359 OFFCURVE",
"483 354 CURVE SMOOTH",
"508 351 OFFCURVE",
"527 363 OFFCURVE",
"531 386 CURVE SMOOTH",
"537 419 OFFCURVE",
"507 446 OFFCURVE",
"468 452 CURVE SMOOTH",
"401 462 OFFCURVE",
"349 419 OFFCURVE",
"288 326 CURVE SMOOTH"
);
}
);
};
components = (
{
name = "_part-ascendante";
transform = "{1, 0, 0, 1, -26, 0}";
}
);
layerId = "9372F035-DA38-4B54-966C-CEBA9B53DD02";
paths = (
{
closed = 1;
nodes = (
"156 270 LINE",
"246 270 OFFCURVE",
"268 295 OFFCURVE",
"311 340 CURVE SMOOTH",
"352 383 LINE SMOOTH",
"370 403 OFFCURVE",
"382 414 OFFCURVE",
"396 414 CURVE SMOOTH",
"401 414 OFFCURVE",
"405 412 OFFCURVE",
"407 409 CURVE SMOOTH",
"411 404 OFFCURVE",
"412 396 OFFCURVE",
"412 387 CURVE SMOOTH",
"412 365 OFFCURVE",
"431 357 OFFCURVE",
"448 357 CURVE SMOOTH",
"474 357 OFFCURVE",
"485 382 OFFCURVE",
"485 407 CURVE SMOOTH",
"485 428 OFFCURVE",
"472 454 OFFCURVE",
"436 454 CURVE SMOOTH",
"397 454 OFFCURVE",
"373 433 OFFCURVE",
"336 394 CURVE SMOOTH",
"299 355 LINE SMOOTH",
"256 310 OFFCURVE",
"227 284 OFFCURVE",
"156 284 CURVE"
);
},
{
closed = 1;
nodes = (
"449 84 LINE",
"422 39 OFFCURVE",
"392 19 OFFCURVE",
"375 19 CURVE SMOOTH",
"343 19 OFFCURVE",
"347 64 OFFCURVE",
"346 114 CURVE SMOOTH",
"345 166 LINE SMOOTH",
"343 261 OFFCURVE",
"279 284 OFFCURVE",
"176 284 CURVE",
"174 269 LINE",
"252 269 OFFCURVE",
"278 233 OFFCURVE",
"278 159 CURVE SMOOTH",
"278 111 LINE SMOOTH",
"278 27 OFFCURVE",
"289 -14 OFFCURVE",
"345 -14 CURVE SMOOTH",
"383 -14 OFFCURVE",
"431 9 OFFCURVE",
"466 72 CURVE"
);
}
);
visible = 1;
width = 503;
}
);
leftMetricsKey = h;
unicode = 006B;
},
{
glyphname = l;
lastChange = "2017-10-19 15:54:31 +0000";
layers = (
{
anchors = (
{
name = bottom;
position = "{69, 0}";
},
{
name = center;
position = "{149, 220}";
},
{
name = top;
position = "{229, 440}";
},
{
name = topright;
position = "{358, 440}";
}
);
backgroundImage = {
crop = "{{143.791, 8.386}, {30.774, 76.166}}";
imagePath = "../../../../1878 Limprimerie Berger Levrault Notice historique/Italique/Reglu.jpg";
locked = "1";
transform = "{12.998, 0, 4.73089, 12.998, -2279, -389}";
};
components = (
{
name = "_part-attaque-asc";
transform = "{1, 0, 0, 1, -18, 0}";
},
{
name = "_part-jambage-2";
transform = "{1, 0, 0, 1, -271, 0}";
}
);
guideLines = (
{
angle = 70;
position = "{261, 539}";
},
{
angle = 70;
position = "{191, 539}";
}
);
layerId = "9372F035-DA38-4B54-966C-CEBA9B53DD02";
paths = (
{
closed = 1;
nodes = (
"351 702 LINE",
"285 702 LINE",
"74 131 LINE",
"134 99 LINE"
);
}
);
width = 298;
},
{
associatedMasterId = "9372F035-DA38-4B54-966C-CEBA9B53DD02";
backgroundImage = {
crop = "{{143.791, 8.386}, {30.774, 76.166}}";
imagePath = "../../../../1878 Limprimerie Berger Levrault Notice historique/Italique/Reglu.jpg";
locked = "1";
transform = "{12.998, 0, 4.73089, 12.998, -2279.003, -389}";
};
components = (
{
name = "_part-sortie-2";
transform = "{1, 0, 0, 1, -276, 0}";
},
{
name = "_part-attaque-asc";
transform = "{1, 0, 0, 1, -23, 0}";
}
);
guideLines = (
{
angle = 70;
position = "{226, 539}";
},
{
angle = 70;
position = "{156, 539}";
}
);
layerId = "7B284D90-A218-4A28-A2FB-59FCA6D09C8E";
name = "Oct 19 17, 11:50";
paths = (
{
closed = 1;
nodes = (
"346 702 LINE",
"280 702 LINE",
"69 131 LINE",
"129 99 LINE"
);
}
);
width = 310;
}
);
leftMetricsKey = "=b+15";
rightMetricsKey = "=i+3";
unicode = 006C;
},
{
glyphname = m;
lastChange = "2017-10-19 15:01:19 +0000";
layers = (
{
anchors = (
{
name = bottom;
position = "{323, 0}";
},
{
name = top;
position = "{483, 440}";
}
);
background = {
components = (
{
name = n;
transform = "{1, 0, 0, 1, -8, 0}";
}
);
};
backgroundImage = {
crop = "{{1110.303, 1327.294}, {288.39, 360.104}}";
imagePath = "../../../../1878 Limprimerie Berger Levrault Notice historique/Italique/jamais.JPG";
locked = "1";
transform = "{2.77402, 0, 1.00063, 2.7492, -4756, -3929}";
};
components = (
{
name = "_part-fut";
transform = "{1, 0, 0, 1, 10, 0}";
}
);
layerId = "9372F035-DA38-4B54-966C-CEBA9B53DD02";
paths = (
{
closed = 1;
nodes = (
"359 0 LINE",
"479 331 LINE SMOOTH",
"494 395 OFFCURVE",
"491 454 OFFCURVE",
"403 454 CURVE SMOOTH",
"285 454 OFFCURVE",
"199 323 OFFCURVE",
"175 255 CURVE",
"198 257 LINE",
"223 329 OFFCURVE",
"313 429 OFFCURVE",
"384 429 CURVE SMOOTH",
"413 429 OFFCURVE",
"434 408 OFFCURVE",
"415 356 CURVE SMOOTH",
"285 0 LINE"
);
},
{
closed = 1;
nodes = (
"710 55 OFFCURVE",
"679 19 OFFCURVE",
"656 19 CURVE SMOOTH",
"631 19 OFFCURVE",
"636 60 OFFCURVE",
"650 103 CURVE SMOOTH",
"733 331 LINE SMOOTH",
"756 393 OFFCURVE",
"745 454 OFFCURVE",
"657 454 CURVE SMOOTH",
"539 454 OFFCURVE",
"453 323 OFFCURVE",
"429 255 CURVE",
"452 257 LINE",
"477 329 OFFCURVE",
"567 429 OFFCURVE",
"638 429 CURVE SMOOTH",
"667 429 OFFCURVE",
"688 409 OFFCURVE",
"669 356 CURVE SMOOTH",
"588 135 LINE SMOOTH",
"557 49 OFFCURVE",
"550 -14 OFFCURVE",
"635 -14 CURVE SMOOTH",
"680 -14 OFFCURVE",
"720 31 OFFCURVE",
"745 72 CURVE",
"727 84 LINE"
);
}
);
width = 806;
}
);
leftMetricsKey = n;
rightMetricsKey = n;
unicode = 006D;
},
{
glyphname = o;
lastChange = "2017-10-20 11:52:28 +0000";
layers = (
{
anchors = (
{
name = bottom;
position = "{184, 0}";
},
{
name = center;
position = "{264, 220}";
},
{
name = ogonek;
position = "{395, 10}";
},
{
name = top;
position = "{334, 440}";
},
{
name = topright;
position = "{588, 440}";
}
);
backgroundImage = {
crop = "{{60.011, 7.363}, {39.585, 78.379}}";
imagePath = "../../../../1878 Limprimerie Berger Levrault Notice historique/Italique/reotypie.JPG";
locked = "1";
transform = "{12.92737, 0, 18.82071, 12.92737, -2385, -387}";
};
layerId = "9372F035-DA38-4B54-966C-CEBA9B53DD02";
paths = (
{
closed = 1;
nodes = (
"346 -14 OFFCURVE",
"484 124 OFFCURVE",
"484 278 CURVE SMOOTH",
"484 369 OFFCURVE",
"435 454 OFFCURVE",
"325 454 CURVE SMOOTH",
"179 454 OFFCURVE",
"46 316 OFFCURVE",
"46 169 CURVE SMOOTH",
"46 74 OFFCURVE",
"98 -14 OFFCURVE",
"205 -14 CURVE SMOOTH"
);
},
{
closed = 1;
nodes = (
"161 8 OFFCURVE",
"116 40 OFFCURVE",
"116 113 CURVE SMOOTH",
"116 245 OFFCURVE",
"208 432 OFFCURVE",
"324 432 CURVE SMOOTH",
"369 432 OFFCURVE",
"414 404 OFFCURVE",
"414 331 CURVE SMOOTH",
"414 209 OFFCURVE",
"327 8 OFFCURVE",
"206 8 CURVE SMOOTH"
);
}
);
width = 528;
}
);
unicode = 006F;
},
{
glyphname = p;
lastChange = "2017-10-19 15:04:39 +0000";
layers = (
{
anchors = (
{
name = bottom;
position = "{184, 0}";
},
{
name = top;
position = "{344, 440}";
}
);
backgroundImage = {
crop = "{{146.073, 7.363}, {47.503, 78.38}}";
imagePath = "../../../../1878 Limprimerie Berger Levrault Notice historique/Italique/reotypie.JPG";
locked = "1";
transform = "{12.63069, 0, 4.5972, 12.63069, -2357, -373}";
};
guideLines = (
{
angle = 70;
position = "{214, 545}";
}
);
layerId = "9372F035-DA38-4B54-966C-CEBA9B53DD02";
paths = (
{
closed = 1;
nodes = (
"67 -280 LINE",
"74 -256 LINE",
"3 -256 LINE",
"141 125 LINE",
"167 240 LINE",
"202 342 LINE",
"235 443 LINE",
"97 440 LINE",
"89 416 LINE",
"138 416 OFFCURVE",
"177 422 OFFCURVE",
"149 345 CURVE SMOOTH",
"-46 -189 LINE SMOOTH",
"-68 -248 OFFCURVE",
"-78 -256 OFFCURVE",
"-111 -256 CURVE SMOOTH",
"-131 -256 LINE",
"-139 -280 LINE"
);
},
{
closed = 1;
nodes = (
"156 10 OFFCURVE",
"124 89 OFFCURVE",
"171 221 CURVE SMOOTH",
"190 274 LINE SMOOTH",
"221 359 OFFCURVE",
"273 430 OFFCURVE",
"338 430 CURVE SMOOTH",
"378 430 OFFCURVE",
"412 397 OFFCURVE",
"412 326 CURVE SMOOTH",
"412 184 OFFCURVE",
"326 10 OFFCURVE",
"230 10 CURVE SMOOTH"
);
},
{
closed = 1;
nodes = (
"355 -14 OFFCURVE",
"484 122 OFFCURVE",
"484 288 CURVE SMOOTH",
"484 385 OFFCURVE",
"434 454 OFFCURVE",
"343 454 CURVE SMOOTH",
"299 454 OFFCURVE",
"238 432 OFFCURVE",
"191 337 CURVE",
"140 196 LINE",
"93 70 OFFCURVE",
"141 -14 OFFCURVE",
"231 -14 CURVE SMOOTH"
);
}
);
width = 538;
},
{
associatedMasterId = "9372F035-DA38-4B54-966C-CEBA9B53DD02";
backgroundImage = {
crop = "{{146.073, 7.363}, {47.503, 78.38}}";
imagePath = "../../../../1878 Limprimerie Berger Levrault Notice historique/Italique/reotypie.JPG";
locked = "1";
transform = "{12.63069, 0, 0, 12.63069, -1950, -373}";
};
guideLines = (
{
angle = 70;
position = "{247, 545}";
}
);
layerId = "4DBAC77B-C555-4C53-A4F4-37F0C3FA7B6B";
name = "Oct 16 17, 14:17";
paths = (
{
closed = 1;
nodes = (
"266 254 LINE",
"241 186 LINE SMOOTH",
"206 89 OFFCURVE",
"243 8 OFFCURVE",
"313 8 CURVE SMOOTH",
"409 8 OFFCURVE",
"495 184 OFFCURVE",
"495 326 CURVE SMOOTH",
"495 397 OFFCURVE",
"461 432 OFFCURVE",
"421 432 CURVE SMOOTH",
"356 432 OFFCURVE",
"304 359 OFFCURVE",
"288 316 CURVE SMOOTH"
);
},
{
closed = 1;
nodes = (
"281 354 LINE",
"321 426 OFFCURVE",
"374 454 OFFCURVE",
"426 454 CURVE SMOOTH",
"517 454 OFFCURVE",
"567 369 OFFCURVE",
"567 274 CURVE SMOOTH",
"567 122 OFFCURVE",
"438 -14 OFFCURVE",
"314 -14 CURVE SMOOTH",
"224 -14 OFFCURVE",
"176 70 OFFCURVE",
"217 189 CURVE"
);
},
{
closed = 1;
nodes = (
"227 340 LINE",
"11 -256 LINE",
"82 -256 LINE",
"75 -280 LINE",
"-131 -280 LINE",
"-123 -256 LINE",
"-103 -256 LINE SMOOTH",
"-70 -256 OFFCURVE",
"-60 -248 OFFCURVE",
"-38 -189 CURVE SMOOTH",
"157 345 LINE SMOOTH",
"185 422 OFFCURVE",
"146 416 OFFCURVE",
"97 416 CURVE",
"105 440 LINE",
"253 443 LINE",
"223 342 LINE"
);
}
);
width = 543;
}
);
leftMetricsKey = "=i+5";
rightMetricsKey = "=o+10";
unicode = 0070;
},
{
glyphname = q;
lastChange = "2017-10-19 15:01:19 +0000";
layers = (
{
anchors = (
{
name = bottom;
position = "{197, 0}";
},
{
name = top;
position = "{357, 440}";
}
);
background = {
components = (
{
name = u;
transform = "{1, 0, 0, 1, -10, 0}";
}
);
};
backgroundImage = {
crop = "{{1307.132, 1323.708}, {196.25, 359.131}}";
imagePath = "../../../../1878 Limprimerie Berger Levrault Notice historique/Italique/ilboquet.JPG";
locked = "1";
transform = "{3.05733, 0, 1.00334, 2.75665, -5701, -3929}";
};
components = (
{
name = "_part-adq";
transform = "{1, 0, 0, 1, -12, 0}";
}
);
layerId = "9372F035-DA38-4B54-966C-CEBA9B53DD02";
paths = (
{
closed = 1;
nodes = (
"330 -280 LINE",
"337 -256 LINE",
"276 -256 LINE",
"526 440 LINE",
"456 440 LINE",
"418 336 LINE",
"390 223 LINE",
"336 108 LINE",
"228 -189 LINE SMOOTH",
"207 -248 OFFCURVE",
"195 -256 OFFCURVE",
"162 -256 CURVE SMOOTH",
"122 -256 LINE",
"114 -280 LINE"
);
}
);
width = 553;
}
);
leftMetricsKey = "=o+5";
unicode = 0071;
},
{
glyphname = r;
lastChange = "2017-10-20 09:31:49 +0000";
layers = (
{
anchors = (
{
name = bottom;
position = "{127, 0}";
},
{
name = top;
position = "{287, 440}";
}
);
backgroundImage = {
crop = "{{0, 7.363}, {31.351, 78.379}}";
imagePath = "../../../../1878 Limprimerie Berger Levrault Notice historique/Italique/reotypie.JPG";
locked = "1";
transform = "{12.89112, 0, 9.38397, 12.89112, -782, -381}";
};
guideLines = (
{
angle = 70;
position = "{212, 545}";
},
{
angle = 70;
position = "{281, 539}";
},
{
position = "{-65, 430}";
}
);
layerId = "9372F035-DA38-4B54-966C-CEBA9B53DD02";
paths = (
{
closed = 1;
nodes = (
"151 127 LINE",
"165 166 LINE SMOOTH",
"193 242 OFFCURVE",
"220 298 OFFCURVE",
"245 338 CURVE SMOOTH",
"279 392 OFFCURVE",
"307 415 OFFCURVE",
"333 415 CURVE SMOOTH",
"349 415 OFFCURVE",
"356 404 OFFCURVE",
"363 391 CURVE SMOOTH",
"371 377 OFFCURVE",
"380 361 OFFCURVE",
"402 361 CURVE SMOOTH",
"430 361 OFFCURVE",
"442 383 OFFCURVE",
"442 404 CURVE SMOOTH",
"442 445 OFFCURVE",
"400 454 OFFCURVE",
"373 454 CURVE SMOOTH",
"240 454 OFFCURVE",
"169 221 OFFCURVE",
"123 114 CURVE"
);
},
{
closed = 1;
nodes = (
"107 440 LINE",
"99 416 LINE",
"148 416 OFFCURVE",
"185 421 OFFCURVE",
"157 344 CURVE SMOOTH",
"33 0 LINE",
"105 0 LINE",
"200 262 LINE",
"193 271 LINE",
"254 443 LINE"
);
}
);
width = 414;
},
{
associatedMasterId = "9372F035-DA38-4B54-966C-CEBA9B53DD02";
backgroundImage = {
crop = "{{0, 7.363}, {31.351, 78.379}}";
imagePath = "../../../../1878 Limprimerie Berger Levrault Notice historique/Italique/reotypie.JPG";
locked = "1";
transform = "{12.89112, 0, 9.38397, 12.89112, -779.183, -381}";
};
components = (
{
name = "_part-fut";
transform = "{1, 0, 0, 1, 13, 0}";
}
);
guideLines = (
{
angle = 70;
position = "{215, 545}";
},
{
angle = 70;
position = "{284, 539}";
},
{
position = "{-62, 430}";
}
);
layerId = "AA52557A-3DF8-436C-944E-9A178B10061F";
name = "Oct 19 17, 12:03";
paths = (
{
closed = 1;
nodes = (
"201 257 LINE",
"235 351 OFFCURVE",
"301 415 OFFCURVE",
"328 415 CURVE SMOOTH",
"352 415 OFFCURVE",
"341 362 OFFCURVE",
"379 362 CURVE SMOOTH",
"401 362 OFFCURVE",
"421 381 OFFCURVE",
"421 408 CURVE SMOOTH",
"421 442 OFFCURVE",
"394 454 OFFCURVE",
"363 454 CURVE SMOOTH",
"272 454 OFFCURVE",
"200 310 OFFCURVE",
"176 244 CURVE"
);
}
);
width = 399;
},
{
associatedMasterId = "9372F035-DA38-4B54-966C-CEBA9B53DD02";
backgroundImage = {
crop = "{{0, 7.363}, {31.351, 78.379}}";
imagePath = "../../../../1878 Limprimerie Berger Levrault Notice historique/Italique/reotypie.JPG";
locked = "1";
transform = "{12.89112, 0, 9.38397, 12.89112, -776, -381}";
};
guideLines = (
{
angle = 70;
position = "{218, 545}";
},
{
angle = 70;
position = "{287, 539}";
},
{
position = "{-59, 430}";
}
);
layerId = "6B06B1D7-4C2E-44C9-95F0-B52639587727";
name = "Oct 19 17, 15:09";
paths = (
{
closed = 1;
nodes = (
"157 127 LINE",
"171 166 LINE SMOOTH",
"199 242 OFFCURVE",
"226 298 OFFCURVE",
"251 338 CURVE SMOOTH",
"285 392 OFFCURVE",
"313 415 OFFCURVE",
"339 415 CURVE SMOOTH",
"373 415 OFFCURVE",
"367 366 OFFCURVE",
"404 366 CURVE SMOOTH",
"429 366 OFFCURVE",
"443 386 OFFCURVE",
"443 407 CURVE SMOOTH",
"443 445 OFFCURVE",
"404 454 OFFCURVE",
"379 454 CURVE SMOOTH",
"246 454 OFFCURVE",
"175 221 OFFCURVE",
"129 114 CURVE"
);
},
{
closed = 1;
nodes = (
"113 440 LINE",
"105 416 LINE",
"154 416 OFFCURVE",
"191 421 OFFCURVE",
"163 344 CURVE SMOOTH",
"39 0 LINE",
"111 0 LINE",
"206 262 LINE",
"199 271 LINE",
"260 443 LINE"
);
}
);
visible = 1;
width = 400;
}
);
leftMetricsKey = n;
unicode = 0072;
},
{
glyphname = s;
lastChange = "2017-10-19 15:01:19 +0000";
layers = (
{
anchors = (
{
name = bottom;
position = "{112, 0}";
},
{
name = top;
position = "{272, 440}";
}
);
background = {
paths = (
{
closed = 0;
nodes = (
"115 29 LINE SMOOTH",
"61 43 OFFCURVE",
"88 77 OFFCURVE",
"93 98 CURVE SMOOTH",
"98 120 OFFCURVE",
"83 135 OFFCURVE",
"67 139 CURVE SMOOTH",
"45 145 OFFCURVE",
"24 131 OFFCURVE",
"17 106 CURVE SMOOTH",
"11 83 OFFCURVE",
"18 32 OFFCURVE",
"109 8 CURVE SMOOTH"
);
}
);
};
backgroundImage = {
crop = "{{1448.906, 1273.624}, {202.38, 339.587}}";
imagePath = "../../../../1878 Limprimerie Berger Levrault Notice historique/Italique/Puissan.JPG";
locked = "1";
transform = "{2.94897, -0.02064, 1.09671, 2.95648, -6127, -4049}";
};
layerId = "9372F035-DA38-4B54-966C-CEBA9B53DD02";
paths = (
{
closed = 1;
nodes = (
"172 396 OFFCURVE",
"202 432 OFFCURVE",
"254 432 CURVE SMOOTH",
"310 432 OFFCURVE",
"293 393 OFFCURVE",
"293 371 CURVE SMOOTH",
"293 348 OFFCURVE",
"313 338 OFFCURVE",
"329 338 CURVE SMOOTH",
"352 338 OFFCURVE",
"369 357 OFFCURVE",
"369 384 CURVE SMOOTH",
"369 407 OFFCURVE",
"349 454 OFFCURVE",
"255 454 CURVE SMOOTH",
"163 454 OFFCURVE",
"119 388 OFFCURVE",
"119 327 CURVE SMOOTH",
"119 289 OFFCURVE",
"128 254 OFFCURVE",
"163 217 CURVE SMOOTH",
"200 178 LINE SMOOTH",
"232 144 OFFCURVE",
"242 131 OFFCURVE",
"242 99 CURVE SMOOTH",
"242 56 OFFCURVE",
"207 8 OFFCURVE",
"149 8 CURVE SMOOTH",
"107 8 OFFCURVE",
"80 28 OFFCURVE",
"80 55 CURVE SMOOTH",
"80 72 OFFCURVE",
"92 80 OFFCURVE",
"92 105 CURVE SMOOTH",
"92 127 OFFCURVE",
"76 141 OFFCURVE",
"59 141 CURVE SMOOTH",
"29 141 OFFCURVE",
"15 113 OFFCURVE",
"15 93 CURVE SMOOTH",
"15 53 OFFCURVE",
"48 -14 OFFCURVE",
"149 -14 CURVE SMOOTH",
"241 -14 OFFCURVE",
"305 56 OFFCURVE",
"305 124 CURVE SMOOTH",
"305 181 OFFCURVE",
"273 213 OFFCURVE",
"248 238 CURVE SMOOTH",
"202 284 LINE SMOOTH",
"178 308 OFFCURVE",
"172 334 OFFCURVE",
"172 357 CURVE SMOOTH"
);
}
);
width = 383;
},
{
associatedMasterId = "9372F035-DA38-4B54-966C-CEBA9B53DD02";
backgroundImage = {
crop = "{{1448.906, 1273.624}, {202.38, 339.587}}";
imagePath = "../../../../1878 Limprimerie Berger Levrault Notice historique/Italique/Puissan.JPG";
locked = "1";
transform = "{2.95648, -0.02064, 0.02064, 2.95648, -4405, -4049}";
};
layerId = "D785CAB6-474E-4900-B847-20EB8A20100E";
name = "Oct 16 17, 15:58";
paths = (
{
closed = 1;
nodes = (
"146 396 OFFCURVE",
"178 432 OFFCURVE",
"227 432 CURVE SMOOTH",
"262 432 OFFCURVE",
"287 416 OFFCURVE",
"287 394 CURVE SMOOTH",
"287 383 OFFCURVE",
"272 377 OFFCURVE",
"272 357 CURVE SMOOTH",
"272 340 OFFCURVE",
"284 327 OFFCURVE",
"301 327 CURVE SMOOTH",
"325 327 OFFCURVE",
"338 349 OFFCURVE",
"338 371 CURVE SMOOTH",
"338 400 OFFCURVE",
"314 454 OFFCURVE",
"230 454 CURVE SMOOTH",
"141 454 OFFCURVE",
"101 388 OFFCURVE",
"101 327 CURVE SMOOTH",
"101 280 OFFCURVE",
"117 242 OFFCURVE",
"150 211 CURVE SMOOTH",
"190 177 LINE SMOOTH",
"219 156 OFFCURVE",
"228 131 OFFCURVE",
"228 105 CURVE SMOOTH",
"228 56 OFFCURVE",
"187 8 OFFCURVE",
"129 8 CURVE SMOOTH",
"87 8 OFFCURVE",
"54 28 OFFCURVE",
"54 55 CURVE SMOOTH",
"54 72 OFFCURVE",
"69 80 OFFCURVE",
"69 105 CURVE SMOOTH",
"69 125 OFFCURVE",
"57 138 OFFCURVE",
"39 138 CURVE SMOOTH",
"11 138 OFFCURVE",
"-2 112 OFFCURVE",
"-2 93 CURVE SMOOTH",
"-2 53 OFFCURVE",
"30 -14 OFFCURVE",
"129 -14 CURVE SMOOTH",
"221 -14 OFFCURVE",
"285 56 OFFCURVE",
"285 132 CURVE SMOOTH",
"285 187 OFFCURVE",
"263 214 OFFCURVE",
"238 238 CURVE SMOOTH",
"173 298 LINE SMOOTH",
"154 314 OFFCURVE",
"146 334 OFFCURVE",
"146 352 CURVE SMOOTH"
);
}
);
width = 341;
},
{
associatedMasterId = "9372F035-DA38-4B54-966C-CEBA9B53DD02";
background = {
components = (
{
name = c;
transform = "{1, 0, 0, 1, -75, 0}";
}
);
};
backgroundImage = {
crop = "{{1448.906, 1273.624}, {202.38, 339.587}}";
imagePath = "../../../../1878 Limprimerie Berger Levrault Notice historique/Italique/Puissan.JPG";
locked = "1";
transform = "{2.94897, -0.02064, 1.09671, 2.95648, -6137.134, -4049}";
};
layerId = "08F33570-4B47-4E67-93F1-C7885DCB8AE3";
name = "Oct 19 17, 13:57";
paths = (
{
closed = 1;
nodes = (
"152 396 OFFCURVE",
"182 432 OFFCURVE",
"234 432 CURVE SMOOTH",
"267 432 OFFCURVE",
"292 416 OFFCURVE",
"292 394 CURVE SMOOTH",
"292 383 OFFCURVE",
"275 377 OFFCURVE",
"275 357 CURVE SMOOTH",
"275 338 OFFCURVE",
"288 324 OFFCURVE",
"306 324 CURVE SMOOTH",
"332 324 OFFCURVE",
"346 348 OFFCURVE",
"346 371 CURVE SMOOTH",
"346 400 OFFCURVE",
"321 454 OFFCURVE",
"235 454 CURVE SMOOTH",
"143 454 OFFCURVE",
"99 388 OFFCURVE",
"99 327 CURVE SMOOTH",
"99 280 OFFCURVE",
"112 249 OFFCURVE",
"145 219 CURVE SMOOTH",
"190 178 LINE SMOOTH",
"224 147 OFFCURVE",
"232 131 OFFCURVE",
"232 99 CURVE SMOOTH",
"232 56 OFFCURVE",
"197 8 OFFCURVE",
"139 8 CURVE SMOOTH",
"97 8 OFFCURVE",
"64 28 OFFCURVE",
"64 55 CURVE SMOOTH",
"64 72 OFFCURVE",
"82 80 OFFCURVE",
"82 105 CURVE SMOOTH",
"82 127 OFFCURVE",
"69 141 OFFCURVE",
"49 141 CURVE SMOOTH",
"19 141 OFFCURVE",
"5 113 OFFCURVE",
"5 93 CURVE SMOOTH",
"5 53 OFFCURVE",
"38 -14 OFFCURVE",
"139 -14 CURVE SMOOTH",
"231 -14 OFFCURVE",
"295 56 OFFCURVE",
"295 124 CURVE SMOOTH",
"295 181 OFFCURVE",
"264 215 OFFCURVE",
"238 238 CURVE SMOOTH",
"192 279 LINE SMOOTH",
"164 304 OFFCURVE",
"152 334 OFFCURVE",
"152 357 CURVE SMOOTH"
);
}
);
width = 361;
}
);
unicode = 0073;
},
{
glyphname = t;
lastChange = "2017-10-19 15:01:19 +0000";
layers = (
{
anchors = (
{
name = bottom;
position = "{95, 0}";
},
{
name = center;
position = "{175, 220}";
},
{
name = top;
position = "{255, 440}";
},
{
name = topright;
position = "{410, 440}";
}
);
backgroundImage = {
crop = "{{99.517, 7.363}, {23.751, 78.379}}";
imagePath = "../../../../1878 Limprimerie Berger Levrault Notice historique/Italique/reotypie.JPG";
locked = "1";
transform = "{12.631, 0, 9.19462, 12.631, -2002, -373}";
};
guideLines = (
{
angle = 70;
position = "{131, 523}";
},
{
angle = 70;
position = "{173, 503}";
}
);
layerId = "9372F035-DA38-4B54-966C-CEBA9B53DD02";
paths = (
{
closed = 1;
nodes = (
"347 416 LINE",
"355 440 LINE",
"129 440 LINE",
"121 416 LINE"
);
},
{
closed = 1;
nodes = (
"126 19 OFFCURVE",
"119 41 OFFCURVE",
"134 82 CURVE SMOOTH",
"293 526 LINE",
"226 526 LINE",
"140 289 LINE",
"73 110 LINE SMOOTH",
"48 44 OFFCURVE",
"47 -14 OFFCURVE",
"119 -14 CURVE SMOOTH",
"181 -14 OFFCURVE",
"221 31 OFFCURVE",
"246 72 CURVE",
"228 84 LINE",
"211 55 OFFCURVE",
"180 19 OFFCURVE",
"150 19 CURVE SMOOTH"
);
},
{
closed = 0;
nodes = (
"119 -14 LINE SMOOTH"
);
}
);
width = 350;
},
{
associatedMasterId = "9372F035-DA38-4B54-966C-CEBA9B53DD02";
backgroundImage = {
crop = "{{99.517, 7.363}, {23.751, 78.379}}";
imagePath = "../../../../1878 Limprimerie Berger Levrault Notice historique/Italique/reotypie.JPG";
locked = "1";
transform = "{12.631, 0, 9.19462, 12.631, -2015.36, -373}";
};
guideLines = (
{
angle = 70;
position = "{83, 523}";
},
{
angle = 70;
position = "{125, 503}";
}
);
layerId = "8C811ED7-E51C-46F7-8CEA-D6B353AE9B04";
name = "Oct 19 17, 11:52";
paths = (
{
closed = 1;
nodes = (
"153 -14 OFFCURVE",
"185 21 OFFCURVE",
"243 89 CURVE",
"225 105 LINE",
"183 55 OFFCURVE",
"152 19 OFFCURVE",
"123 19 CURVE SMOOTH",
"104 19 OFFCURVE",
"99 36 OFFCURVE",
"112 72 CURVE SMOOTH",
"275 526 LINE",
"208 526 LINE",
"50 92 LINE SMOOTH",
"30 38 OFFCURVE",
"34 -14 OFFCURVE",
"97 -14 CURVE SMOOTH"
);
},
{
closed = 1;
nodes = (
"329 416 LINE",
"337 440 LINE",
"111 440 LINE",
"103 416 LINE"
);
}
);
width = 307;
},
{
associatedMasterId = "9372F035-DA38-4B54-966C-CEBA9B53DD02";
backgroundImage = {
crop = "{{99.517, 7.363}, {23.751, 78.379}}";
imagePath = "../../../../1878 Limprimerie Berger Levrault Notice historique/Italique/reotypie.JPG";
locked = "1";
transform = "{12.631, 0, 9.19462, 12.631, -2015.36, -373}";
};
guideLines = (
{
angle = 70;
position = "{83, 523}";
},
{
angle = 70;
position = "{125, 503}";
}
);
layerId = "834405C4-561E-4905-95E4-4F07ABEB4D21";
name = "Oct 19 17, 11:52";
paths = (
{
closed = 1;
nodes = (
"329 416 LINE",
"337 440 LINE",
"111 440 LINE",
"103 416 LINE"
);
},
{
closed = 1;
nodes = (
"275 526 LINE",
"208 526 LINE",
"50 92 LINE",
"112 72 LINE"
);
},
{
closed = 1;
nodes = (
"244 440 LINE",
"178 440 LINE",
"55 110 LINE SMOOTH",
"30 44 OFFCURVE",
"29 -14 OFFCURVE",
"96 -14 CURVE SMOOTH",
"153 -14 OFFCURVE",
"193 31 OFFCURVE",
"218 72 CURVE",
"200 84 LINE",
"183 55 OFFCURVE",
"152 19 OFFCURVE",
"123 19 CURVE SMOOTH",
"103 19 OFFCURVE",
"102 41 OFFCURVE",
"117 82 CURVE SMOOTH"
);
}
);
visible = 1;
width = 307;
}
);
unicode = 0074;
},
{
glyphname = u;
lastChange = "2017-10-19 15:54:27 +0000";
layers = (
{
anchors = (
{
name = bottom;
position = "{203, 0}";
},
{
name = ogonek;
position = "{428, 10}";
},
{
name = top;
position = "{363, 440}";
},
{
name = topright;
position = "{625, 440}";
}
);
backgroundImage = {
crop = "{{167.872, 8.386}, {46.161, 76.166}}";
imagePath = "../../../../1878 Limprimerie Berger Levrault Notice historique/Italique/Reglu.jpg";
locked = "1";
transform = "{12.998, 0, 9.46177, 12.998, -3035, -389}";
};
components = (
{
name = "_part-jambage-2";
transform = "{1, 0, 0, 1, -1, 0}";
}
);
guideLines = (
{
angle = 70;
position = "{324, 539}";
},
{
angle = 70;
position = "{248, 540}";
},
{
angle = 70;
position = "{574, 522}";
},
{
angle = 70;
position = "{504, 522}";
}
);
layerId = "9372F035-DA38-4B54-966C-CEBA9B53DD02";
paths = (
{
closed = 1;
nodes = (
"272 -14 OFFCURVE",
"362 117 OFFCURVE",
"387 185 CURVE",
"364 183 LINE",
"339 113 OFFCURVE",
"243 11 OFFCURVE",
"174 11 CURVE SMOOTH",
"143 11 OFFCURVE",
"118 33 OFFCURVE",
"140 95 CURVE SMOOTH",
"257 421 LINE",
"191 425 LINE",
"78 125 LINE SMOOTH",
"48 46 OFFCURVE",
"52 -14 OFFCURVE",
"155 -14 CURVE SMOOTH"
);
},
{
closed = 1;
nodes = (
"228 342 LINE",
"265 443 LINE",
"101 440 LINE",
"94 416 LINE",
"144 416 OFFCURVE",
"191 423 OFFCURVE",
"156 331 CURVE"
);
}
);
width = 565;
},
{
associatedMasterId = "9372F035-DA38-4B54-966C-CEBA9B53DD02";
backgroundImage = {
crop = "{{167.872, 8.386}, {46.161, 76.166}}";
imagePath = "../../../../1878 Limprimerie Berger Levrault Notice historique/Italique/Reglu.jpg";
transform = "{12.998, 0, 0, 12.998, -2192, -389}";
};
components = (
{
name = "_part-attaque-asc";
transform = "{1, 0, 0, 1, -102, -265}";
}
);
guideLines = (
{
angle = 70;
position = "{306, 539}";
},
{
angle = 70;
position = "{230, 540}";
},
{
angle = 70;
position = "{569, 522}";
},
{
angle = 70;
position = "{499, 522}";
}
);
layerId = "63256523-1E53-4463-9365-D2C2FEB15BDE";
name = "Oct 16 17, 10:35";
paths = (
{
closed = 1;
nodes = (
"263 421 LINE",
"142 88 LINE SMOOTH",
"123 37 OFFCURVE",
"144 15 OFFCURVE",
"173 15 CURVE SMOOTH",
"249 15 OFFCURVE",
"344 115 OFFCURVE",
"369 183 CURVE",
"392 185 LINE",
"367 118 OFFCURVE",
"278 -10 OFFCURVE",
"154 -10 CURVE SMOOTH",
"53 -10 OFFCURVE",
"50 50 OFFCURVE",
"74 113 CURVE SMOOTH",
"193 425 LINE"
);
},
{
closed = 1;
nodes = (
"512 72 LINE",
"487 35 OFFCURVE",
"447 -10 OFFCURVE",
"402 -10 CURVE SMOOTH",
"310 -10 OFFCURVE",
"322 55 OFFCURVE",
"351 135 CURVE SMOOTH",
"462 440 LINE",
"537 440 LINE",
"416 103 LINE SMOOTH",
"402 64 OFFCURVE",
"398 23 OFFCURVE",
"423 23 CURVE SMOOTH",
"446 23 OFFCURVE",
"477 59 OFFCURVE",
"494 84 CURVE"
);
}
);
width = 590;
},
{
associatedMasterId = "9372F035-DA38-4B54-966C-CEBA9B53DD02";
background = {
components = (
{
name = i;
transform = "{1, 0, 0, 1, 270, 0}";
}
);
};
backgroundImage = {
crop = "{{167.872, 8.386}, {46.161, 76.166}}";
imagePath = "../../../../1878 Limprimerie Berger Levrault Notice historique/Italique/Reglu.jpg";
locked = "1";
transform = "{12.998, 0, 0, 12.998, -2232, -389}";
};
guideLines = (
{
angle = 70;
position = "{396, 539}";
},
{
angle = 70;
position = "{320, 540}";
},
{
angle = 70;
position = "{659, 522}";
},
{
angle = 70;
position = "{589, 522}";
}
);
layerId = "66BB54DE-7EE9-4C9D-82E6-25F546092358";
name = "Oct 18 17, 11:53";
paths = (
{
closed = 1;
nodes = (
"265 -14 OFFCURVE",
"355 117 OFFCURVE",
"380 185 CURVE",
"357 183 LINE",
"332 113 OFFCURVE",
"236 11 OFFCURVE",
"160 11 CURVE SMOOTH",
"131 11 OFFCURVE",
"111 33 OFFCURVE",
"129 84 CURVE SMOOTH",
"250 421 LINE",
"184 425 LINE",
"65 109 LINE SMOOTH",
"41 46 OFFCURVE",
"45 -14 OFFCURVE",
"141 -14 CURVE SMOOTH"
);
},
{
closed = 1;
nodes = (
"428 -14 OFFCURVE",
"468 31 OFFCURVE",
"493 68 CURVE",
"475 80 LINE",
"458 55 OFFCURVE",
"423 19 OFFCURVE",
"401 19 CURVE SMOOTH",
"379 19 OFFCURVE",
"383 60 OFFCURVE",
"397 99 CURVE SMOOTH",
"518 440 LINE",
"448 440 LINE",
"338 131 LINE SMOOTH",
"310 52 OFFCURVE",
"308 -14 OFFCURVE",
"371 -14 CURVE SMOOTH"
);
},
{
closed = 1;
nodes = (
"221 342 LINE",
"258 443 LINE",
"94 440 LINE",
"87 416 LINE",
"137 416 OFFCURVE",
"184 423 OFFCURVE",
"149 331 CURVE"
);
}
);
visible = 1;
width = 551;
}
);
rightMetricsKey = i;
unicode = 0075;
},
{
glyphname = v;
lastChange = "2017-10-19 15:01:19 +0000";
layers = (
{
anchors = (
{
name = bottom;
position = "{157, 0}";
},
{
name = top;
position = "{317, 440}";
}
);
background = {
components = (
{
name = y;
transform = "{1, 0, 0, 1, -24, 0}";
}
);
};
guideLines = (
{
angle = 249.5863;
position = "{181, 286}";
},
{
angle = 69.8686;
position = "{350, 270}";
}
);
layerId = "9372F035-DA38-4B54-966C-CEBA9B53DD02";
paths = (
{
closed = 1;
nodes = (
"192 -14 LINE",
"388 221 LINE SMOOTH",
"421 261 OFFCURVE",
"462 331 OFFCURVE",
"462 379 CURVE SMOOTH",
"462 432 OFFCURVE",
"431 454 OFFCURVE",
"422 454 CURVE SMOOTH",
"397 454 OFFCURVE",
"362 423 OFFCURVE",
"357 409 CURVE",
"368 394 OFFCURVE",
"393 370 OFFCURVE",
"388 324 CURVE SMOOTH",
"386 291 OFFCURVE",
"366 233 OFFCURVE",
"321 176 CURVE SMOOTH",
"210 37 LINE",
"233 47 LINE",
"210 121 LINE SMOOTH",
"185 200 OFFCURVE",
"159 254 OFFCURVE",
"162 326 CURVE SMOOTH",
"167 390 OFFCURVE",
"209 415 OFFCURVE",
"243 435 CURVE",
"240 448 LINE",
"95 440 LINE",
"86 416 LINE",
"126 418 OFFCURVE",
"148 418 OFFCURVE",
"181 420 CURVE",
"170 427 LINE",
"169 394 OFFCURVE",
"83 367 OFFCURVE",
"83 278 CURVE SMOOTH",
"83 180 OFFCURVE",
"157 126 OFFCURVE",
"187 -14 CURVE"
);
}
);
width = 474;
},
{
associatedMasterId = "9372F035-DA38-4B54-966C-CEBA9B53DD02";
background = {
components = (
{
name = y;
transform = "{1, 0, 0, 1, -15, 0}";
}
);
};
guideLines = (
{
angle = 249.5863;
position = "{190, 286}";
},
{
angle = 69.8686;
position = "{359, 270}";
}
);
layerId = "AFE34A5C-0260-4010-B10F-1C792EC792C3";
name = "Oct 19 17, 15:01";
paths = (
{
closed = 1;
nodes = (
"201 -14 LINE",
"407 233 LINE SMOOTH",
"453 289 OFFCURVE",
"466 351 OFFCURVE",
"468 374 CURVE SMOOTH",
"473 432 OFFCURVE",
"449 447 OFFCURVE",
"437 454 CURVE",
"380 414 LINE",
"388 399 OFFCURVE",
"402 370 OFFCURVE",
"397 324 CURVE SMOOTH",
"395 291 OFFCURVE",
"375 233 OFFCURVE",
"330 176 CURVE SMOOTH",
"219 37 LINE",
"242 47 LINE",
"219 121 LINE SMOOTH",
"194 200 OFFCURVE",
"168 254 OFFCURVE",
"171 326 CURVE SMOOTH",
"176 390 OFFCURVE",
"218 415 OFFCURVE",
"252 435 CURVE",
"249 448 LINE",
"104 440 LINE",
"95 416 LINE",
"135 418 OFFCURVE",
"157 418 OFFCURVE",
"190 420 CURVE",
"179 427 LINE",
"178 394 OFFCURVE",
"92 367 OFFCURVE",
"92 278 CURVE SMOOTH",
"92 180 OFFCURVE",
"166 126 OFFCURVE",
"196 -14 CURVE"
);
}
);
visible = 1;
width = 491;
}
);
unicode = 0076;
},
{
glyphname = w;
lastChange = "2017-10-19 15:01:19 +0000";
layers = (
{
anchors = (
{
name = bottom;
position = "{268, 0}";
},
{
name = top;
position = "{428, 440}";
}
);
layerId = "9372F035-DA38-4B54-966C-CEBA9B53DD02";
paths = (
{
closed = 1;
nodes = (
"425 432 OFFCURVE",
"435 414 OFFCURVE",
"434 392 CURVE SMOOTH",
"431 334 OFFCURVE",
"354 230 OFFCURVE",
"301 163 CURVE SMOOTH",
"193 37 LINE",
"225 64 LINE",
"205 119 LINE SMOOTH",
"174 204 OFFCURVE",
"157 254 OFFCURVE",
"156 326 CURVE SMOOTH",
"159 390 OFFCURVE",
"189 415 OFFCURVE",
"235 435 CURVE",
"232 448 LINE",
"95 440 LINE",
"88 416 LINE",
"148 419 OFFCURVE",
"162 424 OFFCURVE",
"161 415 CURVE SMOOTH",
"161 398 OFFCURVE",
"82 372 OFFCURVE",
"78 291 CURVE SMOOTH",
"72 180 OFFCURVE",
"144 126 OFFCURVE",
"176 -14 CURVE",
"183 -14 LINE",
"328 161 LINE SMOOTH",
"424 285 OFFCURVE",
"454 352 OFFCURVE",
"456 390 CURVE SMOOTH",
"458 432 OFFCURVE",
"438 454 OFFCURVE",
"404 454 CURVE SMOOTH",
"372 454 OFFCURVE",
"318 424 OFFCURVE",
"313 337 CURVE SMOOTH",
"306 201 OFFCURVE",
"394 143 OFFCURVE",
"421 -14 CURVE",
"428 -14 LINE",
"620 227 LINE SMOOTH",
"666 289 OFFCURVE",
"675 330 OFFCURVE",
"677 365 CURVE SMOOTH",
"680 424 OFFCURVE",
"650 447 OFFCURVE",
"639 454 CURVE",
"584 412 LINE",
"592 397 OFFCURVE",
"613 370 OFFCURVE",
"610 318 CURVE SMOOTH",
"609 291 OFFCURVE",
"604 241 OFFCURVE",
"568 193 CURVE SMOOTH",
"441 37 LINE",
"474 57 LINE",
"457 110 LINE SMOOTH",
"409 269 OFFCURVE",
"370 328 OFFCURVE",
"373 385 CURVE SMOOTH",
"375 418 OFFCURVE",
"389 432 OFFCURVE",
"406 432 CURVE SMOOTH"
);
}
);
width = 696;
}
);
leftMetricsKey = v;
rightMetricsKey = v;
unicode = 0077;
},
{
glyphname = x;
lastChange = "2017-10-19 15:01:19 +0000";
layers = (
{
anchors = (
{
name = bottom;
position = "{197, 0}";
},
{
name = top;
position = "{357, 440}";
}
);
backgroundImage = {
crop = "{{1435.117, 1398.76}, {208.542, 317.625}}";
imagePath = "../../../../1878 Limprimerie Berger Levrault Notice historique/Italique/Beaux-A Societe.JPG";
locked = "1";
transform = "{3.11688, 0, 1.13445, 3.11688, -6496, -4640}";
};
guideLines = (
{
angle = 249.5863;
position = "{417, 286}";
}
);
layerId = "9372F035-DA38-4B54-966C-CEBA9B53DD02";
paths = (
{
closed = 1;
nodes = (
"467 106 LINE",
"446 56 OFFCURVE",
"398 16 OFFCURVE",
"355 16 CURVE SMOOTH",
"308 16 OFFCURVE",
"296 77 OFFCURVE",
"300 152 CURVE SMOOTH",
"308 276 OFFCURVE",
"395 432 OFFCURVE",
"463 432 CURVE SMOOTH",
"499 432 OFFCURVE",
"493 397 OFFCURVE",
"491 370 CURVE SMOOTH",
"489 346 OFFCURVE",
"502 331 OFFCURVE",
"524 331 CURVE SMOOTH",
"548 331 OFFCURVE",
"563 357 OFFCURVE",
"565 381 CURVE SMOOTH",
"566 405 OFFCURVE",
"561 454 OFFCURVE",
"477 454 CURVE SMOOTH",
"418 454 OFFCURVE",
"357 412 OFFCURVE",
"308 347 CURVE SMOOTH",
"289 322 OFFCURVE",
"231 127 OFFCURVE",
"234 101 CURVE SMOOTH",
"244 38 OFFCURVE",
"275 -14 OFFCURVE",
"337 -14 CURVE SMOOTH",
"406 -14 OFFCURVE",
"456 35 OFFCURVE",
"484 94 CURVE"
);
},
{
closed = 1;
nodes = (
"86 334 LINE",
"108 384 OFFCURVE",
"154 424 OFFCURVE",
"199 424 CURVE SMOOTH",
"249 424 OFFCURVE",
"252 370 OFFCURVE",
"252 317 CURVE SMOOTH",
"252 164 OFFCURVE",
"162 8 OFFCURVE",
"91 8 CURVE SMOOTH",
"55 8 OFFCURVE",
"61 43 OFFCURVE",
"63 70 CURVE SMOOTH",
"65 94 OFFCURVE",
"52 109 OFFCURVE",
"30 109 CURVE SMOOTH",
"6 109 OFFCURVE",
"-9 83 OFFCURVE",
"-11 59 CURVE SMOOTH",
"-13 35 OFFCURVE",
"-7 -14 OFFCURVE",
"77 -14 CURVE SMOOTH",
"142 -14 OFFCURVE",
"207 34 OFFCURVE",
"255 107 CURVE SMOOTH",
"289 158 OFFCURVE",
"316 222 OFFCURVE",
"321 290 CURVE SMOOTH",
"326 387 OFFCURVE",
"304 454 OFFCURVE",
"221 454 CURVE SMOOTH",
"148 454 OFFCURVE",
"97 405 OFFCURVE",
"70 346 CURVE"
);
}
);
width = 553;
}
);
unicode = 0078;
},
{
glyphname = y;
lastChange = "2017-10-19 15:01:19 +0000";
layers = (
{
anchors = (
{
name = bottom;
position = "{165, 0}";
},
{
name = top;
position = "{325, 440}";
}
);
backgroundImage = {
crop = "{{108.859, 7.363}, {47.502, 78.379}}";
imagePath = "../../../../1878 Limprimerie Berger Levrault Notice historique/Italique/reotypie.JPG";
locked = "1";
transform = "{12.631, 0, 4.59731, 12.631, -1906, -394}";
};
layerId = "9372F035-DA38-4B54-966C-CEBA9B53DD02";
paths = (
{
closed = 1;
nodes = (
"407 454 OFFCURVE",
"368 429 OFFCURVE",
"357 406 CURVE",
"370 390 OFFCURVE",
"396 364 OFFCURVE",
"393 309 CURVE SMOOTH",
"392 275 OFFCURVE",
"382 225 OFFCURVE",
"349 170 CURVE SMOOTH",
"261 24 LINE",
"219 124 LINE SMOOTH",
"191 191 OFFCURVE",
"166 254 OFFCURVE",
"166 326 CURVE",
"170 390 OFFCURVE",
"211 415 OFFCURVE",
"244 435 CURVE",
"241 448 LINE",
"95 440 LINE",
"87 416 LINE",
"134 419 OFFCURVE",
"163 421 OFFCURVE",
"181 421 CURVE",
"177 433 LINE",
"177 392 OFFCURVE",
"94 380 OFFCURVE",
"88 291 CURVE SMOOTH",
"83 181 OFFCURVE",
"211 32 OFFCURVE",
"211 -43 CURVE SMOOTH",
"211 -66 OFFCURVE",
"195 -91 OFFCURVE",
"174 -120 CURVE SMOOTH",
"139 -169 LINE SMOOTH",
"112 -208 OFFCURVE",
"80 -234 OFFCURVE",
"55 -234 CURVE SMOOTH",
"20 -234 OFFCURVE",
"-3 -189 OFFCURVE",
"-41 -189 CURVE SMOOTH",
"-69 -189 OFFCURVE",
"-89 -207 OFFCURVE",
"-89 -234 CURVE SMOOTH",
"-89 -267 OFFCURVE",
"-56 -290 OFFCURVE",
"-12 -290 CURVE SMOOTH",
"55 -290 OFFCURVE",
"125 -243 OFFCURVE",
"187 -141 CURVE SMOOTH",
"410 227 LINE SMOOTH",
"436 270 OFFCURVE",
"464 336 OFFCURVE",
"464 375 CURVE SMOOTH",
"464 434 OFFCURVE",
"430 454 OFFCURVE",
"418 454 CURVE SMOOTH"
);
}
);
width = 489;
},
{
associatedMasterId = "9372F035-DA38-4B54-966C-CEBA9B53DD02";
background = {
components = (
{
name = v;
transform = "{1, 0, 0, 1, 17, 0}";
}
);
};
backgroundImage = {
crop = "{{108.859, 7.363}, {47.502, 78.379}}";
imagePath = "../../../../1878 Limprimerie Berger Levrault Notice historique/Italique/reotypie.JPG";
locked = "1";
transform = "{12.631, 0, 4.59731, 12.631, -1884.823, -394}";
};
layerId = "4B8EBDB6-F3AB-4004-8FFB-DE4294F6E152";
name = "Oct 19 17, 14:58";
paths = (
{
closed = 1;
nodes = (
"384 411 LINE",
"397 395 OFFCURVE",
"417 364 OFFCURVE",
"414 309 CURVE SMOOTH",
"413 275 OFFCURVE",
"403 225 OFFCURVE",
"370 170 CURVE SMOOTH",
"262 -10 LINE",
"287 12 LINE",
"240 124 LINE SMOOTH",
"212 191 OFFCURVE",
"187 254 OFFCURVE",
"187 326 CURVE SMOOTH",
"191 390 OFFCURVE",
"232 415 OFFCURVE",
"265 435 CURVE",
"262 448 LINE",
"116 440 LINE",
"108 416 LINE",
"148 418 OFFCURVE",
"170 420 OFFCURVE",
"182 420 CURVE SMOOTH",
"190 420 OFFCURVE",
"193 419 OFFCURVE",
"193 415 CURVE SMOOTH",
"192 398 OFFCURVE",
"114 372 OFFCURVE",
"109 291 CURVE SMOOTH",
"104 181 OFFCURVE",
"232 32 OFFCURVE",
"232 -43 CURVE SMOOTH",
"232 -66 OFFCURVE",
"216 -91 OFFCURVE",
"195 -120 CURVE SMOOTH",
"160 -169 LINE SMOOTH",
"133 -208 OFFCURVE",
"98 -234 OFFCURVE",
"76 -234 CURVE SMOOTH",
"33 -234 OFFCURVE",
"12 -193 OFFCURVE",
"-18 -193 CURVE SMOOTH",
"-42 -193 OFFCURVE",
"-63 -211 OFFCURVE",
"-64 -234 CURVE SMOOTH",
"-66 -267 OFFCURVE",
"-33 -290 OFFCURVE",
"9 -290 CURVE SMOOTH",
"76 -290 OFFCURVE",
"146 -243 OFFCURVE",
"208 -141 CURVE SMOOTH",
"431 227 LINE SMOOTH",
"469 290 OFFCURVE",
"477 341 OFFCURVE",
"479 369 CURVE SMOOTH",
"482 434 OFFCURVE",
"454 449 OFFCURVE",
"439 454 CURVE"
);
}
);
visible = 1;
width = 501;
}
);
leftMetricsKey = v;
rightMetricsKey = "=v+10";
unicode = 0079;
},
{
glyphname = z;
lastChange = "2017-10-20 11:41:42 +0000";
layers = (
{
anchors = (
{
name = bottom;
position = "{183, 0}";
},
{
name = top;
position = "{343, 440}";
}
);
backgroundImage = {
crop = "{{1070.746, 1396.688}, {212.492, 356.555}}";
imagePath = "../../../../1878 Limprimerie Berger Levrault Notice historique/Italique/rez-de-.JPG";
locked = "1";
transform = "{2.89318, -0.10233, 1.16892, 2.93043, -5208, -4305}";
};
layerId = "9372F035-DA38-4B54-966C-CEBA9B53DD02";
paths = (
{
closed = 1;
nodes = (
"399 148 LINE",
"408 86 OFFCURVE",
"379 55 OFFCURVE",
"348 55 CURVE SMOOTH",
"293 55 OFFCURVE",
"243 97 OFFCURVE",
"179 97 CURVE SMOOTH",
"146 97 OFFCURVE",
"119 86 OFFCURVE",
"94 71 CURVE",
"85 54 LINE",
"409 351 LINE",
"439 362 OFFCURVE",
"506 390 OFFCURVE",
"506 432 CURVE SMOOTH",
"506 452 OFFCURVE",
"490 462 OFFCURVE",
"475 462 CURVE SMOOTH",
"439 462 OFFCURVE",
"428 425 OFFCURVE",
"406 388 CURVE SMOOTH",
"399 376 OFFCURVE",
"396 372 OFFCURVE",
"382 372 CURVE SMOOTH",
"311 372 OFFCURVE",
"282 454 OFFCURVE",
"206 454 CURVE SMOOTH",
"143 454 OFFCURVE",
"91 399 OFFCURVE",
"86 316 CURVE",
"110 315 LINE",
"111 351 OFFCURVE",
"126 380 OFFCURVE",
"175 380 CURVE SMOOTH",
"212 380 OFFCURVE",
"257 343 OFFCURVE",
"348 343 CURVE SMOOTH",
"376 343 OFFCURVE",
"394 352 OFFCURVE",
"404 362 CURVE",
"409 382 LINE",
"140 134 LINE SMOOTH",
"106 103 OFFCURVE",
"80 86 OFFCURVE",
"60 74 CURVE SMOOTH",
"24 50 OFFCURVE",
"10 44 OFFCURVE",
"10 16 CURVE SMOOTH",
"10 -2 OFFCURVE",
"24 -14 OFFCURVE",
"41 -14 CURVE SMOOTH",
"90 -14 OFFCURVE",
"89 68 OFFCURVE",
"159 68 CURVE SMOOTH",
"218 68 OFFCURVE",
"244 -14 OFFCURVE",
"325 -14 CURVE SMOOTH",
"381 -14 OFFCURVE",
"439 34 OFFCURVE",
"426 153 CURVE"
);
}
);
width = 517;
},
{
associatedMasterId = "9372F035-DA38-4B54-966C-CEBA9B53DD02";
backgroundImage = {
crop = "{{1070.746, 1396.688}, {212.492, 356.555}}";
imagePath = "../../../../1878 Limprimerie Berger Levrault Notice historique/Italique/rez-de-.JPG";
locked = "1";
transform = "{2.89318, -0.10233, 1.16892, 2.93043, -5207.311, -4305}";
};
layerId = "1282149C-0084-43A2-BD88-2024A715A46E";
name = "Oct 19 17, 15:19";
paths = (
{
closed = 1;
nodes = (
"410 148 LINE",
"419 86 OFFCURVE",
"390 55 OFFCURVE",
"359 55 CURVE SMOOTH",
"304 55 OFFCURVE",
"254 97 OFFCURVE",
"199 97 CURVE SMOOTH",
"166 97 OFFCURVE",
"138 86 OFFCURVE",
"128 83 CURVE",
"110 54 LINE",
"380 345 LINE SMOOTH",
"397 363 OFFCURVE",
"470 372 OFFCURVE",
"473 421 CURVE SMOOTH",
"474 444 OFFCURVE",
"457 454 OFFCURVE",
"442 454 CURVE SMOOTH",
"406 454 OFFCURVE",
"397 416 OFFCURVE",
"376 385 CURVE SMOOTH",
"369 375 OFFCURVE",
"358 368 OFFCURVE",
"352 368 CURVE SMOOTH",
"284 368 OFFCURVE",
"259 454 OFFCURVE",
"193 454 CURVE SMOOTH",
"130 454 OFFCURVE",
"78 399 OFFCURVE",
"73 316 CURVE",
"97 315 LINE",
"98 354 OFFCURVE",
"113 382 OFFCURVE",
"144 382 CURVE SMOOTH",
"199 382 OFFCURVE",
"243 340 OFFCURVE",
"315 340 CURVE SMOOTH",
"336 340 OFFCURVE",
"361 347 OFFCURVE",
"371 354 CURVE",
"376 374 LINE",
"151 134 LINE SMOOTH",
"90 70 OFFCURVE",
"23 68 OFFCURVE",
"21 16 CURVE SMOOTH",
"20 -4 OFFCURVE",
"35 -14 OFFCURVE",
"52 -14 CURVE SMOOTH",
"101 -14 OFFCURVE",
"110 68 OFFCURVE",
"170 68 CURVE SMOOTH",
"229 68 OFFCURVE",
"255 -14 OFFCURVE",
"336 -14 CURVE SMOOTH",
"392 -14 OFFCURVE",
"450 34 OFFCURVE",
"437 153 CURVE"
);
}
);
width = 490;
},
{
associatedMasterId = "9372F035-DA38-4B54-966C-CEBA9B53DD02";
backgroundImage = {
crop = "{{1070.746, 1396.688}, {212.492, 356.555}}";
imagePath = "../../../../1878 Limprimerie Berger Levrault Notice historique/Italique/rez-de-.JPG";
locked = "1";
transform = "{2.89318, -0.10233, 1.16892, 2.93043, -5207.311, -4305}";
};
layerId = "A67457F8-A2EA-4172-874E-5DDE29C4D784";
name = "Oct 19 17, 15:49";
paths = (
{
closed = 1;
nodes = (
"410 148 LINE",
"419 86 OFFCURVE",
"390 55 OFFCURVE",
"359 55 CURVE SMOOTH",
"304 55 OFFCURVE",
"254 97 OFFCURVE",
"199 97 CURVE SMOOTH",
"166 97 OFFCURVE",
"138 86 OFFCURVE",
"128 83 CURVE",
"110 54 LINE",
"383 348 LINE SMOOTH",
"385 350 OFFCURVE",
"386 350 OFFCURVE",
"398 356 CURVE SMOOTH",
"424 369 OFFCURVE",
"471 383 OFFCURVE",
"473 421 CURVE SMOOTH",
"474 444 OFFCURVE",
"457 454 OFFCURVE",
"442 454 CURVE SMOOTH",
"406 454 OFFCURVE",
"395 417 OFFCURVE",
"373 380 CURVE SMOOTH",
"366 368 OFFCURVE",
"363 368 OFFCURVE",
"354 368 CURVE SMOOTH",
"284 368 OFFCURVE",
"259 454 OFFCURVE",
"193 454 CURVE SMOOTH",
"130 454 OFFCURVE",
"78 399 OFFCURVE",
"73 316 CURVE",
"97 315 LINE",
"98 354 OFFCURVE",
"113 382 OFFCURVE",
"144 382 CURVE SMOOTH",
"199 382 OFFCURVE",
"243 340 OFFCURVE",
"315 340 CURVE SMOOTH",
"336 340 OFFCURVE",
"361 347 OFFCURVE",
"371 354 CURVE",
"376 374 LINE",
"151 134 LINE SMOOTH",
"75 53 OFFCURVE",
"21 62 OFFCURVE",
"21 18 CURVE SMOOTH",
"21 -2 OFFCURVE",
"35 -14 OFFCURVE",
"52 -14 CURVE SMOOTH",
"101 -14 OFFCURVE",
"100 68 OFFCURVE",
"170 68 CURVE SMOOTH",
"229 68 OFFCURVE",
"255 -14 OFFCURVE",
"336 -14 CURVE SMOOTH",
"392 -14 OFFCURVE",
"450 34 OFFCURVE",
"437 153 CURVE"
);
}
);
width = 490;
},
{
anchors = (
{
name = bottom;
position = "{183, 0}";
},
{
name = top;
position = "{343, 440}";
}
);
associatedMasterId = "9372F035-DA38-4B54-966C-CEBA9B53DD02";
backgroundImage = {
crop = "{{1070.746, 1396.688}, {212.492, 356.555}}";
imagePath = "../../../../1878 Limprimerie Berger Levrault Notice historique/Italique/rez-de-.JPG";
locked = "1";
transform = "{2.89318, -0.10233, 1.16892, 2.93043, -5208, -4305}";
};
layerId = "623DF4A9-52DF-4FDA-8AAC-9D61D265A345";
name = "Oct 20 17, 13:41";
paths = (
{
closed = 1;
nodes = (
"399 148 LINE",
"408 86 OFFCURVE",
"379 55 OFFCURVE",
"348 55 CURVE SMOOTH",
"293 55 OFFCURVE",
"243 97 OFFCURVE",
"179 97 CURVE SMOOTH",
"146 97 OFFCURVE",
"119 86 OFFCURVE",
"94 71 CURVE",
"85 54 LINE",
"415 354 LINE",
"445 365 OFFCURVE",
"512 393 OFFCURVE",
"512 435 CURVE SMOOTH",
"512 455 OFFCURVE",
"496 465 OFFCURVE",
"481 465 CURVE SMOOTH",
"445 465 OFFCURVE",
"434 428 OFFCURVE",
"412 391 CURVE SMOOTH",
"405 379 OFFCURVE",
"402 375 OFFCURVE",
"388 375 CURVE SMOOTH",
"320 375 OFFCURVE",
"287 454 OFFCURVE",
"214 454 CURVE SMOOTH",
"151 454 OFFCURVE",
"99 399 OFFCURVE",
"94 316 CURVE",
"118 315 LINE",
"119 351 OFFCURVE",
"134 380 OFFCURVE",
"183 380 CURVE SMOOTH",
"220 380 OFFCURVE",
"267 346 OFFCURVE",
"354 346 CURVE SMOOTH",
"382 346 OFFCURVE",
"400 355 OFFCURVE",
"410 365 CURVE",
"415 385 LINE",
"140 134 LINE SMOOTH",
"106 104 OFFCURVE",
"80 86 OFFCURVE",
"60 74 CURVE SMOOTH",
"24 50 OFFCURVE",
"10 44 OFFCURVE",
"10 16 CURVE SMOOTH",
"10 -2 OFFCURVE",
"24 -14 OFFCURVE",
"41 -14 CURVE SMOOTH",
"90 -14 OFFCURVE",
"89 68 OFFCURVE",
"159 68 CURVE SMOOTH",
"218 68 OFFCURVE",
"244 -14 OFFCURVE",
"325 -14 CURVE SMOOTH",
"381 -14 OFFCURVE",
"439 34 OFFCURVE",
"426 153 CURVE"
);
}
);
visible = 1;
width = 517;
}
);
unicode = 007A;
},
{
glyphname = fi;
lastChange = "2017-10-19 15:54:31 +0000";
layers = (
{
anchors = (
{
name = caret_1;
position = "{294.5, 0}";
}
);
background = {
paths = (
{
closed = 1;
nodes = (
"373 416 LINE",
"380 440 LINE",
"113 440 LINE",
"106 416 LINE"
);
},
{
closed = 1;
nodes = (
"328 607 LINE SMOOTH",
"354 679 OFFCURVE",
"390 698 OFFCURVE",
"416 698 CURVE SMOOTH",
"442 698 OFFCURVE",
"451 685 OFFCURVE",
"451 647 CURVE SMOOTH",
"451 618 OFFCURVE",
"461 597 OFFCURVE",
"492 597 CURVE SMOOTH",
"525 597 OFFCURVE",
"538 623 OFFCURVE",
"538 650 CURVE SMOOTH",
"538 685 OFFCURVE",
"507 720 OFFCURVE",
"434 720 CURVE SMOOTH",
"348 720 OFFCURVE",
"283 681 OFFCURVE",
"235 548 CURVE SMOOTH",
"-11 -131 LINE SMOOTH",
"-41 -214 OFFCURVE",
"-70 -268 OFFCURVE",
"-105 -268 CURVE SMOOTH",
"-149 -268 OFFCURVE",
"-126 -174 OFFCURVE",
"-185 -174 CURVE SMOOTH",
"-213 -174 OFFCURVE",
"-234 -194 OFFCURVE",
"-234 -221 CURVE SMOOTH",
"-234 -255 OFFCURVE",
"-205 -290 OFFCURVE",
"-123 -290 CURVE SMOOTH",
"-36 -290 OFFCURVE",
"14 -260 OFFCURVE",
"61 -131 CURVE SMOOTH"
);
}
);
};
components = (
{
name = idotless;
transform = "{1, 0, 0, 1, 296, 0}";
}
);
guideLines = (
{
angle = 70;
position = "{586, 539}";
}
);
layerId = "9372F035-DA38-4B54-966C-CEBA9B53DD02";
paths = (
{
closed = 1;
nodes = (
"386 416 LINE",
"386 440 LINE",
"109 440 LINE",
"102 416 LINE"
);
},
{
closed = 1;
nodes = (
"327 615 LINE SMOOTH",
"347 672 OFFCURVE",
"390 698 OFFCURVE",
"434 698 CURVE SMOOTH",
"477 698 OFFCURVE",
"496 683 OFFCURVE",
"496 633 CURVE SMOOTH",
"496 603 OFFCURVE",
"513 582 OFFCURVE",
"543 582 CURVE SMOOTH",
"580 582 OFFCURVE",
"602 613 OFFCURVE",
"602 642 CURVE SMOOTH",
"602 664 OFFCURVE",
"596 720 OFFCURVE",
"447 720 CURVE SMOOTH",
"339 720 OFFCURVE",
"279 680 OFFCURVE",
"249 596 CURVE SMOOTH",
"-11 -131 LINE SMOOTH",
"-41 -214 OFFCURVE",
"-70 -268 OFFCURVE",
"-105 -268 CURVE SMOOTH",
"-149 -268 OFFCURVE",
"-126 -174 OFFCURVE",
"-185 -174 CURVE SMOOTH",
"-213 -174 OFFCURVE",
"-234 -194 OFFCURVE",
"-234 -221 CURVE SMOOTH",
"-234 -255 OFFCURVE",
"-205 -290 OFFCURVE",
"-123 -290 CURVE SMOOTH",
"-36 -290 OFFCURVE",
"14 -260 OFFCURVE",
"61 -131 CURVE SMOOTH"
);
}
);
width = 589;
},
{
associatedMasterId = "9372F035-DA38-4B54-966C-CEBA9B53DD02";
components = (
{
name = idotless;
transform = "{1, 0, 0, 1, 266, 0}";
}
);
guideLines = (
{
angle = 70;
position = "{576, 539}";
}
);
layerId = "DAC35291-EFD3-464C-AF52-2FC516B14DB0";
name = "Oct 19 17, 12:16";
paths = (
{
closed = 1;
nodes = (
"376 416 LINE",
"376 440 LINE",
"99 440 LINE",
"92 416 LINE"
);
},
{
closed = 1;
nodes = (
"317 615 LINE SMOOTH",
"337 672 OFFCURVE",
"380 698 OFFCURVE",
"427 698 CURVE SMOOTH",
"467 698 OFFCURVE",
"470 679 OFFCURVE",
"470 674 CURVE SMOOTH",
"470 659 OFFCURVE",
"462 653 OFFCURVE",
"462 627 CURVE SMOOTH",
"462 597 OFFCURVE",
"483 576 OFFCURVE",
"513 576 CURVE SMOOTH",
"553 576 OFFCURVE",
"577 609 OFFCURVE",
"577 638 CURVE SMOOTH",
"577 660 OFFCURVE",
"572 720 OFFCURVE",
"431 720 CURVE SMOOTH",
"329 720 OFFCURVE",
"269 680 OFFCURVE",
"239 596 CURVE SMOOTH",
"-20 -129 LINE SMOOTH",
"-46 -208 OFFCURVE",
"-74 -268 OFFCURVE",
"-115 -268 CURVE SMOOTH",
"-135 -268 OFFCURVE",
"-144 -255 OFFCURVE",
"-144 -217 CURVE SMOOTH",
"-144 -188 OFFCURVE",
"-154 -167 OFFCURVE",
"-183 -167 CURVE SMOOTH",
"-214 -167 OFFCURVE",
"-231 -193 OFFCURVE",
"-231 -220 CURVE SMOOTH",
"-231 -250 OFFCURVE",
"-197 -290 OFFCURVE",
"-127 -290 CURVE SMOOTH",
"-41 -290 OFFCURVE",
"9 -253 OFFCURVE",
"46 -145 CURVE SMOOTH"
);
}
);
width = 570;
}
);
leftMetricsKey = f;
rightMetricsKey = i;
unicode = FB01;
},
{
glyphname = fl;
lastChange = "2017-10-19 15:54:31 +0000";
layers = (
{
anchors = (
{
name = caret_1;
position = "{312.5, 0}";
}
);
background = {
components = (
{
name = f_f_l.liga;
transform = "{1, 0, 0, 1, -294, 0}";
}
);
};
components = (
{
alignment = -1;
name = "_part-sortie-2";
transform = "{1, 0, 0, 1, 38, 0}";
}
);
layerId = "9372F035-DA38-4B54-966C-CEBA9B53DD02";
paths = (
{
closed = 1;
nodes = (
"580 664 LINE",
"383 131 LINE",
"443 99 LINE",
"644 657 LINE"
);
},
{
closed = 1;
nodes = (
"373 416 LINE",
"380 440 LINE",
"113 440 LINE",
"106 416 LINE"
);
},
{
closed = 1;
nodes = (
"292 504 LINE SMOOTH",
"325 595 OFFCURVE",
"365 695 OFFCURVE",
"465 695 CURVE SMOOTH",
"523 695 OFFCURVE",
"573 663 OFFCURVE",
"599 581 CURVE",
"644 657 LINE",
"615 697 OFFCURVE",
"550 720 OFFCURVE",
"471 720 CURVE SMOOTH",
"325 720 OFFCURVE",
"277 653 OFFCURVE",
"228 520 CURVE SMOOTH",
"-11 -131 LINE SMOOTH",
"-41 -214 OFFCURVE",
"-70 -268 OFFCURVE",
"-105 -268 CURVE SMOOTH",
"-149 -268 OFFCURVE",
"-126 -174 OFFCURVE",
"-185 -174 CURVE SMOOTH",
"-213 -174 OFFCURVE",
"-234 -194 OFFCURVE",
"-234 -221 CURVE SMOOTH",
"-234 -255 OFFCURVE",
"-205 -290 OFFCURVE",
"-123 -290 CURVE SMOOTH",
"-36 -290 OFFCURVE",
"14 -260 OFFCURVE",
"61 -131 CURVE SMOOTH"
);
}
);
width = 625;
},
{
associatedMasterId = "9372F035-DA38-4B54-966C-CEBA9B53DD02";
components = (
{
alignment = -1;
name = "_part-sortie-2";
transform = "{1, 0, 0, 1, 37, 0}";
}
);
layerId = "4AB786BC-BBE9-4667-B19F-55EF14738CDB";
name = "Oct 18 17, 12:19";
paths = (
{
closed = 1;
nodes = (
"387 416 LINE",
"394 440 LINE",
"127 440 LINE",
"120 416 LINE"
);
},
{
closed = 1;
nodes = (
"382 720 OFFCURVE",
"293 676 OFFCURVE",
"240 527 CURVE SMOOTH",
"5 -129 LINE SMOOTH",
"-21 -208 OFFCURVE",
"-49 -268 OFFCURVE",
"-90 -268 CURVE SMOOTH",
"-102 -268 OFFCURVE",
"-106 -266 OFFCURVE",
"-106 -261 CURVE SMOOTH",
"-106 -251 OFFCURVE",
"-96 -243 OFFCURVE",
"-96 -217 CURVE SMOOTH",
"-96 -188 OFFCURVE",
"-116 -167 OFFCURVE",
"-144 -167 CURVE SMOOTH",
"-176 -167 OFFCURVE",
"-195 -193 OFFCURVE",
"-195 -220 CURVE SMOOTH",
"-195 -250 OFFCURVE",
"-176 -290 OFFCURVE",
"-102 -290 CURVE SMOOTH",
"-17 -290 OFFCURVE",
"32 -253 OFFCURVE",
"69 -145 CURVE SMOOTH",
"324 560 LINE SMOOTH",
"346 622 OFFCURVE",
"402 698 OFFCURVE",
"478 698 CURVE SMOOTH",
"539 698 OFFCURVE",
"550 655 OFFCURVE",
"550 619 CURVE SMOOTH",
"550 601 OFFCURVE",
"540 557 OFFCURVE",
"530 531 CURVE SMOOTH",
"382 131 LINE",
"442 99 LINE",
"585 493 LINE SMOOTH",
"603 542 OFFCURVE",
"614 596 OFFCURVE",
"614 620 CURVE SMOOTH",
"614 690 OFFCURVE",
"565 720 OFFCURVE",
"492 720 CURVE SMOOTH"
);
}
);
width = 623;
},
{
associatedMasterId = "9372F035-DA38-4B54-966C-CEBA9B53DD02";
components = (
{
alignment = -1;
name = "_part-sortie-2";
transform = "{1, 0, 0, 1, 7, 0}";
}
);
layerId = "D0610BEF-FD3C-4486-8F6D-5EED7B7018C0";
name = "Oct 19 17, 11:40";
paths = (
{
closed = 1;
nodes = (
"357 416 LINE",
"364 440 LINE",
"97 440 LINE",
"90 416 LINE"
);
},
{
closed = 1;
nodes = (
"352 720 OFFCURVE",
"263 676 OFFCURVE",
"210 527 CURVE SMOOTH",
"-25 -129 LINE SMOOTH",
"-51 -208 OFFCURVE",
"-79 -268 OFFCURVE",
"-120 -268 CURVE SMOOTH",
"-132 -268 OFFCURVE",
"-136 -266 OFFCURVE",
"-136 -261 CURVE SMOOTH",
"-136 -251 OFFCURVE",
"-126 -243 OFFCURVE",
"-126 -217 CURVE SMOOTH",
"-126 -188 OFFCURVE",
"-146 -167 OFFCURVE",
"-174 -167 CURVE SMOOTH",
"-206 -167 OFFCURVE",
"-225 -193 OFFCURVE",
"-225 -220 CURVE SMOOTH",
"-225 -250 OFFCURVE",
"-206 -290 OFFCURVE",
"-132 -290 CURVE SMOOTH",
"-47 -290 OFFCURVE",
"2 -253 OFFCURVE",
"39 -145 CURVE SMOOTH",
"294 560 LINE SMOOTH",
"322 638 OFFCURVE",
"372 698 OFFCURVE",
"439 698 CURVE SMOOTH",
"500 698 OFFCURVE",
"520 641 OFFCURVE",
"520 611 CURVE SMOOTH",
"520 591 OFFCURVE",
"510 557 OFFCURVE",
"500 531 CURVE SMOOTH",
"352 131 LINE",
"412 99 LINE",
"564 518 LINE SMOOTH",
"609 643 OFFCURVE",
"588 720 OFFCURVE",
"462 720 CURVE SMOOTH"
);
}
);
width = 593;
}
);
leftMetricsKey = f;
rightMetricsKey = l;
unicode = FB02;
},
{
glyphname = f_b.liga;
lastChange = "2017-10-20 08:59:20 +0000";
layers = (
{
anchors = (
{
name = bottom_1;
position = "{137, 0}";
},
{
name = bottom_2;
position = "{572, 0}";
},
{
name = caret_1;
position = "{434.5, 0}";
},
{
name = top_1;
position = "{297, 440}";
},
{
name = top_2;
position = "{732, 440}";
}
);
background = {
components = (
{
name = b;
transform = "{1, 0, 0, 1, 320, 0}";
}
);
};
layerId = "9372F035-DA38-4B54-966C-CEBA9B53DD02";
paths = (
{
closed = 1;
nodes = (
"373 416 LINE",
"380 440 LINE",
"113 440 LINE",
"106 416 LINE"
);
},
{
closed = 1;
nodes = (
"629 454 OFFCURVE",
"578 430 OFFCURVE",
"552 383 CURVE",
"554 368 LINE",
"667 678 LINE",
"609 698 LINE",
"437 233 LINE SMOOTH",
"376 69 OFFCURVE",
"432 -14 OFFCURVE",
"558 -14 CURVE SMOOTH",
"686 -14 OFFCURVE",
"826 122 OFFCURVE",
"826 287 CURVE SMOOTH",
"826 380 OFFCURVE",
"765 454 OFFCURVE",
"679 454 CURVE SMOOTH"
);
},
{
closed = 1;
nodes = (
"467 10 OFFCURVE",
"456 90 OFFCURVE",
"503 221 CURVE SMOOTH",
"522 274 LINE SMOOTH",
"552 358 OFFCURVE",
"597 430 OFFCURVE",
"673 430 CURVE SMOOTH",
"714 430 OFFCURVE",
"754 397 OFFCURVE",
"754 326 CURVE SMOOTH",
"754 184 OFFCURVE",
"657 10 OFFCURVE",
"558 10 CURVE SMOOTH"
);
},
{
closed = 1;
nodes = (
"292 504 LINE SMOOTH",
"325 595 OFFCURVE",
"365 695 OFFCURVE",
"471 695 CURVE SMOOTH",
"521 695 OFFCURVE",
"585 675 OFFCURVE",
"607 604 CURVE",
"667 678 LINE",
"639 700 OFFCURVE",
"543 720 OFFCURVE",
"480 720 CURVE SMOOTH",
"325 720 OFFCURVE",
"277 653 OFFCURVE",
"228 520 CURVE SMOOTH",
"-11 -131 LINE SMOOTH",
"-42 -214 OFFCURVE",
"-70 -268 OFFCURVE",
"-105 -268 CURVE SMOOTH",
"-149 -268 OFFCURVE",
"-126 -174 OFFCURVE",
"-185 -174 CURVE SMOOTH",
"-213 -174 OFFCURVE",
"-234 -194 OFFCURVE",
"-234 -221 CURVE SMOOTH",
"-234 -255 OFFCURVE",
"-205 -290 OFFCURVE",
"-123 -290 CURVE SMOOTH",
"-36 -290 OFFCURVE",
"14 -260 OFFCURVE",
"61 -131 CURVE SMOOTH"
);
}
);
width = 869;
},
{
associatedMasterId = "9372F035-DA38-4B54-966C-CEBA9B53DD02";
layerId = "2E3328D5-9E06-4BAB-BA12-EA42E44913C8";
name = "Oct 19 17, 11:36";
paths = (
{
closed = 1;
nodes = (
"321 596 OFFCURVE",
"351 695 OFFCURVE",
"449 695 CURVE SMOOTH",
"502 695 OFFCURVE",
"567 660 OFFCURVE",
"589 597 CURVE",
"621 660 LINE",
"611 678 OFFCURVE",
"522 720 OFFCURVE",
"443 720 CURVE SMOOTH",
"320 720 OFFCURVE",
"272 653 OFFCURVE",
"223 520 CURVE SMOOTH",
"-15 -129 LINE SMOOTH",
"-41 -208 OFFCURVE",
"-69 -268 OFFCURVE",
"-110 -268 CURVE SMOOTH",
"-122 -268 OFFCURVE",
"-126 -266 OFFCURVE",
"-126 -261 CURVE SMOOTH",
"-126 -251 OFFCURVE",
"-116 -243 OFFCURVE",
"-116 -217 CURVE SMOOTH",
"-116 -188 OFFCURVE",
"-136 -167 OFFCURVE",
"-164 -167 CURVE SMOOTH",
"-196 -167 OFFCURVE",
"-215 -193 OFFCURVE",
"-215 -220 CURVE SMOOTH",
"-215 -250 OFFCURVE",
"-196 -290 OFFCURVE",
"-122 -290 CURVE SMOOTH",
"-37 -290 OFFCURVE",
"13 -253 OFFCURVE",
"49 -145 CURVE SMOOTH",
"287 504 LINE SMOOTH"
);
},
{
closed = 1;
nodes = (
"581 712 OFFCURVE",
"507 711 OFFCURVE",
"433 710 CURVE",
"493 703 OFFCURVE",
"538 687 OFFCURVE",
"571 664 CURVE",
"468 384 LINE",
"535 384 LINE",
"651 702 LINE",
"655 713 LINE"
);
},
{
closed = 1;
nodes = (
"661 -14 OFFCURVE",
"801 122 OFFCURVE",
"801 287 CURVE SMOOTH",
"801 380 OFFCURVE",
"740 454 OFFCURVE",
"654 454 CURVE SMOOTH",
"603 454 OFFCURVE",
"549 429 OFFCURVE",
"525 378 CURVE",
"530 370 LINE",
"651 702 LINE",
"586 702 LINE",
"412 233 LINE SMOOTH",
"347 71 OFFCURVE",
"407 -14 OFFCURVE",
"533 -14 CURVE SMOOTH"
);
},
{
closed = 1;
nodes = (
"442 10 OFFCURVE",
"431 90 OFFCURVE",
"478 221 CURVE SMOOTH",
"497 274 LINE SMOOTH",
"527 358 OFFCURVE",
"572 430 OFFCURVE",
"648 430 CURVE SMOOTH",
"689 430 OFFCURVE",
"729 397 OFFCURVE",
"729 326 CURVE SMOOTH",
"729 184 OFFCURVE",
"632 10 OFFCURVE",
"533 10 CURVE SMOOTH"
);
},
{
closed = 1;
nodes = (
"358 416 LINE",
"365 440 LINE",
"98 440 LINE",
"91 416 LINE"
);
}
);
width = 851;
}
);
leftMetricsKey = f;
rightMetricsKey = b;
},
{
glyphname = f_f.liga;
lastChange = "2017-10-19 15:01:19 +0000";
layers = (
{
anchors = (
{
name = caret_1;
position = "{316, 0}";
}
);
background = {
components = (
{
name = f;
transform = "{1, 0, 0, 1, -2, 0}";
}
);
paths = (
{
closed = 1;
nodes = (
"645 416 LINE",
"652 440 LINE",
"385 440 LINE",
"378 416 LINE"
);
},
{
closed = 0;
nodes = (
"525 596 LINE",
"262 -129 LINE SMOOTH",
"234 -207 OFFCURVE",
"208 -268 OFFCURVE",
"167 -268 CURVE SMOOTH",
"147 -268 OFFCURVE",
"138 -255 OFFCURVE",
"138 -217 CURVE SMOOTH",
"138 -188 OFFCURVE",
"128 -167 OFFCURVE",
"99 -167 CURVE SMOOTH",
"68 -167 OFFCURVE",
"51 -193 OFFCURVE",
"51 -220 CURVE SMOOTH",
"51 -250 OFFCURVE",
"85 -290 OFFCURVE",
"155 -290 CURVE SMOOTH",
"241 -290 OFFCURVE",
"289 -253 OFFCURVE",
"328 -145 CURVE SMOOTH",
"603 615 LINE"
);
}
);
};
layerId = "9372F035-DA38-4B54-966C-CEBA9B53DD02";
paths = (
{
closed = 1;
nodes = (
"418 416 LINE",
"425 440 LINE",
"98 440 LINE",
"91 416 LINE"
);
},
{
closed = 1;
nodes = (
"642 416 LINE",
"649 440 LINE",
"382 440 LINE",
"375 416 LINE"
);
},
{
closed = 1;
nodes = (
"640 672 OFFCURVE",
"684 698 OFFCURVE",
"712 698 CURVE SMOOTH",
"732 698 OFFCURVE",
"741 685 OFFCURVE",
"741 647 CURVE SMOOTH",
"741 618 OFFCURVE",
"751 597 OFFCURVE",
"780 597 CURVE SMOOTH",
"811 597 OFFCURVE",
"828 623 OFFCURVE",
"828 650 CURVE SMOOTH",
"828 680 OFFCURVE",
"807 720 OFFCURVE",
"712 720 CURVE SMOOTH",
"633 720 OFFCURVE",
"571 681 OFFCURVE",
"543 596 CURVE SMOOTH",
"304 -74 LINE SMOOTH",
"273 -168 OFFCURVE",
"231 -265 OFFCURVE",
"157 -265 CURVE SMOOTH",
"97 -265 OFFCURVE",
"74 -209 OFFCURVE",
"58 -126 CURVE",
"14 -208 LINE",
"14 -251 OFFCURVE",
"66 -290 OFFCURVE",
"137 -290 CURVE SMOOTH",
"261 -290 OFFCURVE",
"322 -225 OFFCURVE",
"367 -90 CURVE SMOOTH",
"621 615 LINE SMOOTH"
);
},
{
closed = 1;
nodes = (
"287 504 LINE SMOOTH",
"319 595 OFFCURVE",
"355 695 OFFCURVE",
"438 695 CURVE SMOOTH",
"506 695 OFFCURVE",
"540 638 OFFCURVE",
"546 582 CURVE",
"611 665 LINE",
"570 710 OFFCURVE",
"500 720 OFFCURVE",
"446 720 CURVE SMOOTH",
"324 720 OFFCURVE",
"271 653 OFFCURVE",
"223 520 CURVE SMOOTH",
"-11 -131 LINE SMOOTH",
"-41 -214 OFFCURVE",
"-70 -268 OFFCURVE",
"-105 -268 CURVE SMOOTH",
"-149 -268 OFFCURVE",
"-126 -174 OFFCURVE",
"-185 -174 CURVE SMOOTH",
"-213 -174 OFFCURVE",
"-234 -194 OFFCURVE",
"-234 -221 CURVE SMOOTH",
"-234 -255 OFFCURVE",
"-205 -290 OFFCURVE",
"-123 -290 CURVE SMOOTH",
"-36 -290 OFFCURVE",
"14 -260 OFFCURVE",
"61 -131 CURVE SMOOTH"
);
}
);
width = 632;
}
);
leftMetricsKey = f;
rightMetricsKey = f;
},
{
glyphname = f_f_i.liga;
lastChange = "2017-10-19 15:54:31 +0000";
layers = (
{
anchors = (
{
name = caret_1;
position = "{295, 0}";
},
{
name = caret_2;
position = "{590, 0}";
}
);
components = (
{
name = idotless;
transform = "{1, 0, 0, 1, 592, 0}";
}
);
layerId = "9372F035-DA38-4B54-966C-CEBA9B53DD02";
paths = (
{
closed = 1;
nodes = (
"432 416 LINE",
"439 440 LINE",
"92 440 LINE",
"85 416 LINE"
);
},
{
closed = 1;
nodes = (
"705 416 LINE",
"712 440 LINE",
"405 440 LINE",
"398 416 LINE"
);
},
{
closed = 1;
nodes = (
"779 698 OFFCURVE",
"798 683 OFFCURVE",
"798 633 CURVE SMOOTH",
"798 603 OFFCURVE",
"815 582 OFFCURVE",
"845 582 CURVE SMOOTH",
"882 582 OFFCURVE",
"904 613 OFFCURVE",
"904 642 CURVE SMOOTH",
"904 664 OFFCURVE",
"898 720 OFFCURVE",
"749 720 CURVE SMOOTH",
"635 720 OFFCURVE",
"577 680 OFFCURVE",
"547 596 CURVE SMOOTH",
"308 -74 LINE SMOOTH",
"274 -169 OFFCURVE",
"235 -265 OFFCURVE",
"161 -265 CURVE SMOOTH",
"96 -265 OFFCURVE",
"70 -204 OFFCURVE",
"53 -150 CURVE",
"4 -208 LINE",
"4 -251 OFFCURVE",
"62 -290 OFFCURVE",
"141 -290 CURVE SMOOTH",
"265 -290 OFFCURVE",
"324 -224 OFFCURVE",
"372 -90 CURVE SMOOTH",
"625 615 LINE SMOOTH",
"646 672 OFFCURVE",
"688 698 OFFCURVE",
"737 698 CURVE SMOOTH"
);
},
{
closed = 1;
nodes = (
"287 504 LINE SMOOTH",
"319 595 OFFCURVE",
"355 695 OFFCURVE",
"438 695 CURVE SMOOTH",
"506 695 OFFCURVE",
"540 638 OFFCURVE",
"546 582 CURVE",
"611 665 LINE",
"570 710 OFFCURVE",
"500 720 OFFCURVE",
"446 720 CURVE SMOOTH",
"324 720 OFFCURVE",
"271 653 OFFCURVE",
"223 520 CURVE SMOOTH",
"-11 -131 LINE SMOOTH",
"-41 -214 OFFCURVE",
"-70 -268 OFFCURVE",
"-105 -268 CURVE SMOOTH",
"-149 -268 OFFCURVE",
"-126 -174 OFFCURVE",
"-185 -174 CURVE SMOOTH",
"-213 -174 OFFCURVE",
"-234 -194 OFFCURVE",
"-234 -221 CURVE SMOOTH",
"-234 -255 OFFCURVE",
"-205 -290 OFFCURVE",
"-123 -290 CURVE SMOOTH",
"-36 -290 OFFCURVE",
"14 -260 OFFCURVE",
"61 -131 CURVE SMOOTH"
);
}
);
width = 885;
}
);
leftMetricsKey = f;
rightMetricsKey = i;
},
{
glyphname = f_f_l.liga;
lastChange = "2017-10-19 15:54:31 +0000";
layers = (
{
anchors = (
{
name = caret_1;
position = "{302.333, 0}";
},
{
name = caret_2;
position = "{604.667, 0}";
}
);
background = {
components = (
{
name = "_part-sortie-2";
transform = "{1, 0, 0, 1, 300, 0}";
}
);
paths = (
{
closed = 1;
nodes = (
"842 664 LINE",
"645 131 LINE",
"705 99 LINE",
"906 657 LINE"
);
},
{
closed = 1;
nodes = (
"645 416 LINE",
"652 440 LINE",
"385 440 LINE",
"378 416 LINE"
);
},
{
closed = 0;
nodes = (
"326 -145 LINE",
"564 504 LINE SMOOTH",
"598 595 OFFCURVE",
"637 695 OFFCURVE",
"737 695 CURVE SMOOTH",
"791 695 OFFCURVE",
"837 663 OFFCURVE",
"861 581 CURVE",
"906 657 LINE",
"879 697 OFFCURVE",
"817 720 OFFCURVE",
"743 720 CURVE SMOOTH",
"597 720 OFFCURVE",
"549 653 OFFCURVE",
"500 520 CURVE SMOOTH",
"262 -129 LINE"
);
}
);
};
components = (
{
name = "_part-sortie-2";
transform = "{1, 0, 0, 1, 320, 0}";
}
);
layerId = "9372F035-DA38-4B54-966C-CEBA9B53DD02";
paths = (
{
closed = 1;
nodes = (
"650 416 LINE",
"657 440 LINE",
"390 440 LINE",
"383 416 LINE"
);
},
{
closed = 1;
nodes = (
"862 664 LINE",
"665 131 LINE",
"725 99 LINE",
"926 657 LINE"
);
},
{
closed = 1;
nodes = (
"574 504 LINE SMOOTH",
"607 595 OFFCURVE",
"647 695 OFFCURVE",
"747 695 CURVE SMOOTH",
"805 695 OFFCURVE",
"855 663 OFFCURVE",
"881 581 CURVE",
"926 657 LINE",
"897 697 OFFCURVE",
"832 720 OFFCURVE",
"753 720 CURVE SMOOTH",
"607 720 OFFCURVE",
"559 653 OFFCURVE",
"510 520 CURVE SMOOTH",
"292 -74 LINE SMOOTH",
"258 -167 OFFCURVE",
"219 -265 OFFCURVE",
"145 -265 CURVE SMOOTH",
"85 -265 OFFCURVE",
"62 -204 OFFCURVE",
"40 -126 CURVE",
"2 -208 LINE",
"2 -251 OFFCURVE",
"54 -290 OFFCURVE",
"125 -290 CURVE SMOOTH",
"249 -290 OFFCURVE",
"307 -224 OFFCURVE",
"356 -90 CURVE SMOOTH"
);
},
{
closed = 1;
nodes = (
"432 416 LINE",
"439 440 LINE",
"92 440 LINE",
"85 416 LINE"
);
},
{
closed = 1;
nodes = (
"287 504 LINE SMOOTH",
"319 595 OFFCURVE",
"355 695 OFFCURVE",
"438 695 CURVE SMOOTH",
"506 695 OFFCURVE",
"540 638 OFFCURVE",
"546 582 CURVE",
"611 665 LINE",
"570 710 OFFCURVE",
"500 720 OFFCURVE",
"446 720 CURVE SMOOTH",
"324 720 OFFCURVE",
"271 653 OFFCURVE",
"223 520 CURVE SMOOTH",
"-11 -131 LINE SMOOTH",
"-41 -214 OFFCURVE",
"-70 -268 OFFCURVE",
"-105 -268 CURVE SMOOTH",
"-149 -268 OFFCURVE",
"-126 -174 OFFCURVE",
"-185 -174 CURVE SMOOTH",
"-213 -174 OFFCURVE",
"-234 -194 OFFCURVE",
"-234 -221 CURVE SMOOTH",
"-234 -255 OFFCURVE",
"-205 -290 OFFCURVE",
"-123 -290 CURVE SMOOTH",
"-36 -290 OFFCURVE",
"14 -260 OFFCURVE",
"61 -131 CURVE SMOOTH"
);
}
);
width = 907;
}
);
leftMetricsKey = f;
rightMetricsKey = l;
},
{
glyphname = f_h.liga;
lastChange = "2017-10-19 15:01:19 +0000";
layers = (
{
anchors = (
{
name = bottom_1;
position = "{136, 0}";
},
{
name = bottom_2;
position = "{567, 0}";
},
{
name = caret_1;
position = "{431, 0}";
},
{
name = top_1;
position = "{296, 440}";
},
{
name = top_2;
position = "{727, 440}";
}
);
background = {
components = (
{
name = f;
}
);
};
components = (
{
alignment = -1;
name = "_part-jambage";
transform = "{1, 0, 0, 1, 290, 0}";
}
);
layerId = "9372F035-DA38-4B54-966C-CEBA9B53DD02";
paths = (
{
closed = 1;
nodes = (
"576 664 LINE",
"331 0 LINE",
"403 0 LINE",
"640 657 LINE"
);
},
{
closed = 1;
nodes = (
"373 416 LINE",
"380 440 LINE",
"113 440 LINE",
"106 416 LINE"
);
},
{
closed = 1;
nodes = (
"292 504 LINE SMOOTH",
"325 595 OFFCURVE",
"365 695 OFFCURVE",
"471 695 CURVE SMOOTH",
"519 695 OFFCURVE",
"571 663 OFFCURVE",
"595 581 CURVE",
"640 657 LINE",
"613 697 OFFCURVE",
"553 720 OFFCURVE",
"480 720 CURVE SMOOTH",
"325 720 OFFCURVE",
"277 653 OFFCURVE",
"228 520 CURVE SMOOTH",
"-11 -131 LINE SMOOTH",
"-41 -214 OFFCURVE",
"-70 -268 OFFCURVE",
"-105 -268 CURVE SMOOTH",
"-149 -268 OFFCURVE",
"-126 -174 OFFCURVE",
"-185 -174 CURVE SMOOTH",
"-213 -174 OFFCURVE",
"-234 -194 OFFCURVE",
"-234 -221 CURVE SMOOTH",
"-234 -255 OFFCURVE",
"-205 -290 OFFCURVE",
"-123 -290 CURVE SMOOTH",
"-36 -290 OFFCURVE",
"14 -260 OFFCURVE",
"61 -131 CURVE SMOOTH"
);
}
);
width = 862;
},
{
associatedMasterId = "9372F035-DA38-4B54-966C-CEBA9B53DD02";
background = {
components = (
{
name = f_k.liga;
transform = "{1, 0, 0, 1, -28, 0}";
}
);
};
components = (
{
alignment = -1;
name = "_part-jambage";
transform = "{1, 0, 0, 1, 285, 0}";
}
);
layerId = "957F1FDD-764F-49C7-A1FD-74568DB8CD83";
name = "Oct 19 17, 11:32";
paths = (
{
closed = 1;
nodes = (
"358 416 LINE",
"365 440 LINE",
"98 440 LINE",
"91 416 LINE"
);
},
{
closed = 1;
nodes = (
"321 596 OFFCURVE",
"351 695 OFFCURVE",
"449 695 CURVE SMOOTH",
"502 695 OFFCURVE",
"567 660 OFFCURVE",
"589 597 CURVE",
"621 660 LINE",
"611 678 OFFCURVE",
"522 720 OFFCURVE",
"443 720 CURVE SMOOTH",
"320 720 OFFCURVE",
"272 653 OFFCURVE",
"223 520 CURVE SMOOTH",
"-15 -129 LINE SMOOTH",
"-41 -208 OFFCURVE",
"-69 -268 OFFCURVE",
"-110 -268 CURVE SMOOTH",
"-122 -268 OFFCURVE",
"-126 -266 OFFCURVE",
"-126 -261 CURVE SMOOTH",
"-126 -251 OFFCURVE",
"-116 -243 OFFCURVE",
"-116 -217 CURVE SMOOTH",
"-116 -188 OFFCURVE",
"-136 -167 OFFCURVE",
"-164 -167 CURVE SMOOTH",
"-196 -167 OFFCURVE",
"-215 -193 OFFCURVE",
"-215 -220 CURVE SMOOTH",
"-215 -250 OFFCURVE",
"-196 -290 OFFCURVE",
"-122 -290 CURVE SMOOTH",
"-37 -290 OFFCURVE",
"13 -253 OFFCURVE",
"49 -145 CURVE SMOOTH",
"287 504 LINE SMOOTH"
);
},
{
closed = 1;
nodes = (
"581 712 OFFCURVE",
"507 711 OFFCURVE",
"433 710 CURVE",
"493 703 OFFCURVE",
"538 687 OFFCURVE",
"571 664 CURVE",
"326 0 LINE",
"398 0 LINE",
"651 702 LINE",
"655 713 LINE"
);
}
);
width = 855;
}
);
leftMetricsKey = f;
rightMetricsKey = h;
},
{
glyphname = f_k.liga;
lastChange = "2017-10-20 11:42:06 +0000";
layers = (
{
anchors = (
{
name = bottom_1;
position = "{129, 0}";
},
{
name = bottom_2;
position = "{546, 0}";
},
{
name = caret_1;
position = "{417, 0}";
},
{
name = top_1;
position = "{289, 440}";
},
{
name = top_2;
position = "{706, 440}";
}
);
background = {
paths = (
{
closed = 1;
nodes = (
"363 416 LINE",
"370 440 LINE",
"103 440 LINE",
"96 416 LINE"
);
},
{
closed = 1;
nodes = (
"-41 -290 OFFCURVE",
"9 -253 OFFCURVE",
"46 -145 CURVE SMOOTH",
"321 615 LINE SMOOTH",
"340 672 OFFCURVE",
"384 698 OFFCURVE",
"412 698 CURVE SMOOTH",
"432 698 OFFCURVE",
"441 685 OFFCURVE",
"441 647 CURVE SMOOTH",
"441 618 OFFCURVE",
"451 597 OFFCURVE",
"480 597 CURVE SMOOTH",
"511 597 OFFCURVE",
"528 623 OFFCURVE",
"528 650 CURVE SMOOTH",
"528 680 OFFCURVE",
"507 720 OFFCURVE",
"412 720 CURVE SMOOTH",
"333 720 OFFCURVE",
"271 681 OFFCURVE",
"243 596 CURVE SMOOTH",
"-20 -129 LINE SMOOTH",
"-46 -208 OFFCURVE",
"-74 -268 OFFCURVE",
"-115 -268 CURVE SMOOTH",
"-135 -268 OFFCURVE",
"-144 -255 OFFCURVE",
"-144 -217 CURVE SMOOTH",
"-144 -188 OFFCURVE",
"-154 -167 OFFCURVE",
"-183 -167 CURVE SMOOTH",
"-214 -167 OFFCURVE",
"-231 -193 OFFCURVE",
"-231 -220 CURVE SMOOTH",
"-231 -250 OFFCURVE",
"-197 -290 OFFCURVE",
"-127 -290 CURVE SMOOTH"
);
}
);
};
layerId = "9372F035-DA38-4B54-966C-CEBA9B53DD02";
paths = (
{
closed = 1;
nodes = (
"355 416 LINE",
"362 440 LINE",
"95 440 LINE",
"88 416 LINE"
);
},
{
closed = 1;
nodes = (
"576 664 LINE",
"331 0 LINE",
"403 0 LINE",
"640 657 LINE"
);
},
{
closed = 1;
nodes = (
"292 504 LINE SMOOTH",
"325 595 OFFCURVE",
"365 695 OFFCURVE",
"471 695 CURVE SMOOTH",
"519 695 OFFCURVE",
"571 663 OFFCURVE",
"595 581 CURVE",
"640 657 LINE",
"613 697 OFFCURVE",
"553 720 OFFCURVE",
"480 720 CURVE SMOOTH",
"325 720 OFFCURVE",
"277 653 OFFCURVE",
"228 520 CURVE SMOOTH",
"-11 -131 LINE SMOOTH",
"-41 -214 OFFCURVE",
"-70 -268 OFFCURVE",
"-105 -268 CURVE SMOOTH",
"-149 -268 OFFCURVE",
"-126 -174 OFFCURVE",
"-185 -174 CURVE SMOOTH",
"-213 -174 OFFCURVE",
"-234 -194 OFFCURVE",
"-234 -221 CURVE SMOOTH",
"-234 -255 OFFCURVE",
"-205 -290 OFFCURVE",
"-123 -290 CURVE SMOOTH",
"-36 -290 OFFCURVE",
"14 -260 OFFCURVE",
"61 -131 CURVE SMOOTH"
);
},
{
closed = 1;
nodes = (
"469 270 LINE",
"559 270 OFFCURVE",
"581 295 OFFCURVE",
"624 340 CURVE SMOOTH",
"665 383 LINE SMOOTH",
"685 403 OFFCURVE",
"698 414 OFFCURVE",
"714 414 CURVE SMOOTH",
"719 414 OFFCURVE",
"723 412 OFFCURVE",
"725 409 CURVE SMOOTH",
"729 404 OFFCURVE",
"730 396 OFFCURVE",
"730 387 CURVE SMOOTH",
"730 365 OFFCURVE",
"746 357 OFFCURVE",
"761 357 CURVE SMOOTH",
"787 357 OFFCURVE",
"798 382 OFFCURVE",
"798 407 CURVE SMOOTH",
"798 428 OFFCURVE",
"785 454 OFFCURVE",
"749 454 CURVE SMOOTH",
"710 454 OFFCURVE",
"686 433 OFFCURVE",
"649 394 CURVE SMOOTH",
"612 355 LINE SMOOTH",
"569 310 OFFCURVE",
"540 284 OFFCURVE",
"469 284 CURVE"
);
},
{
closed = 1;
nodes = (
"762 84 LINE",
"735 39 OFFCURVE",
"705 19 OFFCURVE",
"688 19 CURVE SMOOTH",
"656 19 OFFCURVE",
"660 64 OFFCURVE",
"659 114 CURVE SMOOTH",
"658 166 LINE SMOOTH",
"656 261 OFFCURVE",
"592 284 OFFCURVE",
"489 284 CURVE",
"487 269 LINE",
"565 269 OFFCURVE",
"591 233 OFFCURVE",
"591 159 CURVE SMOOTH",
"591 111 LINE SMOOTH",
"591 27 OFFCURVE",
"602 -14 OFFCURVE",
"658 -14 CURVE SMOOTH",
"696 -14 OFFCURVE",
"744 9 OFFCURVE",
"779 72 CURVE"
);
}
);
width = 816;
},
{
associatedMasterId = "9372F035-DA38-4B54-966C-CEBA9B53DD02";
background = {
components = (
{
name = k;
transform = "{1, 0, 0, 1, 303, 0}";
}
);
};
layerId = "300AD040-07BD-4326-BEB9-50B6F18C8038";
name = "Oct 19 17, 11:37";
paths = (
{
closed = 1;
nodes = (
"447 192 LINE",
"666 379 LINE SMOOTH",
"689 400 OFFCURVE",
"707 414 OFFCURVE",
"715 414 CURVE SMOOTH",
"735 414 OFFCURVE",
"739 379 OFFCURVE",
"775 379 CURVE SMOOTH",
"799 379 OFFCURVE",
"819 396 OFFCURVE",
"819 420 CURVE SMOOTH",
"819 440 OFFCURVE",
"800 454 OFFCURVE",
"766 454 CURVE SMOOTH",
"729 454 OFFCURVE",
"691 429 OFFCURVE",
"649 392 CURVE SMOOTH",
"463 237 LINE"
);
},
{
closed = 1;
nodes = (
"772 70 LINE",
"727 32 OFFCURVE",
"711 19 OFFCURVE",
"696 19 CURVE SMOOTH",
"666 19 OFFCURVE",
"652 68 OFFCURVE",
"634 114 CURVE SMOOTH",
"558 313 LINE",
"506 264 LINE",
"564 111 LINE SMOOTH",
"594 33 OFFCURVE",
"603 -14 OFFCURVE",
"667 -14 CURVE SMOOTH",
"704 -14 OFFCURVE",
"733 -1 OFFCURVE",
"786 52 CURVE"
);
},
{
closed = 1;
nodes = (
"362 720 OFFCURVE",
"273 676 OFFCURVE",
"220 527 CURVE SMOOTH",
"-15 -129 LINE SMOOTH",
"-43 -207 OFFCURVE",
"-69 -268 OFFCURVE",
"-110 -268 CURVE SMOOTH",
"-122 -268 OFFCURVE",
"-126 -266 OFFCURVE",
"-126 -261 CURVE SMOOTH",
"-126 -251 OFFCURVE",
"-116 -243 OFFCURVE",
"-116 -217 CURVE SMOOTH",
"-116 -188 OFFCURVE",
"-136 -167 OFFCURVE",
"-164 -167 CURVE SMOOTH",
"-196 -167 OFFCURVE",
"-215 -193 OFFCURVE",
"-215 -220 CURVE SMOOTH",
"-215 -250 OFFCURVE",
"-196 -290 OFFCURVE",
"-122 -290 CURVE SMOOTH",
"-37 -290 OFFCURVE",
"10 -252 OFFCURVE",
"49 -145 CURVE SMOOTH",
"304 560 LINE SMOOTH",
"332 638 OFFCURVE",
"382 698 OFFCURVE",
"449 698 CURVE SMOOTH",
"510 698 OFFCURVE",
"530 641 OFFCURVE",
"530 611 CURVE SMOOTH",
"530 591 OFFCURVE",
"520 557 OFFCURVE",
"510 531 CURVE SMOOTH",
"314 0 LINE",
"381 0 LINE",
"574 518 LINE SMOOTH",
"621 643 OFFCURVE",
"598 720 OFFCURVE",
"472 720 CURVE SMOOTH"
);
},
{
closed = 1;
nodes = (
"360 416 LINE",
"367 440 LINE",
"100 440 LINE",
"93 416 LINE"
);
}
);
width = 808;
}
);
leftMetricsKey = f;
rightMetricsKey = k;
},
{
glyphname = f_t.liga;
lastChange = "2017-10-19 15:01:19 +0000";
layers = (
{
anchors = (
{
name = bottom_1;
position = "{82, 0}";
},
{
name = bottom_2;
position = "{407, 0}";
},
{
name = caret_1;
position = "{324.5, 0}";
},
{
name = top_1;
position = "{242, 440}";
},
{
name = top_2;
position = "{567, 440}";
}
);
components = (
{
name = f;
},
{
name = t;
transform = "{1, 0, 0, 1, 299, 0}";
}
);
layerId = "9372F035-DA38-4B54-966C-CEBA9B53DD02";
paths = (
{
closed = 1;
nodes = (
"562 416 LINE",
"570 440 LINE",
"354 440 LINE",
"346 416 LINE"
);
}
);
width = 649;
},
{
associatedMasterId = "9372F035-DA38-4B54-966C-CEBA9B53DD02";
layerId = "EE7A6F94-174A-4B8A-9847-F44A8DCC8C40";
name = "Oct 19 17, 11:34";
paths = (
{
closed = 1;
nodes = (
"428 416 LINE",
"435 440 LINE",
"108 440 LINE",
"101 416 LINE"
);
},
{
closed = 1;
nodes = (
"321 595 OFFCURVE",
"349 695 OFFCURVE",
"444 695 CURVE SMOOTH",
"498 695 OFFCURVE",
"544 664 OFFCURVE",
"568 582 CURVE",
"600 657 LINE",
"582 697 OFFCURVE",
"521 720 OFFCURVE",
"453 720 CURVE SMOOTH",
"320 720 OFFCURVE",
"272 653 OFFCURVE",
"223 520 CURVE SMOOTH",
"-15 -129 LINE SMOOTH",
"-41 -208 OFFCURVE",
"-69 -268 OFFCURVE",
"-110 -268 CURVE SMOOTH",
"-122 -268 OFFCURVE",
"-126 -266 OFFCURVE",
"-126 -261 CURVE SMOOTH",
"-126 -251 OFFCURVE",
"-116 -243 OFFCURVE",
"-116 -217 CURVE SMOOTH",
"-116 -188 OFFCURVE",
"-136 -167 OFFCURVE",
"-164 -167 CURVE SMOOTH",
"-196 -167 OFFCURVE",
"-215 -193 OFFCURVE",
"-215 -220 CURVE SMOOTH",
"-215 -250 OFFCURVE",
"-196 -290 OFFCURVE",
"-122 -290 CURVE SMOOTH",
"-37 -290 OFFCURVE",
"13 -253 OFFCURVE",
"49 -145 CURVE SMOOTH",
"287 504 LINE SMOOTH"
);
},
{
closed = 1;
nodes = (
"431 -14 OFFCURVE",
"463 21 OFFCURVE",
"521 89 CURVE",
"503 105 LINE",
"461 55 OFFCURVE",
"430 19 OFFCURVE",
"401 19 CURVE SMOOTH",
"382 19 OFFCURVE",
"377 36 OFFCURVE",
"390 72 CURVE SMOOTH",
"600 657 LINE",
"533 657 LINE",
"328 92 LINE SMOOTH",
"308 38 OFFCURVE",
"312 -14 OFFCURVE",
"375 -14 CURVE SMOOTH"
);
},
{
closed = 1;
nodes = (
"607 416 LINE",
"615 440 LINE",
"389 440 LINE",
"381 416 LINE"
);
}
);
width = 585;
}
);
leftMetricsKey = f;
rightMetricsKey = t;
},
{
glyphname = zero;
lastChange = "2017-10-18 15:40:48 +0000";
layers = (
{
layerId = "9372F035-DA38-4B54-966C-CEBA9B53DD02";
paths = (
{
closed = 1;
nodes = (
"287 -14 OFFCURVE",
"401 82 OFFCURVE",
"451 220 CURVE SMOOTH",
"501 358 OFFCURVE",
"457 454 OFFCURVE",
"331 454 CURVE SMOOTH",
"205 454 OFFCURVE",
"91 358 OFFCURVE",
"41 220 CURVE SMOOTH",
"-9 82 OFFCURVE",
"35 -14 OFFCURVE",
"161 -14 CURVE SMOOTH"
);
},
{
closed = 1;
nodes = (
"92 11 OFFCURVE",
"76 97 OFFCURVE",
"121 220 CURVE SMOOTH",
"166 343 OFFCURVE",
"244 429 OFFCURVE",
"322 429 CURVE SMOOTH",
"400 429 OFFCURVE",
"416 343 OFFCURVE",
"371 220 CURVE SMOOTH",
"326 97 OFFCURVE",
"248 11 OFFCURVE",
"170 11 CURVE SMOOTH"
);
}
);
width = 490;
},
{
associatedMasterId = "9372F035-DA38-4B54-966C-CEBA9B53DD02";
layerId = "E6B8952F-D64A-490A-9CF5-6DF985D88222";
name = "new Layer";
paths = (
{
closed = 1;
nodes = (
"287 -14 OFFCURVE",
"401 82 OFFCURVE",
"451 220 CURVE SMOOTH",
"501 358 OFFCURVE",
"457 454 OFFCURVE",
"331 454 CURVE SMOOTH",
"205 454 OFFCURVE",
"91 358 OFFCURVE",
"41 220 CURVE SMOOTH",
"-9 82 OFFCURVE",
"35 -14 OFFCURVE",
"161 -14 CURVE SMOOTH"
);
},
{
closed = 1;
nodes = (
"92 11 OFFCURVE",
"76 97 OFFCURVE",
"121 220 CURVE SMOOTH",
"166 343 OFFCURVE",
"244 429 OFFCURVE",
"322 429 CURVE SMOOTH",
"400 429 OFFCURVE",
"416 343 OFFCURVE",
"371 220 CURVE SMOOTH",
"326 97 OFFCURVE",
"248 11 OFFCURVE",
"170 11 CURVE SMOOTH"
);
}
);
width = 490;
}
);
unicode = 0030;
},
{
glyphname = one;
lastChange = "2017-10-18 15:40:48 +0000";
layers = (
{
layerId = "9372F035-DA38-4B54-966C-CEBA9B53DD02";
paths = (
{
closed = 1;
nodes = (
"174 331 LINE SMOOTH",
"201 404 OFFCURVE",
"161 389 OFFCURVE",
"107 389 CURVE",
"118 419 LINE",
"173 419 OFFCURVE",
"230 444 OFFCURVE",
"289 454 CURVE",
"167 121 LINE SMOOTH",
"134 31 OFFCURVE",
"147 29 OFFCURVE",
"203 22 CURVE SMOOTH",
"218 20 LINE",
"209 -3 LINE",
"88 0 LINE",
"-35 -3 LINE",
"-27 20 LINE",
"-11 22 LINE SMOOTH",
"50 30 OFFCURVE",
"65 31 OFFCURVE",
"97 121 CURVE SMOOTH"
);
}
);
width = 335;
},
{
associatedMasterId = "9372F035-DA38-4B54-966C-CEBA9B53DD02";
hints = (
{
origin = "{0, 4}";
type = Corner;
name = "_corner-bdc";
},
{
origin = "{0, 5}";
scale = "{-1, 1}";
type = Corner;
name = "_corner-bdc";
options = 1;
}
);
layerId = "3A6012CA-9A48-4B0F-B9D9-7B29ED02AA58";
name = "Oct 17 17, 11:54";
paths = (
{
closed = 1;
nodes = (
"30 408 LINE",
"84 408 OFFCURVE",
"118 402 OFFCURVE",
"118 330 CURVE SMOOTH",
"118 0 LINE",
"188 0 LINE",
"188 446 LINE",
"133 436 OFFCURVE",
"85 431 OFFCURVE",
"30 431 CURVE"
);
}
);
width = 301;
},
{
associatedMasterId = "9372F035-DA38-4B54-966C-CEBA9B53DD02";
layerId = "E6B8952F-D64A-490A-9CF5-6DF985D88222";
name = "new Layer";
paths = (
{
closed = 1;
nodes = (
"174 331 LINE SMOOTH",
"201 404 OFFCURVE",
"161 389 OFFCURVE",
"107 389 CURVE",
"118 419 LINE",
"173 419 OFFCURVE",
"230 444 OFFCURVE",
"289 454 CURVE",
"167 121 LINE SMOOTH",
"134 31 OFFCURVE",
"147 29 OFFCURVE",
"203 22 CURVE SMOOTH",
"218 20 LINE",
"209 -3 LINE",
"88 0 LINE",
"-35 -3 LINE",
"-27 20 LINE",
"-11 22 LINE SMOOTH",
"50 30 OFFCURVE",
"65 31 OFFCURVE",
"97 121 CURVE SMOOTH"
);
}
);
width = 335;
}
);
unicode = 0031;
},
{
glyphname = two;
lastChange = "2017-10-18 15:40:48 +0000";
layers = (
{
layerId = "9372F035-DA38-4B54-966C-CEBA9B53DD02";
paths = (
{
closed = 1;
nodes = (
"144 215 LINE",
"107 221 OFFCURVE",
"89 254 OFFCURVE",
"110 310 CURVE SMOOTH",
"131 368 OFFCURVE",
"190 423 OFFCURVE",
"255 423 CURVE SMOOTH",
"324 423 OFFCURVE",
"338 367 OFFCURVE",
"315 303 CURVE SMOOTH",
"290 234 OFFCURVE",
"195 175 OFFCURVE",
"-18 15 CURVE",
"-25 -5 LINE",
"305 0 LINE",
"335 82 LINE",
"81 65 LINE",
"214 177 OFFCURVE",
"362 213 OFFCURVE",
"399 313 CURVE SMOOTH",
"428 392 OFFCURVE",
"380 453 OFFCURVE",
"281 453 CURVE SMOOTH",
"196 453 OFFCURVE",
"110 383 OFFCURVE",
"85 313 CURVE SMOOTH",
"63 252 OFFCURVE",
"87 202 OFFCURVE",
"136 194 CURVE"
);
},
{
closed = 1;
nodes = (
"335 82 LINE",
"313 72 LINE",
"272 -40 LINE",
"290 -40 LINE"
);
}
);
width = 434;
},
{
associatedMasterId = "9372F035-DA38-4B54-966C-CEBA9B53DD02";
layerId = "C92A1EF9-EF50-410D-BB22-3A00B08A48D5";
name = "Oct 16 17, 11:21";
paths = (
{
closed = 1;
nodes = (
"125 204 LINE",
"125 220 LINE"
);
},
{
closed = 1;
nodes = (
"125 220 LINE",
"86 232 OFFCURVE",
"50 264 OFFCURVE",
"50 320 CURVE SMOOTH",
"50 378 OFFCURVE",
"96 430 OFFCURVE",
"157 430 CURVE SMOOTH",
"210 430 OFFCURVE",
"250 377 OFFCURVE",
"250 313 CURVE SMOOTH",
"250 244 OFFCURVE",
"206 177 OFFCURVE",
"52 17 CURVE",
"52 -5 LINE",
"280 0 LINE",
"287 -56 LINE",
"302 -56 LINE",
"307 -1 OFFCURVE",
"313 36 OFFCURVE",
"330 82 CURVE",
"113 65 LINE",
"110 44 LINE",
"202 156 OFFCURVE",
"330 222 OFFCURVE",
"330 323 CURVE SMOOTH",
"330 392 OFFCURVE",
"265 450 OFFCURVE",
"176 450 CURVE SMOOTH",
"91 450 OFFCURVE",
"30 390 OFFCURVE",
"30 320 CURVE SMOOTH",
"30 259 OFFCURVE",
"73 218 OFFCURVE",
"125 204 CURVE"
);
}
);
width = 360;
},
{
associatedMasterId = "9372F035-DA38-4B54-966C-CEBA9B53DD02";
layerId = "A8E1C4B8-A7E6-4BB3-B48F-EF476E345814";
name = "Oct 16 17, 12:22";
paths = (
{
closed = 1;
nodes = (
"125 225 LINE",
"86 231 OFFCURVE",
"62 264 OFFCURVE",
"62 320 CURVE SMOOTH",
"62 378 OFFCURVE",
"96 420 OFFCURVE",
"157 420 CURVE SMOOTH",
"210 420 OFFCURVE",
"250 377 OFFCURVE",
"250 313 CURVE SMOOTH",
"250 244 OFFCURVE",
"206 175 OFFCURVE",
"52 15 CURVE",
"52 -5 LINE",
"330 0 LINE",
"330 82 LINE",
"113 65 LINE",
"110 44 LINE",
"202 156 OFFCURVE",
"330 222 OFFCURVE",
"330 323 CURVE SMOOTH",
"330 392 OFFCURVE",
"265 450 OFFCURVE",
"176 450 CURVE SMOOTH",
"91 450 OFFCURVE",
"30 390 OFFCURVE",
"30 320 CURVE SMOOTH",
"30 259 OFFCURVE",
"73 212 OFFCURVE",
"125 204 CURVE"
);
},
{
closed = 1;
nodes = (
"330 82 LINE",
"312 72 LINE",
"312 -40 LINE",
"330 -40 LINE"
);
}
);
width = 360;
},
{
associatedMasterId = "9372F035-DA38-4B54-966C-CEBA9B53DD02";
layerId = "8E453B26-DA04-4356-9938-960E9DAA0B0A";
name = "Oct 17 17, 11:57";
paths = (
{
closed = 1;
nodes = (
"125 215 LINE",
"86 221 OFFCURVE",
"62 254 OFFCURVE",
"62 310 CURVE SMOOTH",
"62 368 OFFCURVE",
"96 420 OFFCURVE",
"157 420 CURVE SMOOTH",
"210 420 OFFCURVE",
"260 367 OFFCURVE",
"260 303 CURVE SMOOTH",
"260 234 OFFCURVE",
"206 175 OFFCURVE",
"52 15 CURVE",
"52 -5 LINE",
"330 0 LINE",
"330 82 LINE",
"128 65 LINE",
"220 177 OFFCURVE",
"340 213 OFFCURVE",
"340 313 CURVE SMOOTH",
"340 382 OFFCURVE",
"265 450 OFFCURVE",
"176 450 CURVE SMOOTH",
"91 450 OFFCURVE",
"30 380 OFFCURVE",
"30 310 CURVE SMOOTH",
"30 249 OFFCURVE",
"73 202 OFFCURVE",
"125 194 CURVE"
);
},
{
closed = 1;
nodes = (
"330 82 LINE",
"312 72 LINE",
"312 -40 LINE",
"330 -40 LINE"
);
}
);
width = 360;
},
{
associatedMasterId = "9372F035-DA38-4B54-966C-CEBA9B53DD02";
layerId = "E6B8952F-D64A-490A-9CF5-6DF985D88222";
name = "new Layer";
paths = (
{
closed = 1;
nodes = (
"144 215 LINE",
"107 221 OFFCURVE",
"89 254 OFFCURVE",
"110 310 CURVE SMOOTH",
"131 368 OFFCURVE",
"190 423 OFFCURVE",
"255 423 CURVE SMOOTH",
"324 423 OFFCURVE",
"338 367 OFFCURVE",
"315 303 CURVE SMOOTH",
"290 234 OFFCURVE",
"195 175 OFFCURVE",
"-18 15 CURVE",
"-25 -5 LINE",
"305 0 LINE",
"335 82 LINE",
"81 65 LINE",
"214 177 OFFCURVE",
"362 213 OFFCURVE",
"399 313 CURVE SMOOTH",
"428 392 OFFCURVE",
"380 453 OFFCURVE",
"281 453 CURVE SMOOTH",
"196 453 OFFCURVE",
"110 383 OFFCURVE",
"85 313 CURVE SMOOTH",
"63 252 OFFCURVE",
"87 202 OFFCURVE",
"136 194 CURVE"
);
},
{
closed = 1;
nodes = (
"335 82 LINE",
"313 72 LINE",
"272 -40 LINE",
"290 -40 LINE"
);
}
);
width = 434;
}
);
unicode = 0032;
},
{
glyphname = three;
lastChange = "2017-10-18 15:40:48 +0000";
layers = (
{
layerId = "9372F035-DA38-4B54-966C-CEBA9B53DD02";
paths = (
{
closed = 1;
nodes = (
"174 125 OFFCURVE",
"164 125 OFFCURVE",
"152 123 CURVE",
"227 171 OFFCURVE",
"369 216 OFFCURVE",
"404 313 CURVE SMOOTH",
"433 392 OFFCURVE",
"385 453 OFFCURVE",
"286 453 CURVE SMOOTH",
"201 453 OFFCURVE",
"116 383 OFFCURVE",
"90 313 CURVE SMOOTH",
"68 252 OFFCURVE",
"93 202 OFFCURVE",
"142 194 CURVE",
"150 215 LINE",
"113 221 OFFCURVE",
"95 254 OFFCURVE",
"115 310 CURVE SMOOTH",
"136 368 OFFCURVE",
"195 423 OFFCURVE",
"260 423 CURVE SMOOTH",
"329 423 OFFCURVE",
"344 367 OFFCURVE",
"321 303 CURVE SMOOTH",
"296 234 OFFCURVE",
"224 190 OFFCURVE",
"113 112 CURVE",
"101 79 LINE",
"121 90 OFFCURVE",
"143 99 OFFCURVE",
"175 99 CURVE SMOOTH",
"225 99 OFFCURVE",
"252 47 OFFCURVE",
"201 -72 CURVE SMOOTH",
"141 -212 OFFCURVE",
"42 -265 OFFCURVE",
"-36 -265 CURVE SMOOTH",
"-143 -265 OFFCURVE",
"-54 -164 OFFCURVE",
"-101 -164 CURVE SMOOTH",
"-126 -164 OFFCURVE",
"-144 -177 OFFCURVE",
"-152 -200 CURVE SMOOTH",
"-168 -243 OFFCURVE",
"-144 -291 OFFCURVE",
"-47 -290 CURVE SMOOTH",
"32 -289 OFFCURVE",
"219 -226 OFFCURVE",
"285 -72 CURVE SMOOTH",
"336 47 OFFCURVE",
"312 125 OFFCURVE",
"184 125 CURVE SMOOTH"
);
}
);
width = 441;
},
{
associatedMasterId = "9372F035-DA38-4B54-966C-CEBA9B53DD02";
backgroundImage = {
crop = "{{1627.778, 919.259}, {222.222, 366.667}}";
imagePath = "../../1878 Limprimerie Berger Levrault Notice historique/Romain/JACOB-notice-187523.jpg";
transform = "{2.7, 0, 0, 2.7, -4569, -2762}";
};
layerId = "0EB56064-589C-4CA1-B490-F29978E73C5E";
name = "Oct 17 17, 12:03";
paths = (
{
closed = 1;
nodes = (
"178 125 LINE",
"253 193 OFFCURVE",
"324 240 OFFCURVE",
"324 320 CURVE SMOOTH",
"324 389 OFFCURVE",
"259 454 OFFCURVE",
"170 454 CURVE SMOOTH",
"85 454 OFFCURVE",
"14 392 OFFCURVE",
"14 322 CURVE SMOOTH",
"14 261 OFFCURVE",
"52 229 OFFCURVE",
"104 221 CURVE",
"104 242 LINE",
"65 248 OFFCURVE",
"41 279 OFFCURVE",
"41 322 CURVE SMOOTH",
"41 384 OFFCURVE",
"109 424 OFFCURVE",
"151 424 CURVE SMOOTH",
"219 424 OFFCURVE",
"268 374 OFFCURVE",
"268 310 CURVE SMOOTH",
"268 241 OFFCURVE",
"213 187 OFFCURVE",
"112 112 CURVE",
"165 116 LINE"
);
},
{
closed = 1;
nodes = (
"177 -289 OFFCURVE",
"321 -226 OFFCURVE",
"331 -72 CURVE SMOOTH",
"339 47 OFFCURVE",
"306 125 OFFCURVE",
"178 125 CURVE SMOOTH",
"157 125 OFFCURVE",
"135 123 OFFCURVE",
"112 112 CURVE",
"112 79 LINE",
"128 90 OFFCURVE",
"147 99 OFFCURVE",
"179 99 CURVE SMOOTH",
"229 99 OFFCURVE",
"255 47 OFFCURVE",
"247 -72 CURVE SMOOTH",
"238 -212 OFFCURVE",
"178 -265 OFFCURVE",
"100 -265 CURVE SMOOTH",
"-7 -265 OFFCURVE",
"45 -164 OFFCURVE",
"-2 -164 CURVE SMOOTH",
"-27 -164 OFFCURVE",
"-40 -177 OFFCURVE",
"-40 -200 CURVE SMOOTH",
"-40 -243 OFFCURVE",
"2 -291 OFFCURVE",
"98 -290 CURVE SMOOTH"
);
}
);
width = 405;
},
{
associatedMasterId = "9372F035-DA38-4B54-966C-CEBA9B53DD02";
layerId = "E6B8952F-D64A-490A-9CF5-6DF985D88222";
name = "new Layer";
paths = (
{
closed = 1;
nodes = (
"174 125 OFFCURVE",
"164 125 OFFCURVE",
"152 123 CURVE",
"227 171 OFFCURVE",
"369 216 OFFCURVE",
"404 313 CURVE SMOOTH",
"433 392 OFFCURVE",
"385 453 OFFCURVE",
"286 453 CURVE SMOOTH",
"201 453 OFFCURVE",
"116 383 OFFCURVE",
"90 313 CURVE SMOOTH",
"68 252 OFFCURVE",
"93 202 OFFCURVE",
"142 194 CURVE",
"150 215 LINE",
"113 221 OFFCURVE",
"95 254 OFFCURVE",
"115 310 CURVE SMOOTH",
"136 368 OFFCURVE",
"195 423 OFFCURVE",
"260 423 CURVE SMOOTH",
"329 423 OFFCURVE",
"344 367 OFFCURVE",
"321 303 CURVE SMOOTH",
"296 234 OFFCURVE",
"224 190 OFFCURVE",
"113 112 CURVE",
"101 79 LINE",
"121 90 OFFCURVE",
"143 99 OFFCURVE",
"175 99 CURVE SMOOTH",
"225 99 OFFCURVE",
"252 47 OFFCURVE",
"201 -72 CURVE SMOOTH",
"141 -212 OFFCURVE",
"42 -265 OFFCURVE",
"-36 -265 CURVE SMOOTH",
"-143 -265 OFFCURVE",
"-54 -164 OFFCURVE",
"-101 -164 CURVE SMOOTH",
"-126 -164 OFFCURVE",
"-144 -177 OFFCURVE",
"-152 -200 CURVE SMOOTH",
"-168 -243 OFFCURVE",
"-144 -291 OFFCURVE",
"-47 -290 CURVE SMOOTH",
"32 -289 OFFCURVE",
"219 -226 OFFCURVE",
"285 -72 CURVE SMOOTH",
"336 47 OFFCURVE",
"312 125 OFFCURVE",
"184 125 CURVE SMOOTH"
);
}
);
width = 441;
}
);
unicode = 0033;
},
{
glyphname = four;
lastChange = "2017-10-18 15:40:48 +0000";
layers = (
{
layerId = "9372F035-DA38-4B54-966C-CEBA9B53DD02";
paths = (
{
closed = 1;
nodes = (
"55 242 LINE",
"260 242 LINE",
"381 573 LINE"
);
},
{
closed = 1;
nodes = (
"253 222 LINE",
"17 222 LINE",
"24 242 LINE",
"488 710 LINE",
"500 710 LINE",
"330 242 LINE",
"464 242 LINE",
"457 222 LINE",
"323 222 LINE",
"286 121 LINE SMOOTH",
"253 31 OFFCURVE",
"266 29 OFFCURVE",
"322 22 CURVE SMOOTH",
"337 20 LINE",
"328 -3 LINE",
"207 0 LINE",
"84 -3 LINE",
"92 20 LINE",
"108 22 LINE SMOOTH",
"169 30 OFFCURVE",
"184 31 OFFCURVE",
"216 121 CURVE SMOOTH"
);
}
);
width = 496;
},
{
associatedMasterId = "9372F035-DA38-4B54-966C-CEBA9B53DD02";
background = {
paths = (
{
closed = 1;
nodes = (
"356 710 OFFCURVE",
"347 713 OFFCURVE",
"339 703 CURVE",
"30 242 LINE",
"30 222 LINE",
"266 222 LINE",
"266 0 LINE",
"356 0 LINE",
"356 222 LINE",
"490 222 LINE",
"490 242 LINE",
"356 242 LINE",
"356 700 LINE"
);
}
);
};
backgroundImage = {
crop = "{{1548.519, 1244.074}, {222.222, 366.667}}";
imagePath = "../../1878 Limprimerie Berger Levrault Notice historique/Romain/JACOB-notice-187522.jpg";
locked = "1";
transform = "{2.7, 0, 0, 2.7, -4231, -3622}";
};
hints = (
{
origin = "{0, 5}";
scale = "{1, -1}";
type = Corner;
name = "_corner-bdc";
options = 1;
},
{
origin = "{0, 4}";
type = Corner;
name = "_corner-bdc";
}
);
layerId = "96C70FD4-32BB-44A7-BFFB-954A20F34F86";
name = "Oct 17 17, 11:54";
paths = (
{
closed = 1;
nodes = (
"344 710 LINE",
"30 242 LINE",
"30 222 LINE",
"266 222 LINE",
"266 0 LINE",
"356 0 LINE",
"356 222 LINE",
"490 222 LINE",
"490 242 LINE",
"356 242 LINE",
"356 710 LINE"
);
},
{
closed = 1;
nodes = (
"266 242 LINE",
"47 242 LINE",
"44 226 LINE",
"290 588 LINE",
"266 580 LINE"
);
}
);
width = 550;
},
{
associatedMasterId = "9372F035-DA38-4B54-966C-CEBA9B53DD02";
layerId = "E6B8952F-D64A-490A-9CF5-6DF985D88222";
name = "new Layer";
paths = (
{
closed = 1;
nodes = (
"55 242 LINE",
"260 242 LINE",
"381 573 LINE"
);
},
{
closed = 1;
nodes = (
"253 222 LINE",
"17 222 LINE",
"24 242 LINE",
"488 710 LINE",
"500 710 LINE",
"330 242 LINE",
"464 242 LINE",
"457 222 LINE",
"323 222 LINE",
"286 121 LINE SMOOTH",
"253 31 OFFCURVE",
"266 29 OFFCURVE",
"322 22 CURVE SMOOTH",
"337 20 LINE",
"328 -3 LINE",
"207 0 LINE",
"84 -3 LINE",
"92 20 LINE",
"108 22 LINE SMOOTH",
"169 30 OFFCURVE",
"184 31 OFFCURVE",
"216 121 CURVE SMOOTH"
);
}
);
width = 496;
},
{
associatedMasterId = "9372F035-DA38-4B54-966C-CEBA9B53DD02";
background = {
paths = (
{
closed = 1;
nodes = (
"354 710 LINE",
"40 242 LINE",
"40 222 LINE",
"276 222 LINE",
"276 0 LINE",
"366 0 LINE",
"366 222 LINE",
"500 222 LINE",
"500 242 LINE",
"366 242 LINE",
"366 710 LINE"
);
},
{
closed = 1;
nodes = (
"276 242 LINE",
"57 242 LINE",
"54 226 LINE",
"300 588 LINE",
"276 580 LINE"
);
}
);
};
backgroundImage = {
crop = "{{1548.519, 1244.074}, {222.222, 366.667}}";
imagePath = "../../1878 Limprimerie Berger Levrault Notice historique/Romain/JACOB-notice-187522.jpg";
locked = "1";
transform = "{2.7, 0, 0, 2.7, -4221, -3622}";
};
hints = (
{
origin = "{0, 5}";
scale = "{1, -1}";
type = Corner;
name = "_corner-bdc";
options = 1;
},
{
origin = "{0, 4}";
type = Corner;
name = "_corner-bdc";
}
);
layerId = "508C3F73-4C6D-439B-BA11-C64FDCFAA8BE";
name = "Oct 17 17, 14:15";
paths = (
{
closed = 1;
nodes = (
"334 710 LINE",
"40 242 LINE",
"40 222 LINE",
"276 222 LINE",
"276 0 LINE",
"346 0 LINE",
"346 222 LINE",
"480 222 LINE",
"480 242 LINE",
"346 242 LINE",
"346 710 LINE"
);
},
{
closed = 1;
nodes = (
"276 242 LINE",
"64 242 LINE",
"276 580 LINE"
);
}
);
width = 540;
},
{
associatedMasterId = "9372F035-DA38-4B54-966C-CEBA9B53DD02";
layerId = "9BE9485E-9A39-4C62-9FF5-C0DD3E9E4746";
name = "Oct 17 17, 15:57";
paths = (
{
closed = 1;
nodes = (
"48 242 LINE",
"260 242 LINE",
"383 580 LINE"
);
},
{
closed = 1;
nodes = (
"253 222 LINE",
"17 222 LINE",
"24 242 LINE",
"488 710 LINE",
"500 710 LINE",
"330 242 LINE",
"464 242 LINE",
"457 222 LINE",
"323 222 LINE",
"286 121 LINE SMOOTH",
"253 31 OFFCURVE",
"266 29 OFFCURVE",
"322 22 CURVE SMOOTH",
"337 20 LINE",
"328 -3 LINE",
"207 0 LINE",
"84 -3 LINE",
"92 20 LINE",
"108 22 LINE SMOOTH",
"169 30 OFFCURVE",
"184 31 OFFCURVE",
"216 121 CURVE SMOOTH"
);
}
);
width = 496;
}
);
unicode = 0034;
},
